  0
SECTION
  2
HEADER
  9
$ANGBASE
  50
0.0
  9
$ANGDIR
  70
1
  9
$MEASUREMENT
  70
1
  0
ENDSEC
  0
SECTION
  2
TABLES
  0
TABLE
  2
LTYPE
  70
4
  0
LTYPE
  5
40F
  2
CONTINUOUS
  70
0
  3
Solid line
  72
65
  73
0
  40
0.0
  0
LTYPE
  5
410
  2
DASHDOT
 70
0
  3
Dash Dot ____ _ ____ _
 72
65
 73
4
 40
2.0
 49
1.25
 49
-0.25
 49
0.25
 49
-0.25
  0
LTYPE
  5
411
  2
DASHED
 70
0
  3
Dashed __ __ __ __ __
 72
65
 73
2
 40
0.75
 49
0.5
 49
-0.25
  0
LTYPE
  5
43B
  2
DOTTED
 70
0
  3
Dotted .  .  .  .
 72
65
 73
2
 40
0.2
 49
0.0
 49
-0.2
  0
ENDTAB
  0
TABLE
  2
STYLE
  70
4
  0
STYLE
  2
KICAD
  70
0
  40
0
  41
1
  42
1
  50
0
  71
0
  3
isocp.shx
  0
STYLE
  2
KICADB
  70
0
  40
0
  41
1
  42
1
  50
0
  71
0
  3
isocp.shx
  0
STYLE
  2
KICADI
  70
0
  40
0
  41
1
  42
1
  50
15
  71
0
  3
isocp.shx
  0
STYLE
  2
KICADBI
  70
0
  40
0
  41
1
  42
1
  50
15
  71
0
  3
isocp.shx
  0
ENDTAB
  0
TABLE
  2
LAYER
  70
1
  0
LAYER
  2
BLACK
  70
0
  62
7
  6
CONTINUOUS
  0
ENDTAB
  0
ENDSEC
  0
SECTION
  2
ENTITIES
0
CIRCLE
8
BLACK
10
147.32
20
-83.72
40
1.5875
0
CIRCLE
8
BLACK
10
147.32
20
-95.72
40
7
0
CIRCLE
8
BLACK
10
147.32
20
-107.72
40
1.5875
0
CIRCLE
8
BLACK
10
147.32
20
-95.72
40
50
0
CIRCLE
8
BLACK
10
147.32
20
-55.72
40
6.125
0
LINE
8
BLACK
6
CONTINUOUS
10
99.8778
20
-148.885
11
99.8778
21
-146.885
0
LINE
8
BLACK
6
CONTINUOUS
10
99.8778
20
-146.885
11
100.354
21
-146.885
0
LINE
8
BLACK
6
CONTINUOUS
10
100.354
20
-146.885
11
100.64
21
-146.98
0
LINE
8
BLACK
6
CONTINUOUS
10
100.64
20
-146.98
11
100.83
21
-147.171
0
LINE
8
BLACK
6
CONTINUOUS
10
100.83
20
-147.171
11
100.925
21
-147.361
0
LINE
8
BLACK
6
CONTINUOUS
10
100.925
20
-147.361
11
101.021
21
-147.742
0
LINE
8
BLACK
6
CONTINUOUS
10
101.021
20
-147.742
11
101.021
21
-148.028
0
LINE
8
BLACK
6
CONTINUOUS
10
101.021
20
-148.028
11
100.925
21
-148.409
0
LINE
8
BLACK
6
CONTINUOUS
10
100.925
20
-148.409
11
100.83
21
-148.599
0
LINE
8
BLACK
6
CONTINUOUS
10
100.83
20
-148.599
11
100.64
21
-148.79
0
LINE
8
BLACK
6
CONTINUOUS
10
100.64
20
-148.79
11
100.354
21
-148.885
0
LINE
8
BLACK
6
CONTINUOUS
10
100.354
20
-148.885
11
99.8778
21
-148.885
0
LINE
8
BLACK
6
CONTINUOUS
10
101.878
20
-148.885
11
101.878
21
-147.552
0
LINE
8
BLACK
6
CONTINUOUS
10
101.878
20
-147.932
11
101.973
21
-147.742
0
LINE
8
BLACK
6
CONTINUOUS
10
101.973
20
-147.742
11
102.068
21
-147.647
0
LINE
8
BLACK
6
CONTINUOUS
10
102.068
20
-147.647
11
102.259
21
-147.552
0
LINE
8
BLACK
6
CONTINUOUS
10
102.259
20
-147.552
11
102.449
21
-147.552
0
LINE
8
BLACK
6
CONTINUOUS
10
103.116
20
-148.885
11
103.116
21
-147.552
0
LINE
8
BLACK
6
CONTINUOUS
10
103.116
20
-146.885
11
103.021
21
-146.98
0
LINE
8
BLACK
6
CONTINUOUS
10
103.021
20
-146.98
11
103.116
21
-147.075
0
LINE
8
BLACK
6
CONTINUOUS
10
103.116
20
-147.075
11
103.211
21
-146.98
0
LINE
8
BLACK
6
CONTINUOUS
10
103.211
20
-146.98
11
103.116
21
-146.885
0
LINE
8
BLACK
6
CONTINUOUS
10
103.116
20
-146.885
11
103.116
21
-147.075
0
LINE
8
BLACK
6
CONTINUOUS
10
104.354
20
-148.885
11
104.163
21
-148.79
0
LINE
8
BLACK
6
CONTINUOUS
10
104.163
20
-148.79
11
104.068
21
-148.599
0
LINE
8
BLACK
6
CONTINUOUS
10
104.068
20
-148.599
11
104.068
21
-146.885
0
LINE
8
BLACK
6
CONTINUOUS
10
105.402
20
-148.885
11
105.211
21
-148.79
0
LINE
8
BLACK
6
CONTINUOUS
10
105.211
20
-148.79
11
105.116
21
-148.599
0
LINE
8
BLACK
6
CONTINUOUS
10
105.116
20
-148.599
11
105.116
21
-146.885
0
LINE
8
BLACK
6
CONTINUOUS
10
107.687
20
-148.885
11
107.687
21
-146.885
0
LINE
8
BLACK
6
CONTINUOUS
10
107.687
20
-146.885
11
108.354
21
-148.313
0
LINE
8
BLACK
6
CONTINUOUS
10
108.354
20
-148.313
11
109.021
21
-146.885
0
LINE
8
BLACK
6
CONTINUOUS
10
109.021
20
-146.885
11
109.021
21
-148.885
0
LINE
8
BLACK
6
CONTINUOUS
10
110.83
20
-148.885
11
110.83
21
-147.837
0
LINE
8
BLACK
6
CONTINUOUS
10
110.83
20
-147.837
11
110.735
21
-147.647
0
LINE
8
BLACK
6
CONTINUOUS
10
110.735
20
-147.647
11
110.544
21
-147.552
0
LINE
8
BLACK
6
CONTINUOUS
10
110.544
20
-147.552
11
110.163
21
-147.552
0
LINE
8
BLACK
6
CONTINUOUS
10
110.163
20
-147.552
11
109.973
21
-147.647
0
LINE
8
BLACK
6
CONTINUOUS
10
110.83
20
-148.79
11
110.64
21
-148.885
0
LINE
8
BLACK
6
CONTINUOUS
10
110.64
20
-148.885
11
110.163
21
-148.885
0
LINE
8
BLACK
6
CONTINUOUS
10
110.163
20
-148.885
11
109.973
21
-148.79
0
LINE
8
BLACK
6
CONTINUOUS
10
109.973
20
-148.79
11
109.878
21
-148.599
0
LINE
8
BLACK
6
CONTINUOUS
10
109.878
20
-148.599
11
109.878
21
-148.409
0
LINE
8
BLACK
6
CONTINUOUS
10
109.878
20
-148.409
11
109.973
21
-148.218
0
LINE
8
BLACK
6
CONTINUOUS
10
109.973
20
-148.218
11
110.163
21
-148.123
0
LINE
8
BLACK
6
CONTINUOUS
10
110.163
20
-148.123
11
110.64
21
-148.123
0
LINE
8
BLACK
6
CONTINUOUS
10
110.64
20
-148.123
11
110.83
21
-148.028
0
LINE
8
BLACK
6
CONTINUOUS
10
111.783
20
-147.552
11
111.783
21
-149.552
0
LINE
8
BLACK
6
CONTINUOUS
10
111.783
20
-147.647
11
111.973
21
-147.552
0
LINE
8
BLACK
6
CONTINUOUS
10
111.973
20
-147.552
11
112.354
21
-147.552
0
LINE
8
BLACK
6
CONTINUOUS
10
112.354
20
-147.552
11
112.544
21
-147.647
0
LINE
8
BLACK
6
CONTINUOUS
10
112.544
20
-147.647
11
112.64
21
-147.742
0
LINE
8
BLACK
6
CONTINUOUS
10
112.64
20
-147.742
11
112.735
21
-147.932
0
LINE
8
BLACK
6
CONTINUOUS
10
112.735
20
-147.932
11
112.735
21
-148.504
0
LINE
8
BLACK
6
CONTINUOUS
10
112.735
20
-148.504
11
112.64
21
-148.694
0
LINE
8
BLACK
6
CONTINUOUS
10
112.64
20
-148.694
11
112.544
21
-148.79
0
LINE
8
BLACK
6
CONTINUOUS
10
112.544
20
-148.79
11
112.354
21
-148.885
0
LINE
8
BLACK
6
CONTINUOUS
10
112.354
20
-148.885
11
111.973
21
-148.885
0
LINE
8
BLACK
6
CONTINUOUS
10
111.973
20
-148.885
11
111.783
21
-148.79
0
LINE
8
BLACK
6
CONTINUOUS
10
113.592
20
-148.694
11
113.687
21
-148.79
0
LINE
8
BLACK
6
CONTINUOUS
10
113.687
20
-148.79
11
113.592
21
-148.885
0
LINE
8
BLACK
6
CONTINUOUS
10
113.592
20
-148.885
11
113.497
21
-148.79
0
LINE
8
BLACK
6
CONTINUOUS
10
113.497
20
-148.79
11
113.592
21
-148.694
0
LINE
8
BLACK
6
CONTINUOUS
10
113.592
20
-148.694
11
113.592
21
-148.885
0
LINE
8
BLACK
6
CONTINUOUS
10
113.592
20
-147.647
11
113.687
21
-147.742
0
LINE
8
BLACK
6
CONTINUOUS
10
113.687
20
-147.742
11
113.592
21
-147.837
0
LINE
8
BLACK
6
CONTINUOUS
10
113.592
20
-147.837
11
113.497
21
-147.742
0
LINE
8
BLACK
6
CONTINUOUS
10
113.497
20
-147.742
11
113.592
21
-147.647
0
LINE
8
BLACK
6
CONTINUOUS
10
113.592
20
-147.647
11
113.592
21
-147.837
  0
ENDSEC
  0
EOF
