%TF.GenerationSoftware,KiCad,Pcbnew,7.0.8*%
%TF.CreationDate,2024-03-21T08:56:40-07:00*%
%TF.ProjectId,disco_led_head,64697363-6f5f-46c6-9564-5f686561642e,1*%
%TF.SameCoordinates,Original*%
%TF.FileFunction,Legend,Top*%
%TF.FilePolarity,Positive*%
%FSLAX46Y46*%
G04 Gerber Fmt 4.6, Leading zero omitted, Abs format (unit mm)*
G04 Created by KiCad (PCBNEW 7.0.8) date 2024-03-21 08:56:40*
%MOMM*%
%LPD*%
G01*
G04 APERTURE LIST*
%ADD10C,0.100000*%
%ADD11C,0.150000*%
%ADD12C,0.300000*%
%ADD13C,0.400000*%
%ADD14C,0.187500*%
G04 APERTURE END LIST*
D10*
D11*
X177002200Y-166007200D02*
X285002200Y-166007200D01*
X285002200Y-198007200D01*
X177002200Y-198007200D01*
X177002200Y-166007200D01*
D10*
D11*
X10000000Y-10000000D02*
X287002200Y-10000000D01*
X287002200Y-200007200D01*
X10000000Y-200007200D01*
X10000000Y-10000000D01*
D10*
D11*
X12000000Y-12000000D02*
X285002200Y-12000000D01*
X285002200Y-198007200D01*
X12000000Y-198007200D01*
X12000000Y-12000000D01*
D10*
D11*
X60000000Y-12000000D02*
X60000000Y-10000000D01*
D10*
D11*
X110000000Y-12000000D02*
X110000000Y-10000000D01*
D10*
D11*
X160000000Y-12000000D02*
X160000000Y-10000000D01*
D10*
D11*
X210000000Y-12000000D02*
X210000000Y-10000000D01*
D10*
D11*
X260000000Y-12000000D02*
X260000000Y-10000000D01*
D10*
D11*
X36089160Y-11593604D02*
X35346303Y-11593604D01*
X35717731Y-11593604D02*
X35717731Y-10293604D01*
X35717731Y-10293604D02*
X35593922Y-10479319D01*
X35593922Y-10479319D02*
X35470112Y-10603128D01*
X35470112Y-10603128D02*
X35346303Y-10665033D01*
D10*
D11*
X85346303Y-10417414D02*
X85408207Y-10355509D01*
X85408207Y-10355509D02*
X85532017Y-10293604D01*
X85532017Y-10293604D02*
X85841541Y-10293604D01*
X85841541Y-10293604D02*
X85965350Y-10355509D01*
X85965350Y-10355509D02*
X86027255Y-10417414D01*
X86027255Y-10417414D02*
X86089160Y-10541223D01*
X86089160Y-10541223D02*
X86089160Y-10665033D01*
X86089160Y-10665033D02*
X86027255Y-10850747D01*
X86027255Y-10850747D02*
X85284398Y-11593604D01*
X85284398Y-11593604D02*
X86089160Y-11593604D01*
D10*
D11*
X135284398Y-10293604D02*
X136089160Y-10293604D01*
X136089160Y-10293604D02*
X135655826Y-10788842D01*
X135655826Y-10788842D02*
X135841541Y-10788842D01*
X135841541Y-10788842D02*
X135965350Y-10850747D01*
X135965350Y-10850747D02*
X136027255Y-10912652D01*
X136027255Y-10912652D02*
X136089160Y-11036461D01*
X136089160Y-11036461D02*
X136089160Y-11345985D01*
X136089160Y-11345985D02*
X136027255Y-11469795D01*
X136027255Y-11469795D02*
X135965350Y-11531700D01*
X135965350Y-11531700D02*
X135841541Y-11593604D01*
X135841541Y-11593604D02*
X135470112Y-11593604D01*
X135470112Y-11593604D02*
X135346303Y-11531700D01*
X135346303Y-11531700D02*
X135284398Y-11469795D01*
D10*
D11*
X185965350Y-10726938D02*
X185965350Y-11593604D01*
X185655826Y-10231700D02*
X185346303Y-11160271D01*
X185346303Y-11160271D02*
X186151064Y-11160271D01*
D10*
D11*
X236027255Y-10293604D02*
X235408207Y-10293604D01*
X235408207Y-10293604D02*
X235346303Y-10912652D01*
X235346303Y-10912652D02*
X235408207Y-10850747D01*
X235408207Y-10850747D02*
X235532017Y-10788842D01*
X235532017Y-10788842D02*
X235841541Y-10788842D01*
X235841541Y-10788842D02*
X235965350Y-10850747D01*
X235965350Y-10850747D02*
X236027255Y-10912652D01*
X236027255Y-10912652D02*
X236089160Y-11036461D01*
X236089160Y-11036461D02*
X236089160Y-11345985D01*
X236089160Y-11345985D02*
X236027255Y-11469795D01*
X236027255Y-11469795D02*
X235965350Y-11531700D01*
X235965350Y-11531700D02*
X235841541Y-11593604D01*
X235841541Y-11593604D02*
X235532017Y-11593604D01*
X235532017Y-11593604D02*
X235408207Y-11531700D01*
X235408207Y-11531700D02*
X235346303Y-11469795D01*
D10*
D11*
X285965350Y-10293604D02*
X285717731Y-10293604D01*
X285717731Y-10293604D02*
X285593922Y-10355509D01*
X285593922Y-10355509D02*
X285532017Y-10417414D01*
X285532017Y-10417414D02*
X285408207Y-10603128D01*
X285408207Y-10603128D02*
X285346303Y-10850747D01*
X285346303Y-10850747D02*
X285346303Y-11345985D01*
X285346303Y-11345985D02*
X285408207Y-11469795D01*
X285408207Y-11469795D02*
X285470112Y-11531700D01*
X285470112Y-11531700D02*
X285593922Y-11593604D01*
X285593922Y-11593604D02*
X285841541Y-11593604D01*
X285841541Y-11593604D02*
X285965350Y-11531700D01*
X285965350Y-11531700D02*
X286027255Y-11469795D01*
X286027255Y-11469795D02*
X286089160Y-11345985D01*
X286089160Y-11345985D02*
X286089160Y-11036461D01*
X286089160Y-11036461D02*
X286027255Y-10912652D01*
X286027255Y-10912652D02*
X285965350Y-10850747D01*
X285965350Y-10850747D02*
X285841541Y-10788842D01*
X285841541Y-10788842D02*
X285593922Y-10788842D01*
X285593922Y-10788842D02*
X285470112Y-10850747D01*
X285470112Y-10850747D02*
X285408207Y-10912652D01*
X285408207Y-10912652D02*
X285346303Y-11036461D01*
D10*
D11*
X60000000Y-198007200D02*
X60000000Y-200007200D01*
D10*
D11*
X110000000Y-198007200D02*
X110000000Y-200007200D01*
D10*
D11*
X160000000Y-198007200D02*
X160000000Y-200007200D01*
D10*
D11*
X210000000Y-198007200D02*
X210000000Y-200007200D01*
D10*
D11*
X260000000Y-198007200D02*
X260000000Y-200007200D01*
D10*
D11*
X36089160Y-199600804D02*
X35346303Y-199600804D01*
X35717731Y-199600804D02*
X35717731Y-198300804D01*
X35717731Y-198300804D02*
X35593922Y-198486519D01*
X35593922Y-198486519D02*
X35470112Y-198610328D01*
X35470112Y-198610328D02*
X35346303Y-198672233D01*
D10*
D11*
X85346303Y-198424614D02*
X85408207Y-198362709D01*
X85408207Y-198362709D02*
X85532017Y-198300804D01*
X85532017Y-198300804D02*
X85841541Y-198300804D01*
X85841541Y-198300804D02*
X85965350Y-198362709D01*
X85965350Y-198362709D02*
X86027255Y-198424614D01*
X86027255Y-198424614D02*
X86089160Y-198548423D01*
X86089160Y-198548423D02*
X86089160Y-198672233D01*
X86089160Y-198672233D02*
X86027255Y-198857947D01*
X86027255Y-198857947D02*
X85284398Y-199600804D01*
X85284398Y-199600804D02*
X86089160Y-199600804D01*
D10*
D11*
X135284398Y-198300804D02*
X136089160Y-198300804D01*
X136089160Y-198300804D02*
X135655826Y-198796042D01*
X135655826Y-198796042D02*
X135841541Y-198796042D01*
X135841541Y-198796042D02*
X135965350Y-198857947D01*
X135965350Y-198857947D02*
X136027255Y-198919852D01*
X136027255Y-198919852D02*
X136089160Y-199043661D01*
X136089160Y-199043661D02*
X136089160Y-199353185D01*
X136089160Y-199353185D02*
X136027255Y-199476995D01*
X136027255Y-199476995D02*
X135965350Y-199538900D01*
X135965350Y-199538900D02*
X135841541Y-199600804D01*
X135841541Y-199600804D02*
X135470112Y-199600804D01*
X135470112Y-199600804D02*
X135346303Y-199538900D01*
X135346303Y-199538900D02*
X135284398Y-199476995D01*
D10*
D11*
X185965350Y-198734138D02*
X185965350Y-199600804D01*
X185655826Y-198238900D02*
X185346303Y-199167471D01*
X185346303Y-199167471D02*
X186151064Y-199167471D01*
D10*
D11*
X236027255Y-198300804D02*
X235408207Y-198300804D01*
X235408207Y-198300804D02*
X235346303Y-198919852D01*
X235346303Y-198919852D02*
X235408207Y-198857947D01*
X235408207Y-198857947D02*
X235532017Y-198796042D01*
X235532017Y-198796042D02*
X235841541Y-198796042D01*
X235841541Y-198796042D02*
X235965350Y-198857947D01*
X235965350Y-198857947D02*
X236027255Y-198919852D01*
X236027255Y-198919852D02*
X236089160Y-199043661D01*
X236089160Y-199043661D02*
X236089160Y-199353185D01*
X236089160Y-199353185D02*
X236027255Y-199476995D01*
X236027255Y-199476995D02*
X235965350Y-199538900D01*
X235965350Y-199538900D02*
X235841541Y-199600804D01*
X235841541Y-199600804D02*
X235532017Y-199600804D01*
X235532017Y-199600804D02*
X235408207Y-199538900D01*
X235408207Y-199538900D02*
X235346303Y-199476995D01*
D10*
D11*
X285965350Y-198300804D02*
X285717731Y-198300804D01*
X285717731Y-198300804D02*
X285593922Y-198362709D01*
X285593922Y-198362709D02*
X285532017Y-198424614D01*
X285532017Y-198424614D02*
X285408207Y-198610328D01*
X285408207Y-198610328D02*
X285346303Y-198857947D01*
X285346303Y-198857947D02*
X285346303Y-199353185D01*
X285346303Y-199353185D02*
X285408207Y-199476995D01*
X285408207Y-199476995D02*
X285470112Y-199538900D01*
X285470112Y-199538900D02*
X285593922Y-199600804D01*
X285593922Y-199600804D02*
X285841541Y-199600804D01*
X285841541Y-199600804D02*
X285965350Y-199538900D01*
X285965350Y-199538900D02*
X286027255Y-199476995D01*
X286027255Y-199476995D02*
X286089160Y-199353185D01*
X286089160Y-199353185D02*
X286089160Y-199043661D01*
X286089160Y-199043661D02*
X286027255Y-198919852D01*
X286027255Y-198919852D02*
X285965350Y-198857947D01*
X285965350Y-198857947D02*
X285841541Y-198796042D01*
X285841541Y-198796042D02*
X285593922Y-198796042D01*
X285593922Y-198796042D02*
X285470112Y-198857947D01*
X285470112Y-198857947D02*
X285408207Y-198919852D01*
X285408207Y-198919852D02*
X285346303Y-199043661D01*
D10*
D11*
X10000000Y-60000000D02*
X12000000Y-60000000D01*
D10*
D11*
X10000000Y-110000000D02*
X12000000Y-110000000D01*
D10*
D11*
X10000000Y-160000000D02*
X12000000Y-160000000D01*
D10*
D11*
X10690476Y-35222176D02*
X11309523Y-35222176D01*
X10566666Y-35593604D02*
X10999999Y-34293604D01*
X10999999Y-34293604D02*
X11433333Y-35593604D01*
D10*
D11*
X11092857Y-84912652D02*
X11278571Y-84974557D01*
X11278571Y-84974557D02*
X11340476Y-85036461D01*
X11340476Y-85036461D02*
X11402380Y-85160271D01*
X11402380Y-85160271D02*
X11402380Y-85345985D01*
X11402380Y-85345985D02*
X11340476Y-85469795D01*
X11340476Y-85469795D02*
X11278571Y-85531700D01*
X11278571Y-85531700D02*
X11154761Y-85593604D01*
X11154761Y-85593604D02*
X10659523Y-85593604D01*
X10659523Y-85593604D02*
X10659523Y-84293604D01*
X10659523Y-84293604D02*
X11092857Y-84293604D01*
X11092857Y-84293604D02*
X11216666Y-84355509D01*
X11216666Y-84355509D02*
X11278571Y-84417414D01*
X11278571Y-84417414D02*
X11340476Y-84541223D01*
X11340476Y-84541223D02*
X11340476Y-84665033D01*
X11340476Y-84665033D02*
X11278571Y-84788842D01*
X11278571Y-84788842D02*
X11216666Y-84850747D01*
X11216666Y-84850747D02*
X11092857Y-84912652D01*
X11092857Y-84912652D02*
X10659523Y-84912652D01*
D10*
D11*
X11402380Y-135469795D02*
X11340476Y-135531700D01*
X11340476Y-135531700D02*
X11154761Y-135593604D01*
X11154761Y-135593604D02*
X11030952Y-135593604D01*
X11030952Y-135593604D02*
X10845238Y-135531700D01*
X10845238Y-135531700D02*
X10721428Y-135407890D01*
X10721428Y-135407890D02*
X10659523Y-135284080D01*
X10659523Y-135284080D02*
X10597619Y-135036461D01*
X10597619Y-135036461D02*
X10597619Y-134850747D01*
X10597619Y-134850747D02*
X10659523Y-134603128D01*
X10659523Y-134603128D02*
X10721428Y-134479319D01*
X10721428Y-134479319D02*
X10845238Y-134355509D01*
X10845238Y-134355509D02*
X11030952Y-134293604D01*
X11030952Y-134293604D02*
X11154761Y-134293604D01*
X11154761Y-134293604D02*
X11340476Y-134355509D01*
X11340476Y-134355509D02*
X11402380Y-134417414D01*
D10*
D11*
X10659523Y-185593604D02*
X10659523Y-184293604D01*
X10659523Y-184293604D02*
X10969047Y-184293604D01*
X10969047Y-184293604D02*
X11154761Y-184355509D01*
X11154761Y-184355509D02*
X11278571Y-184479319D01*
X11278571Y-184479319D02*
X11340476Y-184603128D01*
X11340476Y-184603128D02*
X11402380Y-184850747D01*
X11402380Y-184850747D02*
X11402380Y-185036461D01*
X11402380Y-185036461D02*
X11340476Y-185284080D01*
X11340476Y-185284080D02*
X11278571Y-185407890D01*
X11278571Y-185407890D02*
X11154761Y-185531700D01*
X11154761Y-185531700D02*
X10969047Y-185593604D01*
X10969047Y-185593604D02*
X10659523Y-185593604D01*
D10*
D11*
X287002200Y-60000000D02*
X285002200Y-60000000D01*
D10*
D11*
X287002200Y-110000000D02*
X285002200Y-110000000D01*
D10*
D11*
X287002200Y-160000000D02*
X285002200Y-160000000D01*
D10*
D11*
X285692676Y-35222176D02*
X286311723Y-35222176D01*
X285568866Y-35593604D02*
X286002199Y-34293604D01*
X286002199Y-34293604D02*
X286435533Y-35593604D01*
D10*
D11*
X286095057Y-84912652D02*
X286280771Y-84974557D01*
X286280771Y-84974557D02*
X286342676Y-85036461D01*
X286342676Y-85036461D02*
X286404580Y-85160271D01*
X286404580Y-85160271D02*
X286404580Y-85345985D01*
X286404580Y-85345985D02*
X286342676Y-85469795D01*
X286342676Y-85469795D02*
X286280771Y-85531700D01*
X286280771Y-85531700D02*
X286156961Y-85593604D01*
X286156961Y-85593604D02*
X285661723Y-85593604D01*
X285661723Y-85593604D02*
X285661723Y-84293604D01*
X285661723Y-84293604D02*
X286095057Y-84293604D01*
X286095057Y-84293604D02*
X286218866Y-84355509D01*
X286218866Y-84355509D02*
X286280771Y-84417414D01*
X286280771Y-84417414D02*
X286342676Y-84541223D01*
X286342676Y-84541223D02*
X286342676Y-84665033D01*
X286342676Y-84665033D02*
X286280771Y-84788842D01*
X286280771Y-84788842D02*
X286218866Y-84850747D01*
X286218866Y-84850747D02*
X286095057Y-84912652D01*
X286095057Y-84912652D02*
X285661723Y-84912652D01*
D10*
D11*
X286404580Y-135469795D02*
X286342676Y-135531700D01*
X286342676Y-135531700D02*
X286156961Y-135593604D01*
X286156961Y-135593604D02*
X286033152Y-135593604D01*
X286033152Y-135593604D02*
X285847438Y-135531700D01*
X285847438Y-135531700D02*
X285723628Y-135407890D01*
X285723628Y-135407890D02*
X285661723Y-135284080D01*
X285661723Y-135284080D02*
X285599819Y-135036461D01*
X285599819Y-135036461D02*
X285599819Y-134850747D01*
X285599819Y-134850747D02*
X285661723Y-134603128D01*
X285661723Y-134603128D02*
X285723628Y-134479319D01*
X285723628Y-134479319D02*
X285847438Y-134355509D01*
X285847438Y-134355509D02*
X286033152Y-134293604D01*
X286033152Y-134293604D02*
X286156961Y-134293604D01*
X286156961Y-134293604D02*
X286342676Y-134355509D01*
X286342676Y-134355509D02*
X286404580Y-134417414D01*
D10*
D11*
X285661723Y-185593604D02*
X285661723Y-184293604D01*
X285661723Y-184293604D02*
X285971247Y-184293604D01*
X285971247Y-184293604D02*
X286156961Y-184355509D01*
X286156961Y-184355509D02*
X286280771Y-184479319D01*
X286280771Y-184479319D02*
X286342676Y-184603128D01*
X286342676Y-184603128D02*
X286404580Y-184850747D01*
X286404580Y-184850747D02*
X286404580Y-185036461D01*
X286404580Y-185036461D02*
X286342676Y-185284080D01*
X286342676Y-185284080D02*
X286280771Y-185407890D01*
X286280771Y-185407890D02*
X286156961Y-185531700D01*
X286156961Y-185531700D02*
X285971247Y-185593604D01*
X285971247Y-185593604D02*
X285661723Y-185593604D01*
D10*
D11*
X200458026Y-193793328D02*
X200458026Y-192293328D01*
X200458026Y-192293328D02*
X200815169Y-192293328D01*
X200815169Y-192293328D02*
X201029455Y-192364757D01*
X201029455Y-192364757D02*
X201172312Y-192507614D01*
X201172312Y-192507614D02*
X201243741Y-192650471D01*
X201243741Y-192650471D02*
X201315169Y-192936185D01*
X201315169Y-192936185D02*
X201315169Y-193150471D01*
X201315169Y-193150471D02*
X201243741Y-193436185D01*
X201243741Y-193436185D02*
X201172312Y-193579042D01*
X201172312Y-193579042D02*
X201029455Y-193721900D01*
X201029455Y-193721900D02*
X200815169Y-193793328D01*
X200815169Y-193793328D02*
X200458026Y-193793328D01*
X202600884Y-193793328D02*
X202600884Y-193007614D01*
X202600884Y-193007614D02*
X202529455Y-192864757D01*
X202529455Y-192864757D02*
X202386598Y-192793328D01*
X202386598Y-192793328D02*
X202100884Y-192793328D01*
X202100884Y-192793328D02*
X201958026Y-192864757D01*
X202600884Y-193721900D02*
X202458026Y-193793328D01*
X202458026Y-193793328D02*
X202100884Y-193793328D01*
X202100884Y-193793328D02*
X201958026Y-193721900D01*
X201958026Y-193721900D02*
X201886598Y-193579042D01*
X201886598Y-193579042D02*
X201886598Y-193436185D01*
X201886598Y-193436185D02*
X201958026Y-193293328D01*
X201958026Y-193293328D02*
X202100884Y-193221900D01*
X202100884Y-193221900D02*
X202458026Y-193221900D01*
X202458026Y-193221900D02*
X202600884Y-193150471D01*
X203100884Y-192793328D02*
X203672312Y-192793328D01*
X203315169Y-192293328D02*
X203315169Y-193579042D01*
X203315169Y-193579042D02*
X203386598Y-193721900D01*
X203386598Y-193721900D02*
X203529455Y-193793328D01*
X203529455Y-193793328D02*
X203672312Y-193793328D01*
X204743741Y-193721900D02*
X204600884Y-193793328D01*
X204600884Y-193793328D02*
X204315170Y-193793328D01*
X204315170Y-193793328D02*
X204172312Y-193721900D01*
X204172312Y-193721900D02*
X204100884Y-193579042D01*
X204100884Y-193579042D02*
X204100884Y-193007614D01*
X204100884Y-193007614D02*
X204172312Y-192864757D01*
X204172312Y-192864757D02*
X204315170Y-192793328D01*
X204315170Y-192793328D02*
X204600884Y-192793328D01*
X204600884Y-192793328D02*
X204743741Y-192864757D01*
X204743741Y-192864757D02*
X204815170Y-193007614D01*
X204815170Y-193007614D02*
X204815170Y-193150471D01*
X204815170Y-193150471D02*
X204100884Y-193293328D01*
X205458026Y-193650471D02*
X205529455Y-193721900D01*
X205529455Y-193721900D02*
X205458026Y-193793328D01*
X205458026Y-193793328D02*
X205386598Y-193721900D01*
X205386598Y-193721900D02*
X205458026Y-193650471D01*
X205458026Y-193650471D02*
X205458026Y-193793328D01*
X205458026Y-192864757D02*
X205529455Y-192936185D01*
X205529455Y-192936185D02*
X205458026Y-193007614D01*
X205458026Y-193007614D02*
X205386598Y-192936185D01*
X205386598Y-192936185D02*
X205458026Y-192864757D01*
X205458026Y-192864757D02*
X205458026Y-193007614D01*
X207243741Y-192436185D02*
X207315169Y-192364757D01*
X207315169Y-192364757D02*
X207458027Y-192293328D01*
X207458027Y-192293328D02*
X207815169Y-192293328D01*
X207815169Y-192293328D02*
X207958027Y-192364757D01*
X207958027Y-192364757D02*
X208029455Y-192436185D01*
X208029455Y-192436185D02*
X208100884Y-192579042D01*
X208100884Y-192579042D02*
X208100884Y-192721900D01*
X208100884Y-192721900D02*
X208029455Y-192936185D01*
X208029455Y-192936185D02*
X207172312Y-193793328D01*
X207172312Y-193793328D02*
X208100884Y-193793328D01*
X209029455Y-192293328D02*
X209172312Y-192293328D01*
X209172312Y-192293328D02*
X209315169Y-192364757D01*
X209315169Y-192364757D02*
X209386598Y-192436185D01*
X209386598Y-192436185D02*
X209458026Y-192579042D01*
X209458026Y-192579042D02*
X209529455Y-192864757D01*
X209529455Y-192864757D02*
X209529455Y-193221900D01*
X209529455Y-193221900D02*
X209458026Y-193507614D01*
X209458026Y-193507614D02*
X209386598Y-193650471D01*
X209386598Y-193650471D02*
X209315169Y-193721900D01*
X209315169Y-193721900D02*
X209172312Y-193793328D01*
X209172312Y-193793328D02*
X209029455Y-193793328D01*
X209029455Y-193793328D02*
X208886598Y-193721900D01*
X208886598Y-193721900D02*
X208815169Y-193650471D01*
X208815169Y-193650471D02*
X208743740Y-193507614D01*
X208743740Y-193507614D02*
X208672312Y-193221900D01*
X208672312Y-193221900D02*
X208672312Y-192864757D01*
X208672312Y-192864757D02*
X208743740Y-192579042D01*
X208743740Y-192579042D02*
X208815169Y-192436185D01*
X208815169Y-192436185D02*
X208886598Y-192364757D01*
X208886598Y-192364757D02*
X209029455Y-192293328D01*
X210100883Y-192436185D02*
X210172311Y-192364757D01*
X210172311Y-192364757D02*
X210315169Y-192293328D01*
X210315169Y-192293328D02*
X210672311Y-192293328D01*
X210672311Y-192293328D02*
X210815169Y-192364757D01*
X210815169Y-192364757D02*
X210886597Y-192436185D01*
X210886597Y-192436185D02*
X210958026Y-192579042D01*
X210958026Y-192579042D02*
X210958026Y-192721900D01*
X210958026Y-192721900D02*
X210886597Y-192936185D01*
X210886597Y-192936185D02*
X210029454Y-193793328D01*
X210029454Y-193793328D02*
X210958026Y-193793328D01*
X211458025Y-192293328D02*
X212386597Y-192293328D01*
X212386597Y-192293328D02*
X211886597Y-192864757D01*
X211886597Y-192864757D02*
X212100882Y-192864757D01*
X212100882Y-192864757D02*
X212243740Y-192936185D01*
X212243740Y-192936185D02*
X212315168Y-193007614D01*
X212315168Y-193007614D02*
X212386597Y-193150471D01*
X212386597Y-193150471D02*
X212386597Y-193507614D01*
X212386597Y-193507614D02*
X212315168Y-193650471D01*
X212315168Y-193650471D02*
X212243740Y-193721900D01*
X212243740Y-193721900D02*
X212100882Y-193793328D01*
X212100882Y-193793328D02*
X211672311Y-193793328D01*
X211672311Y-193793328D02*
X211529454Y-193721900D01*
X211529454Y-193721900D02*
X211458025Y-193650471D01*
X213029453Y-193221900D02*
X214172311Y-193221900D01*
X215672311Y-193793328D02*
X214815168Y-193793328D01*
X215243739Y-193793328D02*
X215243739Y-192293328D01*
X215243739Y-192293328D02*
X215100882Y-192507614D01*
X215100882Y-192507614D02*
X214958025Y-192650471D01*
X214958025Y-192650471D02*
X214815168Y-192721900D01*
X216600882Y-192293328D02*
X216743739Y-192293328D01*
X216743739Y-192293328D02*
X216886596Y-192364757D01*
X216886596Y-192364757D02*
X216958025Y-192436185D01*
X216958025Y-192436185D02*
X217029453Y-192579042D01*
X217029453Y-192579042D02*
X217100882Y-192864757D01*
X217100882Y-192864757D02*
X217100882Y-193221900D01*
X217100882Y-193221900D02*
X217029453Y-193507614D01*
X217029453Y-193507614D02*
X216958025Y-193650471D01*
X216958025Y-193650471D02*
X216886596Y-193721900D01*
X216886596Y-193721900D02*
X216743739Y-193793328D01*
X216743739Y-193793328D02*
X216600882Y-193793328D01*
X216600882Y-193793328D02*
X216458025Y-193721900D01*
X216458025Y-193721900D02*
X216386596Y-193650471D01*
X216386596Y-193650471D02*
X216315167Y-193507614D01*
X216315167Y-193507614D02*
X216243739Y-193221900D01*
X216243739Y-193221900D02*
X216243739Y-192864757D01*
X216243739Y-192864757D02*
X216315167Y-192579042D01*
X216315167Y-192579042D02*
X216386596Y-192436185D01*
X216386596Y-192436185D02*
X216458025Y-192364757D01*
X216458025Y-192364757D02*
X216600882Y-192293328D01*
X217743738Y-193221900D02*
X218886596Y-193221900D01*
X219886596Y-192293328D02*
X220029453Y-192293328D01*
X220029453Y-192293328D02*
X220172310Y-192364757D01*
X220172310Y-192364757D02*
X220243739Y-192436185D01*
X220243739Y-192436185D02*
X220315167Y-192579042D01*
X220315167Y-192579042D02*
X220386596Y-192864757D01*
X220386596Y-192864757D02*
X220386596Y-193221900D01*
X220386596Y-193221900D02*
X220315167Y-193507614D01*
X220315167Y-193507614D02*
X220243739Y-193650471D01*
X220243739Y-193650471D02*
X220172310Y-193721900D01*
X220172310Y-193721900D02*
X220029453Y-193793328D01*
X220029453Y-193793328D02*
X219886596Y-193793328D01*
X219886596Y-193793328D02*
X219743739Y-193721900D01*
X219743739Y-193721900D02*
X219672310Y-193650471D01*
X219672310Y-193650471D02*
X219600881Y-193507614D01*
X219600881Y-193507614D02*
X219529453Y-193221900D01*
X219529453Y-193221900D02*
X219529453Y-192864757D01*
X219529453Y-192864757D02*
X219600881Y-192579042D01*
X219600881Y-192579042D02*
X219672310Y-192436185D01*
X219672310Y-192436185D02*
X219743739Y-192364757D01*
X219743739Y-192364757D02*
X219886596Y-192293328D01*
X221815167Y-193793328D02*
X220958024Y-193793328D01*
X221386595Y-193793328D02*
X221386595Y-192293328D01*
X221386595Y-192293328D02*
X221243738Y-192507614D01*
X221243738Y-192507614D02*
X221100881Y-192650471D01*
X221100881Y-192650471D02*
X220958024Y-192721900D01*
D10*
D11*
X177002200Y-194507200D02*
X285002200Y-194507200D01*
D10*
D11*
X178458026Y-196593328D02*
X178458026Y-195093328D01*
X179315169Y-196593328D02*
X178672312Y-195736185D01*
X179315169Y-195093328D02*
X178458026Y-195950471D01*
X179958026Y-196593328D02*
X179958026Y-195593328D01*
X179958026Y-195093328D02*
X179886598Y-195164757D01*
X179886598Y-195164757D02*
X179958026Y-195236185D01*
X179958026Y-195236185D02*
X180029455Y-195164757D01*
X180029455Y-195164757D02*
X179958026Y-195093328D01*
X179958026Y-195093328D02*
X179958026Y-195236185D01*
X181529455Y-196450471D02*
X181458027Y-196521900D01*
X181458027Y-196521900D02*
X181243741Y-196593328D01*
X181243741Y-196593328D02*
X181100884Y-196593328D01*
X181100884Y-196593328D02*
X180886598Y-196521900D01*
X180886598Y-196521900D02*
X180743741Y-196379042D01*
X180743741Y-196379042D02*
X180672312Y-196236185D01*
X180672312Y-196236185D02*
X180600884Y-195950471D01*
X180600884Y-195950471D02*
X180600884Y-195736185D01*
X180600884Y-195736185D02*
X180672312Y-195450471D01*
X180672312Y-195450471D02*
X180743741Y-195307614D01*
X180743741Y-195307614D02*
X180886598Y-195164757D01*
X180886598Y-195164757D02*
X181100884Y-195093328D01*
X181100884Y-195093328D02*
X181243741Y-195093328D01*
X181243741Y-195093328D02*
X181458027Y-195164757D01*
X181458027Y-195164757D02*
X181529455Y-195236185D01*
X182815170Y-196593328D02*
X182815170Y-195807614D01*
X182815170Y-195807614D02*
X182743741Y-195664757D01*
X182743741Y-195664757D02*
X182600884Y-195593328D01*
X182600884Y-195593328D02*
X182315170Y-195593328D01*
X182315170Y-195593328D02*
X182172312Y-195664757D01*
X182815170Y-196521900D02*
X182672312Y-196593328D01*
X182672312Y-196593328D02*
X182315170Y-196593328D01*
X182315170Y-196593328D02*
X182172312Y-196521900D01*
X182172312Y-196521900D02*
X182100884Y-196379042D01*
X182100884Y-196379042D02*
X182100884Y-196236185D01*
X182100884Y-196236185D02*
X182172312Y-196093328D01*
X182172312Y-196093328D02*
X182315170Y-196021900D01*
X182315170Y-196021900D02*
X182672312Y-196021900D01*
X182672312Y-196021900D02*
X182815170Y-195950471D01*
X184172313Y-196593328D02*
X184172313Y-195093328D01*
X184172313Y-196521900D02*
X184029455Y-196593328D01*
X184029455Y-196593328D02*
X183743741Y-196593328D01*
X183743741Y-196593328D02*
X183600884Y-196521900D01*
X183600884Y-196521900D02*
X183529455Y-196450471D01*
X183529455Y-196450471D02*
X183458027Y-196307614D01*
X183458027Y-196307614D02*
X183458027Y-195879042D01*
X183458027Y-195879042D02*
X183529455Y-195736185D01*
X183529455Y-195736185D02*
X183600884Y-195664757D01*
X183600884Y-195664757D02*
X183743741Y-195593328D01*
X183743741Y-195593328D02*
X184029455Y-195593328D01*
X184029455Y-195593328D02*
X184172313Y-195664757D01*
X186029455Y-195807614D02*
X186529455Y-195807614D01*
X186743741Y-196593328D02*
X186029455Y-196593328D01*
X186029455Y-196593328D02*
X186029455Y-195093328D01*
X186029455Y-195093328D02*
X186743741Y-195093328D01*
X187386598Y-196450471D02*
X187458027Y-196521900D01*
X187458027Y-196521900D02*
X187386598Y-196593328D01*
X187386598Y-196593328D02*
X187315170Y-196521900D01*
X187315170Y-196521900D02*
X187386598Y-196450471D01*
X187386598Y-196450471D02*
X187386598Y-196593328D01*
X188100884Y-196593328D02*
X188100884Y-195093328D01*
X188100884Y-195093328D02*
X188458027Y-195093328D01*
X188458027Y-195093328D02*
X188672313Y-195164757D01*
X188672313Y-195164757D02*
X188815170Y-195307614D01*
X188815170Y-195307614D02*
X188886599Y-195450471D01*
X188886599Y-195450471D02*
X188958027Y-195736185D01*
X188958027Y-195736185D02*
X188958027Y-195950471D01*
X188958027Y-195950471D02*
X188886599Y-196236185D01*
X188886599Y-196236185D02*
X188815170Y-196379042D01*
X188815170Y-196379042D02*
X188672313Y-196521900D01*
X188672313Y-196521900D02*
X188458027Y-196593328D01*
X188458027Y-196593328D02*
X188100884Y-196593328D01*
X189600884Y-196450471D02*
X189672313Y-196521900D01*
X189672313Y-196521900D02*
X189600884Y-196593328D01*
X189600884Y-196593328D02*
X189529456Y-196521900D01*
X189529456Y-196521900D02*
X189600884Y-196450471D01*
X189600884Y-196450471D02*
X189600884Y-196593328D01*
X190243742Y-196164757D02*
X190958028Y-196164757D01*
X190100885Y-196593328D02*
X190600885Y-195093328D01*
X190600885Y-195093328D02*
X191100885Y-196593328D01*
X191600884Y-196450471D02*
X191672313Y-196521900D01*
X191672313Y-196521900D02*
X191600884Y-196593328D01*
X191600884Y-196593328D02*
X191529456Y-196521900D01*
X191529456Y-196521900D02*
X191600884Y-196450471D01*
X191600884Y-196450471D02*
X191600884Y-196593328D01*
X194600884Y-196593328D02*
X194600884Y-195093328D01*
X194743742Y-196021900D02*
X195172313Y-196593328D01*
X195172313Y-195593328D02*
X194600884Y-196164757D01*
X195815170Y-196593328D02*
X195815170Y-195593328D01*
X195815170Y-195093328D02*
X195743742Y-195164757D01*
X195743742Y-195164757D02*
X195815170Y-195236185D01*
X195815170Y-195236185D02*
X195886599Y-195164757D01*
X195886599Y-195164757D02*
X195815170Y-195093328D01*
X195815170Y-195093328D02*
X195815170Y-195236185D01*
X197172314Y-196521900D02*
X197029456Y-196593328D01*
X197029456Y-196593328D02*
X196743742Y-196593328D01*
X196743742Y-196593328D02*
X196600885Y-196521900D01*
X196600885Y-196521900D02*
X196529456Y-196450471D01*
X196529456Y-196450471D02*
X196458028Y-196307614D01*
X196458028Y-196307614D02*
X196458028Y-195879042D01*
X196458028Y-195879042D02*
X196529456Y-195736185D01*
X196529456Y-195736185D02*
X196600885Y-195664757D01*
X196600885Y-195664757D02*
X196743742Y-195593328D01*
X196743742Y-195593328D02*
X197029456Y-195593328D01*
X197029456Y-195593328D02*
X197172314Y-195664757D01*
X198458028Y-196593328D02*
X198458028Y-195807614D01*
X198458028Y-195807614D02*
X198386599Y-195664757D01*
X198386599Y-195664757D02*
X198243742Y-195593328D01*
X198243742Y-195593328D02*
X197958028Y-195593328D01*
X197958028Y-195593328D02*
X197815170Y-195664757D01*
X198458028Y-196521900D02*
X198315170Y-196593328D01*
X198315170Y-196593328D02*
X197958028Y-196593328D01*
X197958028Y-196593328D02*
X197815170Y-196521900D01*
X197815170Y-196521900D02*
X197743742Y-196379042D01*
X197743742Y-196379042D02*
X197743742Y-196236185D01*
X197743742Y-196236185D02*
X197815170Y-196093328D01*
X197815170Y-196093328D02*
X197958028Y-196021900D01*
X197958028Y-196021900D02*
X198315170Y-196021900D01*
X198315170Y-196021900D02*
X198458028Y-195950471D01*
X199815171Y-196593328D02*
X199815171Y-195093328D01*
X199815171Y-196521900D02*
X199672313Y-196593328D01*
X199672313Y-196593328D02*
X199386599Y-196593328D01*
X199386599Y-196593328D02*
X199243742Y-196521900D01*
X199243742Y-196521900D02*
X199172313Y-196450471D01*
X199172313Y-196450471D02*
X199100885Y-196307614D01*
X199100885Y-196307614D02*
X199100885Y-195879042D01*
X199100885Y-195879042D02*
X199172313Y-195736185D01*
X199172313Y-195736185D02*
X199243742Y-195664757D01*
X199243742Y-195664757D02*
X199386599Y-195593328D01*
X199386599Y-195593328D02*
X199672313Y-195593328D01*
X199672313Y-195593328D02*
X199815171Y-195664757D01*
X201529456Y-195093328D02*
X202529456Y-195093328D01*
X202529456Y-195093328D02*
X201886599Y-196593328D01*
X203100884Y-196450471D02*
X203172313Y-196521900D01*
X203172313Y-196521900D02*
X203100884Y-196593328D01*
X203100884Y-196593328D02*
X203029456Y-196521900D01*
X203029456Y-196521900D02*
X203100884Y-196450471D01*
X203100884Y-196450471D02*
X203100884Y-196593328D01*
X204100885Y-195093328D02*
X204243742Y-195093328D01*
X204243742Y-195093328D02*
X204386599Y-195164757D01*
X204386599Y-195164757D02*
X204458028Y-195236185D01*
X204458028Y-195236185D02*
X204529456Y-195379042D01*
X204529456Y-195379042D02*
X204600885Y-195664757D01*
X204600885Y-195664757D02*
X204600885Y-196021900D01*
X204600885Y-196021900D02*
X204529456Y-196307614D01*
X204529456Y-196307614D02*
X204458028Y-196450471D01*
X204458028Y-196450471D02*
X204386599Y-196521900D01*
X204386599Y-196521900D02*
X204243742Y-196593328D01*
X204243742Y-196593328D02*
X204100885Y-196593328D01*
X204100885Y-196593328D02*
X203958028Y-196521900D01*
X203958028Y-196521900D02*
X203886599Y-196450471D01*
X203886599Y-196450471D02*
X203815170Y-196307614D01*
X203815170Y-196307614D02*
X203743742Y-196021900D01*
X203743742Y-196021900D02*
X203743742Y-195664757D01*
X203743742Y-195664757D02*
X203815170Y-195379042D01*
X203815170Y-195379042D02*
X203886599Y-195236185D01*
X203886599Y-195236185D02*
X203958028Y-195164757D01*
X203958028Y-195164757D02*
X204100885Y-195093328D01*
X205243741Y-196450471D02*
X205315170Y-196521900D01*
X205315170Y-196521900D02*
X205243741Y-196593328D01*
X205243741Y-196593328D02*
X205172313Y-196521900D01*
X205172313Y-196521900D02*
X205243741Y-196450471D01*
X205243741Y-196450471D02*
X205243741Y-196593328D01*
X206172313Y-195736185D02*
X206029456Y-195664757D01*
X206029456Y-195664757D02*
X205958027Y-195593328D01*
X205958027Y-195593328D02*
X205886599Y-195450471D01*
X205886599Y-195450471D02*
X205886599Y-195379042D01*
X205886599Y-195379042D02*
X205958027Y-195236185D01*
X205958027Y-195236185D02*
X206029456Y-195164757D01*
X206029456Y-195164757D02*
X206172313Y-195093328D01*
X206172313Y-195093328D02*
X206458027Y-195093328D01*
X206458027Y-195093328D02*
X206600885Y-195164757D01*
X206600885Y-195164757D02*
X206672313Y-195236185D01*
X206672313Y-195236185D02*
X206743742Y-195379042D01*
X206743742Y-195379042D02*
X206743742Y-195450471D01*
X206743742Y-195450471D02*
X206672313Y-195593328D01*
X206672313Y-195593328D02*
X206600885Y-195664757D01*
X206600885Y-195664757D02*
X206458027Y-195736185D01*
X206458027Y-195736185D02*
X206172313Y-195736185D01*
X206172313Y-195736185D02*
X206029456Y-195807614D01*
X206029456Y-195807614D02*
X205958027Y-195879042D01*
X205958027Y-195879042D02*
X205886599Y-196021900D01*
X205886599Y-196021900D02*
X205886599Y-196307614D01*
X205886599Y-196307614D02*
X205958027Y-196450471D01*
X205958027Y-196450471D02*
X206029456Y-196521900D01*
X206029456Y-196521900D02*
X206172313Y-196593328D01*
X206172313Y-196593328D02*
X206458027Y-196593328D01*
X206458027Y-196593328D02*
X206600885Y-196521900D01*
X206600885Y-196521900D02*
X206672313Y-196450471D01*
X206672313Y-196450471D02*
X206743742Y-196307614D01*
X206743742Y-196307614D02*
X206743742Y-196021900D01*
X206743742Y-196021900D02*
X206672313Y-195879042D01*
X206672313Y-195879042D02*
X206600885Y-195807614D01*
X206600885Y-195807614D02*
X206458027Y-195736185D01*
D10*
D11*
X177002200Y-191507200D02*
X285002200Y-191507200D01*
D10*
D12*
X264413853Y-193785528D02*
X263913853Y-193071242D01*
X263556710Y-193785528D02*
X263556710Y-192285528D01*
X263556710Y-192285528D02*
X264128139Y-192285528D01*
X264128139Y-192285528D02*
X264270996Y-192356957D01*
X264270996Y-192356957D02*
X264342425Y-192428385D01*
X264342425Y-192428385D02*
X264413853Y-192571242D01*
X264413853Y-192571242D02*
X264413853Y-192785528D01*
X264413853Y-192785528D02*
X264342425Y-192928385D01*
X264342425Y-192928385D02*
X264270996Y-192999814D01*
X264270996Y-192999814D02*
X264128139Y-193071242D01*
X264128139Y-193071242D02*
X263556710Y-193071242D01*
X265628139Y-193714100D02*
X265485282Y-193785528D01*
X265485282Y-193785528D02*
X265199568Y-193785528D01*
X265199568Y-193785528D02*
X265056710Y-193714100D01*
X265056710Y-193714100D02*
X264985282Y-193571242D01*
X264985282Y-193571242D02*
X264985282Y-192999814D01*
X264985282Y-192999814D02*
X265056710Y-192856957D01*
X265056710Y-192856957D02*
X265199568Y-192785528D01*
X265199568Y-192785528D02*
X265485282Y-192785528D01*
X265485282Y-192785528D02*
X265628139Y-192856957D01*
X265628139Y-192856957D02*
X265699568Y-192999814D01*
X265699568Y-192999814D02*
X265699568Y-193142671D01*
X265699568Y-193142671D02*
X264985282Y-193285528D01*
X266199567Y-192785528D02*
X266556710Y-193785528D01*
X266556710Y-193785528D02*
X266913853Y-192785528D01*
X267485281Y-193642671D02*
X267556710Y-193714100D01*
X267556710Y-193714100D02*
X267485281Y-193785528D01*
X267485281Y-193785528D02*
X267413853Y-193714100D01*
X267413853Y-193714100D02*
X267485281Y-193642671D01*
X267485281Y-193642671D02*
X267485281Y-193785528D01*
X267485281Y-192856957D02*
X267556710Y-192928385D01*
X267556710Y-192928385D02*
X267485281Y-192999814D01*
X267485281Y-192999814D02*
X267413853Y-192928385D01*
X267413853Y-192928385D02*
X267485281Y-192856957D01*
X267485281Y-192856957D02*
X267485281Y-192999814D01*
X270128139Y-193785528D02*
X269270996Y-193785528D01*
X269699567Y-193785528D02*
X269699567Y-192285528D01*
X269699567Y-192285528D02*
X269556710Y-192499814D01*
X269556710Y-192499814D02*
X269413853Y-192642671D01*
X269413853Y-192642671D02*
X269270996Y-192714100D01*
D10*
D11*
X178386598Y-193721900D02*
X178600884Y-193793328D01*
X178600884Y-193793328D02*
X178958026Y-193793328D01*
X178958026Y-193793328D02*
X179100884Y-193721900D01*
X179100884Y-193721900D02*
X179172312Y-193650471D01*
X179172312Y-193650471D02*
X179243741Y-193507614D01*
X179243741Y-193507614D02*
X179243741Y-193364757D01*
X179243741Y-193364757D02*
X179172312Y-193221900D01*
X179172312Y-193221900D02*
X179100884Y-193150471D01*
X179100884Y-193150471D02*
X178958026Y-193079042D01*
X178958026Y-193079042D02*
X178672312Y-193007614D01*
X178672312Y-193007614D02*
X178529455Y-192936185D01*
X178529455Y-192936185D02*
X178458026Y-192864757D01*
X178458026Y-192864757D02*
X178386598Y-192721900D01*
X178386598Y-192721900D02*
X178386598Y-192579042D01*
X178386598Y-192579042D02*
X178458026Y-192436185D01*
X178458026Y-192436185D02*
X178529455Y-192364757D01*
X178529455Y-192364757D02*
X178672312Y-192293328D01*
X178672312Y-192293328D02*
X179029455Y-192293328D01*
X179029455Y-192293328D02*
X179243741Y-192364757D01*
X179886597Y-193793328D02*
X179886597Y-192793328D01*
X179886597Y-192293328D02*
X179815169Y-192364757D01*
X179815169Y-192364757D02*
X179886597Y-192436185D01*
X179886597Y-192436185D02*
X179958026Y-192364757D01*
X179958026Y-192364757D02*
X179886597Y-192293328D01*
X179886597Y-192293328D02*
X179886597Y-192436185D01*
X180458026Y-192793328D02*
X181243741Y-192793328D01*
X181243741Y-192793328D02*
X180458026Y-193793328D01*
X180458026Y-193793328D02*
X181243741Y-193793328D01*
X182386598Y-193721900D02*
X182243741Y-193793328D01*
X182243741Y-193793328D02*
X181958027Y-193793328D01*
X181958027Y-193793328D02*
X181815169Y-193721900D01*
X181815169Y-193721900D02*
X181743741Y-193579042D01*
X181743741Y-193579042D02*
X181743741Y-193007614D01*
X181743741Y-193007614D02*
X181815169Y-192864757D01*
X181815169Y-192864757D02*
X181958027Y-192793328D01*
X181958027Y-192793328D02*
X182243741Y-192793328D01*
X182243741Y-192793328D02*
X182386598Y-192864757D01*
X182386598Y-192864757D02*
X182458027Y-193007614D01*
X182458027Y-193007614D02*
X182458027Y-193150471D01*
X182458027Y-193150471D02*
X181743741Y-193293328D01*
X183100883Y-193650471D02*
X183172312Y-193721900D01*
X183172312Y-193721900D02*
X183100883Y-193793328D01*
X183100883Y-193793328D02*
X183029455Y-193721900D01*
X183029455Y-193721900D02*
X183100883Y-193650471D01*
X183100883Y-193650471D02*
X183100883Y-193793328D01*
X183100883Y-192864757D02*
X183172312Y-192936185D01*
X183172312Y-192936185D02*
X183100883Y-193007614D01*
X183100883Y-193007614D02*
X183029455Y-192936185D01*
X183029455Y-192936185D02*
X183100883Y-192864757D01*
X183100883Y-192864757D02*
X183100883Y-193007614D01*
X184886598Y-193364757D02*
X185600884Y-193364757D01*
X184743741Y-193793328D02*
X185243741Y-192293328D01*
X185243741Y-192293328D02*
X185743741Y-193793328D01*
X186886598Y-192793328D02*
X186886598Y-193793328D01*
X186529455Y-192221900D02*
X186172312Y-193293328D01*
X186172312Y-193293328D02*
X187100883Y-193293328D01*
D10*
D11*
X263458026Y-196593328D02*
X263458026Y-195093328D01*
X264815170Y-196593328D02*
X264815170Y-195093328D01*
X264815170Y-196521900D02*
X264672312Y-196593328D01*
X264672312Y-196593328D02*
X264386598Y-196593328D01*
X264386598Y-196593328D02*
X264243741Y-196521900D01*
X264243741Y-196521900D02*
X264172312Y-196450471D01*
X264172312Y-196450471D02*
X264100884Y-196307614D01*
X264100884Y-196307614D02*
X264100884Y-195879042D01*
X264100884Y-195879042D02*
X264172312Y-195736185D01*
X264172312Y-195736185D02*
X264243741Y-195664757D01*
X264243741Y-195664757D02*
X264386598Y-195593328D01*
X264386598Y-195593328D02*
X264672312Y-195593328D01*
X264672312Y-195593328D02*
X264815170Y-195664757D01*
X265529455Y-196450471D02*
X265600884Y-196521900D01*
X265600884Y-196521900D02*
X265529455Y-196593328D01*
X265529455Y-196593328D02*
X265458027Y-196521900D01*
X265458027Y-196521900D02*
X265529455Y-196450471D01*
X265529455Y-196450471D02*
X265529455Y-196593328D01*
X265529455Y-195664757D02*
X265600884Y-195736185D01*
X265600884Y-195736185D02*
X265529455Y-195807614D01*
X265529455Y-195807614D02*
X265458027Y-195736185D01*
X265458027Y-195736185D02*
X265529455Y-195664757D01*
X265529455Y-195664757D02*
X265529455Y-195807614D01*
X268172313Y-196593328D02*
X267315170Y-196593328D01*
X267743741Y-196593328D02*
X267743741Y-195093328D01*
X267743741Y-195093328D02*
X267600884Y-195307614D01*
X267600884Y-195307614D02*
X267458027Y-195450471D01*
X267458027Y-195450471D02*
X267315170Y-195521900D01*
X269886598Y-195021900D02*
X268600884Y-196950471D01*
X271172313Y-196593328D02*
X270315170Y-196593328D01*
X270743741Y-196593328D02*
X270743741Y-195093328D01*
X270743741Y-195093328D02*
X270600884Y-195307614D01*
X270600884Y-195307614D02*
X270458027Y-195450471D01*
X270458027Y-195450471D02*
X270315170Y-195521900D01*
D10*
D11*
X177002200Y-187507200D02*
X285002200Y-187507200D01*
D10*
D13*
X178693928Y-188211638D02*
X179836785Y-188211638D01*
X179015357Y-190211638D02*
X179265357Y-188211638D01*
X180253452Y-190211638D02*
X180420119Y-188878304D01*
X180503452Y-188211638D02*
X180396309Y-188306876D01*
X180396309Y-188306876D02*
X180479643Y-188402114D01*
X180479643Y-188402114D02*
X180586786Y-188306876D01*
X180586786Y-188306876D02*
X180503452Y-188211638D01*
X180503452Y-188211638D02*
X180479643Y-188402114D01*
X181086786Y-188878304D02*
X181848690Y-188878304D01*
X181455833Y-188211638D02*
X181241548Y-189925923D01*
X181241548Y-189925923D02*
X181312976Y-190116400D01*
X181312976Y-190116400D02*
X181491548Y-190211638D01*
X181491548Y-190211638D02*
X181682024Y-190211638D01*
X182634405Y-190211638D02*
X182455833Y-190116400D01*
X182455833Y-190116400D02*
X182384405Y-189925923D01*
X182384405Y-189925923D02*
X182598690Y-188211638D01*
X184170119Y-190116400D02*
X183967738Y-190211638D01*
X183967738Y-190211638D02*
X183586785Y-190211638D01*
X183586785Y-190211638D02*
X183408214Y-190116400D01*
X183408214Y-190116400D02*
X183336785Y-189925923D01*
X183336785Y-189925923D02*
X183432024Y-189164019D01*
X183432024Y-189164019D02*
X183551071Y-188973542D01*
X183551071Y-188973542D02*
X183753452Y-188878304D01*
X183753452Y-188878304D02*
X184134404Y-188878304D01*
X184134404Y-188878304D02*
X184312976Y-188973542D01*
X184312976Y-188973542D02*
X184384404Y-189164019D01*
X184384404Y-189164019D02*
X184360595Y-189354495D01*
X184360595Y-189354495D02*
X183384404Y-189544971D01*
X185134405Y-190021161D02*
X185217738Y-190116400D01*
X185217738Y-190116400D02*
X185110595Y-190211638D01*
X185110595Y-190211638D02*
X185027262Y-190116400D01*
X185027262Y-190116400D02*
X185134405Y-190021161D01*
X185134405Y-190021161D02*
X185110595Y-190211638D01*
X185265357Y-188973542D02*
X185348690Y-189068780D01*
X185348690Y-189068780D02*
X185241548Y-189164019D01*
X185241548Y-189164019D02*
X185158214Y-189068780D01*
X185158214Y-189068780D02*
X185265357Y-188973542D01*
X185265357Y-188973542D02*
X185241548Y-189164019D01*
X188539167Y-190211638D02*
X187586786Y-190211638D01*
X187586786Y-190211638D02*
X187836786Y-188211638D01*
X189336787Y-189164019D02*
X190003453Y-189164019D01*
X190158215Y-190211638D02*
X189205834Y-190211638D01*
X189205834Y-190211638D02*
X189455834Y-188211638D01*
X189455834Y-188211638D02*
X190408215Y-188211638D01*
X191015358Y-190211638D02*
X191265358Y-188211638D01*
X191265358Y-188211638D02*
X191741549Y-188211638D01*
X191741549Y-188211638D02*
X192015358Y-188306876D01*
X192015358Y-188306876D02*
X192182025Y-188497352D01*
X192182025Y-188497352D02*
X192253453Y-188687828D01*
X192253453Y-188687828D02*
X192301073Y-189068780D01*
X192301073Y-189068780D02*
X192265358Y-189354495D01*
X192265358Y-189354495D02*
X192122501Y-189735447D01*
X192122501Y-189735447D02*
X192003453Y-189925923D01*
X192003453Y-189925923D02*
X191789168Y-190116400D01*
X191789168Y-190116400D02*
X191491549Y-190211638D01*
X191491549Y-190211638D02*
X191015358Y-190211638D01*
X194539168Y-190211638D02*
X194789168Y-188211638D01*
X194670121Y-189164019D02*
X195812978Y-189164019D01*
X195682025Y-190211638D02*
X195932025Y-188211638D01*
X197408216Y-190116400D02*
X197205835Y-190211638D01*
X197205835Y-190211638D02*
X196824882Y-190211638D01*
X196824882Y-190211638D02*
X196646311Y-190116400D01*
X196646311Y-190116400D02*
X196574882Y-189925923D01*
X196574882Y-189925923D02*
X196670121Y-189164019D01*
X196670121Y-189164019D02*
X196789168Y-188973542D01*
X196789168Y-188973542D02*
X196991549Y-188878304D01*
X196991549Y-188878304D02*
X197372501Y-188878304D01*
X197372501Y-188878304D02*
X197551073Y-188973542D01*
X197551073Y-188973542D02*
X197622501Y-189164019D01*
X197622501Y-189164019D02*
X197598692Y-189354495D01*
X197598692Y-189354495D02*
X196622501Y-189544971D01*
X199205835Y-190211638D02*
X199336787Y-189164019D01*
X199336787Y-189164019D02*
X199265359Y-188973542D01*
X199265359Y-188973542D02*
X199086787Y-188878304D01*
X199086787Y-188878304D02*
X198705835Y-188878304D01*
X198705835Y-188878304D02*
X198503454Y-188973542D01*
X199217740Y-190116400D02*
X199015359Y-190211638D01*
X199015359Y-190211638D02*
X198539168Y-190211638D01*
X198539168Y-190211638D02*
X198360597Y-190116400D01*
X198360597Y-190116400D02*
X198289168Y-189925923D01*
X198289168Y-189925923D02*
X198312978Y-189735447D01*
X198312978Y-189735447D02*
X198432026Y-189544971D01*
X198432026Y-189544971D02*
X198634407Y-189449733D01*
X198634407Y-189449733D02*
X199110597Y-189449733D01*
X199110597Y-189449733D02*
X199312978Y-189354495D01*
X201015359Y-190211638D02*
X201265359Y-188211638D01*
X201027264Y-190116400D02*
X200824883Y-190211638D01*
X200824883Y-190211638D02*
X200443931Y-190211638D01*
X200443931Y-190211638D02*
X200265359Y-190116400D01*
X200265359Y-190116400D02*
X200182026Y-190021161D01*
X200182026Y-190021161D02*
X200110597Y-189830685D01*
X200110597Y-189830685D02*
X200182026Y-189259257D01*
X200182026Y-189259257D02*
X200301073Y-189068780D01*
X200301073Y-189068780D02*
X200408216Y-188973542D01*
X200408216Y-188973542D02*
X200610597Y-188878304D01*
X200610597Y-188878304D02*
X200991550Y-188878304D01*
X200991550Y-188878304D02*
X201170121Y-188973542D01*
X203372503Y-188878304D02*
X204134407Y-188878304D01*
X203491550Y-190211638D02*
X203705836Y-188497352D01*
X203705836Y-188497352D02*
X203824884Y-188306876D01*
X203824884Y-188306876D02*
X204027265Y-188211638D01*
X204027265Y-188211638D02*
X204217741Y-188211638D01*
X204920122Y-190211638D02*
X204741550Y-190116400D01*
X204741550Y-190116400D02*
X204658217Y-190021161D01*
X204658217Y-190021161D02*
X204586788Y-189830685D01*
X204586788Y-189830685D02*
X204658217Y-189259257D01*
X204658217Y-189259257D02*
X204777264Y-189068780D01*
X204777264Y-189068780D02*
X204884407Y-188973542D01*
X204884407Y-188973542D02*
X205086788Y-188878304D01*
X205086788Y-188878304D02*
X205372502Y-188878304D01*
X205372502Y-188878304D02*
X205551074Y-188973542D01*
X205551074Y-188973542D02*
X205634407Y-189068780D01*
X205634407Y-189068780D02*
X205705836Y-189259257D01*
X205705836Y-189259257D02*
X205634407Y-189830685D01*
X205634407Y-189830685D02*
X205515360Y-190021161D01*
X205515360Y-190021161D02*
X205408217Y-190116400D01*
X205408217Y-190116400D02*
X205205836Y-190211638D01*
X205205836Y-190211638D02*
X204920122Y-190211638D01*
X206443931Y-190211638D02*
X206610598Y-188878304D01*
X206562979Y-189259257D02*
X206682026Y-189068780D01*
X206682026Y-189068780D02*
X206789169Y-188973542D01*
X206789169Y-188973542D02*
X206991550Y-188878304D01*
X206991550Y-188878304D02*
X207182026Y-188878304D01*
X209205836Y-190211638D02*
X209455836Y-188211638D01*
X209455836Y-188211638D02*
X209932027Y-188211638D01*
X209932027Y-188211638D02*
X210205836Y-188306876D01*
X210205836Y-188306876D02*
X210372503Y-188497352D01*
X210372503Y-188497352D02*
X210443931Y-188687828D01*
X210443931Y-188687828D02*
X210491551Y-189068780D01*
X210491551Y-189068780D02*
X210455836Y-189354495D01*
X210455836Y-189354495D02*
X210312979Y-189735447D01*
X210312979Y-189735447D02*
X210193931Y-189925923D01*
X210193931Y-189925923D02*
X209979646Y-190116400D01*
X209979646Y-190116400D02*
X209682027Y-190211638D01*
X209682027Y-190211638D02*
X209205836Y-190211638D01*
X211205836Y-190211638D02*
X211372503Y-188878304D01*
X211455836Y-188211638D02*
X211348693Y-188306876D01*
X211348693Y-188306876D02*
X211432027Y-188402114D01*
X211432027Y-188402114D02*
X211539170Y-188306876D01*
X211539170Y-188306876D02*
X211455836Y-188211638D01*
X211455836Y-188211638D02*
X211432027Y-188402114D01*
X212074884Y-190116400D02*
X212253455Y-190211638D01*
X212253455Y-190211638D02*
X212634408Y-190211638D01*
X212634408Y-190211638D02*
X212836789Y-190116400D01*
X212836789Y-190116400D02*
X212955836Y-189925923D01*
X212955836Y-189925923D02*
X212967741Y-189830685D01*
X212967741Y-189830685D02*
X212896312Y-189640209D01*
X212896312Y-189640209D02*
X212717741Y-189544971D01*
X212717741Y-189544971D02*
X212432027Y-189544971D01*
X212432027Y-189544971D02*
X212253455Y-189449733D01*
X212253455Y-189449733D02*
X212182027Y-189259257D01*
X212182027Y-189259257D02*
X212193932Y-189164019D01*
X212193932Y-189164019D02*
X212312979Y-188973542D01*
X212312979Y-188973542D02*
X212515360Y-188878304D01*
X212515360Y-188878304D02*
X212801074Y-188878304D01*
X212801074Y-188878304D02*
X212979646Y-188973542D01*
X214646313Y-190116400D02*
X214443932Y-190211638D01*
X214443932Y-190211638D02*
X214062980Y-190211638D01*
X214062980Y-190211638D02*
X213884408Y-190116400D01*
X213884408Y-190116400D02*
X213801075Y-190021161D01*
X213801075Y-190021161D02*
X213729646Y-189830685D01*
X213729646Y-189830685D02*
X213801075Y-189259257D01*
X213801075Y-189259257D02*
X213920122Y-189068780D01*
X213920122Y-189068780D02*
X214027265Y-188973542D01*
X214027265Y-188973542D02*
X214229646Y-188878304D01*
X214229646Y-188878304D02*
X214610599Y-188878304D01*
X214610599Y-188878304D02*
X214789170Y-188973542D01*
X215777266Y-190211638D02*
X215598694Y-190116400D01*
X215598694Y-190116400D02*
X215515361Y-190021161D01*
X215515361Y-190021161D02*
X215443932Y-189830685D01*
X215443932Y-189830685D02*
X215515361Y-189259257D01*
X215515361Y-189259257D02*
X215634408Y-189068780D01*
X215634408Y-189068780D02*
X215741551Y-188973542D01*
X215741551Y-188973542D02*
X215943932Y-188878304D01*
X215943932Y-188878304D02*
X216229646Y-188878304D01*
X216229646Y-188878304D02*
X216408218Y-188973542D01*
X216408218Y-188973542D02*
X216491551Y-189068780D01*
X216491551Y-189068780D02*
X216562980Y-189259257D01*
X216562980Y-189259257D02*
X216491551Y-189830685D01*
X216491551Y-189830685D02*
X216372504Y-190021161D01*
X216372504Y-190021161D02*
X216265361Y-190116400D01*
X216265361Y-190116400D02*
X216062980Y-190211638D01*
X216062980Y-190211638D02*
X215777266Y-190211638D01*
X218741552Y-190116400D02*
X219015361Y-190211638D01*
X219015361Y-190211638D02*
X219491552Y-190211638D01*
X219491552Y-190211638D02*
X219693933Y-190116400D01*
X219693933Y-190116400D02*
X219801076Y-190021161D01*
X219801076Y-190021161D02*
X219920123Y-189830685D01*
X219920123Y-189830685D02*
X219943933Y-189640209D01*
X219943933Y-189640209D02*
X219872504Y-189449733D01*
X219872504Y-189449733D02*
X219789171Y-189354495D01*
X219789171Y-189354495D02*
X219610600Y-189259257D01*
X219610600Y-189259257D02*
X219241552Y-189164019D01*
X219241552Y-189164019D02*
X219062980Y-189068780D01*
X219062980Y-189068780D02*
X218979647Y-188973542D01*
X218979647Y-188973542D02*
X218908219Y-188783066D01*
X218908219Y-188783066D02*
X218932028Y-188592590D01*
X218932028Y-188592590D02*
X219051076Y-188402114D01*
X219051076Y-188402114D02*
X219158219Y-188306876D01*
X219158219Y-188306876D02*
X219360600Y-188211638D01*
X219360600Y-188211638D02*
X219836790Y-188211638D01*
X219836790Y-188211638D02*
X220110600Y-188306876D01*
X220610600Y-188878304D02*
X221372504Y-188878304D01*
X220979647Y-188211638D02*
X220765362Y-189925923D01*
X220765362Y-189925923D02*
X220836790Y-190116400D01*
X220836790Y-190116400D02*
X221015362Y-190211638D01*
X221015362Y-190211638D02*
X221205838Y-190211638D01*
X221872504Y-190211638D02*
X222039171Y-188878304D01*
X222122504Y-188211638D02*
X222015361Y-188306876D01*
X222015361Y-188306876D02*
X222098695Y-188402114D01*
X222098695Y-188402114D02*
X222205838Y-188306876D01*
X222205838Y-188306876D02*
X222122504Y-188211638D01*
X222122504Y-188211638D02*
X222098695Y-188402114D01*
X223693933Y-190116400D02*
X223491552Y-190211638D01*
X223491552Y-190211638D02*
X223110600Y-190211638D01*
X223110600Y-190211638D02*
X222932028Y-190116400D01*
X222932028Y-190116400D02*
X222848695Y-190021161D01*
X222848695Y-190021161D02*
X222777266Y-189830685D01*
X222777266Y-189830685D02*
X222848695Y-189259257D01*
X222848695Y-189259257D02*
X222967742Y-189068780D01*
X222967742Y-189068780D02*
X223074885Y-188973542D01*
X223074885Y-188973542D02*
X223277266Y-188878304D01*
X223277266Y-188878304D02*
X223658219Y-188878304D01*
X223658219Y-188878304D02*
X223836790Y-188973542D01*
X224539171Y-190211638D02*
X224789171Y-188211638D01*
X224824886Y-189449733D02*
X225301076Y-190211638D01*
X225467743Y-188878304D02*
X224610600Y-189640209D01*
D10*
D11*
X178958026Y-185607614D02*
X178458026Y-185607614D01*
X178458026Y-186393328D02*
X178458026Y-184893328D01*
X178458026Y-184893328D02*
X179172312Y-184893328D01*
X179743740Y-186393328D02*
X179743740Y-185393328D01*
X179743740Y-184893328D02*
X179672312Y-184964757D01*
X179672312Y-184964757D02*
X179743740Y-185036185D01*
X179743740Y-185036185D02*
X179815169Y-184964757D01*
X179815169Y-184964757D02*
X179743740Y-184893328D01*
X179743740Y-184893328D02*
X179743740Y-185036185D01*
X180672312Y-186393328D02*
X180529455Y-186321900D01*
X180529455Y-186321900D02*
X180458026Y-186179042D01*
X180458026Y-186179042D02*
X180458026Y-184893328D01*
X181815169Y-186321900D02*
X181672312Y-186393328D01*
X181672312Y-186393328D02*
X181386598Y-186393328D01*
X181386598Y-186393328D02*
X181243740Y-186321900D01*
X181243740Y-186321900D02*
X181172312Y-186179042D01*
X181172312Y-186179042D02*
X181172312Y-185607614D01*
X181172312Y-185607614D02*
X181243740Y-185464757D01*
X181243740Y-185464757D02*
X181386598Y-185393328D01*
X181386598Y-185393328D02*
X181672312Y-185393328D01*
X181672312Y-185393328D02*
X181815169Y-185464757D01*
X181815169Y-185464757D02*
X181886598Y-185607614D01*
X181886598Y-185607614D02*
X181886598Y-185750471D01*
X181886598Y-185750471D02*
X181172312Y-185893328D01*
X182529454Y-186250471D02*
X182600883Y-186321900D01*
X182600883Y-186321900D02*
X182529454Y-186393328D01*
X182529454Y-186393328D02*
X182458026Y-186321900D01*
X182458026Y-186321900D02*
X182529454Y-186250471D01*
X182529454Y-186250471D02*
X182529454Y-186393328D01*
X182529454Y-185464757D02*
X182600883Y-185536185D01*
X182600883Y-185536185D02*
X182529454Y-185607614D01*
X182529454Y-185607614D02*
X182458026Y-185536185D01*
X182458026Y-185536185D02*
X182529454Y-185464757D01*
X182529454Y-185464757D02*
X182529454Y-185607614D01*
X185029455Y-186393328D02*
X185029455Y-184893328D01*
X185029455Y-186321900D02*
X184886597Y-186393328D01*
X184886597Y-186393328D02*
X184600883Y-186393328D01*
X184600883Y-186393328D02*
X184458026Y-186321900D01*
X184458026Y-186321900D02*
X184386597Y-186250471D01*
X184386597Y-186250471D02*
X184315169Y-186107614D01*
X184315169Y-186107614D02*
X184315169Y-185679042D01*
X184315169Y-185679042D02*
X184386597Y-185536185D01*
X184386597Y-185536185D02*
X184458026Y-185464757D01*
X184458026Y-185464757D02*
X184600883Y-185393328D01*
X184600883Y-185393328D02*
X184886597Y-185393328D01*
X184886597Y-185393328D02*
X185029455Y-185464757D01*
X185743740Y-186393328D02*
X185743740Y-185393328D01*
X185743740Y-184893328D02*
X185672312Y-184964757D01*
X185672312Y-184964757D02*
X185743740Y-185036185D01*
X185743740Y-185036185D02*
X185815169Y-184964757D01*
X185815169Y-184964757D02*
X185743740Y-184893328D01*
X185743740Y-184893328D02*
X185743740Y-185036185D01*
X186386598Y-186321900D02*
X186529455Y-186393328D01*
X186529455Y-186393328D02*
X186815169Y-186393328D01*
X186815169Y-186393328D02*
X186958026Y-186321900D01*
X186958026Y-186321900D02*
X187029455Y-186179042D01*
X187029455Y-186179042D02*
X187029455Y-186107614D01*
X187029455Y-186107614D02*
X186958026Y-185964757D01*
X186958026Y-185964757D02*
X186815169Y-185893328D01*
X186815169Y-185893328D02*
X186600884Y-185893328D01*
X186600884Y-185893328D02*
X186458026Y-185821900D01*
X186458026Y-185821900D02*
X186386598Y-185679042D01*
X186386598Y-185679042D02*
X186386598Y-185607614D01*
X186386598Y-185607614D02*
X186458026Y-185464757D01*
X186458026Y-185464757D02*
X186600884Y-185393328D01*
X186600884Y-185393328D02*
X186815169Y-185393328D01*
X186815169Y-185393328D02*
X186958026Y-185464757D01*
X188315170Y-186321900D02*
X188172312Y-186393328D01*
X188172312Y-186393328D02*
X187886598Y-186393328D01*
X187886598Y-186393328D02*
X187743741Y-186321900D01*
X187743741Y-186321900D02*
X187672312Y-186250471D01*
X187672312Y-186250471D02*
X187600884Y-186107614D01*
X187600884Y-186107614D02*
X187600884Y-185679042D01*
X187600884Y-185679042D02*
X187672312Y-185536185D01*
X187672312Y-185536185D02*
X187743741Y-185464757D01*
X187743741Y-185464757D02*
X187886598Y-185393328D01*
X187886598Y-185393328D02*
X188172312Y-185393328D01*
X188172312Y-185393328D02*
X188315170Y-185464757D01*
X189172312Y-186393328D02*
X189029455Y-186321900D01*
X189029455Y-186321900D02*
X188958026Y-186250471D01*
X188958026Y-186250471D02*
X188886598Y-186107614D01*
X188886598Y-186107614D02*
X188886598Y-185679042D01*
X188886598Y-185679042D02*
X188958026Y-185536185D01*
X188958026Y-185536185D02*
X189029455Y-185464757D01*
X189029455Y-185464757D02*
X189172312Y-185393328D01*
X189172312Y-185393328D02*
X189386598Y-185393328D01*
X189386598Y-185393328D02*
X189529455Y-185464757D01*
X189529455Y-185464757D02*
X189600884Y-185536185D01*
X189600884Y-185536185D02*
X189672312Y-185679042D01*
X189672312Y-185679042D02*
X189672312Y-186107614D01*
X189672312Y-186107614D02*
X189600884Y-186250471D01*
X189600884Y-186250471D02*
X189529455Y-186321900D01*
X189529455Y-186321900D02*
X189386598Y-186393328D01*
X189386598Y-186393328D02*
X189172312Y-186393328D01*
X189958027Y-186536185D02*
X191100884Y-186536185D01*
X191672312Y-186393328D02*
X191529455Y-186321900D01*
X191529455Y-186321900D02*
X191458026Y-186179042D01*
X191458026Y-186179042D02*
X191458026Y-184893328D01*
X192815169Y-186321900D02*
X192672312Y-186393328D01*
X192672312Y-186393328D02*
X192386598Y-186393328D01*
X192386598Y-186393328D02*
X192243740Y-186321900D01*
X192243740Y-186321900D02*
X192172312Y-186179042D01*
X192172312Y-186179042D02*
X192172312Y-185607614D01*
X192172312Y-185607614D02*
X192243740Y-185464757D01*
X192243740Y-185464757D02*
X192386598Y-185393328D01*
X192386598Y-185393328D02*
X192672312Y-185393328D01*
X192672312Y-185393328D02*
X192815169Y-185464757D01*
X192815169Y-185464757D02*
X192886598Y-185607614D01*
X192886598Y-185607614D02*
X192886598Y-185750471D01*
X192886598Y-185750471D02*
X192172312Y-185893328D01*
X194172312Y-186393328D02*
X194172312Y-184893328D01*
X194172312Y-186321900D02*
X194029454Y-186393328D01*
X194029454Y-186393328D02*
X193743740Y-186393328D01*
X193743740Y-186393328D02*
X193600883Y-186321900D01*
X193600883Y-186321900D02*
X193529454Y-186250471D01*
X193529454Y-186250471D02*
X193458026Y-186107614D01*
X193458026Y-186107614D02*
X193458026Y-185679042D01*
X193458026Y-185679042D02*
X193529454Y-185536185D01*
X193529454Y-185536185D02*
X193600883Y-185464757D01*
X193600883Y-185464757D02*
X193743740Y-185393328D01*
X193743740Y-185393328D02*
X194029454Y-185393328D01*
X194029454Y-185393328D02*
X194172312Y-185464757D01*
X194529455Y-186536185D02*
X195672312Y-186536185D01*
X196029454Y-186393328D02*
X196029454Y-184893328D01*
X196672312Y-186393328D02*
X196672312Y-185607614D01*
X196672312Y-185607614D02*
X196600883Y-185464757D01*
X196600883Y-185464757D02*
X196458026Y-185393328D01*
X196458026Y-185393328D02*
X196243740Y-185393328D01*
X196243740Y-185393328D02*
X196100883Y-185464757D01*
X196100883Y-185464757D02*
X196029454Y-185536185D01*
X197958026Y-186321900D02*
X197815169Y-186393328D01*
X197815169Y-186393328D02*
X197529455Y-186393328D01*
X197529455Y-186393328D02*
X197386597Y-186321900D01*
X197386597Y-186321900D02*
X197315169Y-186179042D01*
X197315169Y-186179042D02*
X197315169Y-185607614D01*
X197315169Y-185607614D02*
X197386597Y-185464757D01*
X197386597Y-185464757D02*
X197529455Y-185393328D01*
X197529455Y-185393328D02*
X197815169Y-185393328D01*
X197815169Y-185393328D02*
X197958026Y-185464757D01*
X197958026Y-185464757D02*
X198029455Y-185607614D01*
X198029455Y-185607614D02*
X198029455Y-185750471D01*
X198029455Y-185750471D02*
X197315169Y-185893328D01*
X199315169Y-186393328D02*
X199315169Y-185607614D01*
X199315169Y-185607614D02*
X199243740Y-185464757D01*
X199243740Y-185464757D02*
X199100883Y-185393328D01*
X199100883Y-185393328D02*
X198815169Y-185393328D01*
X198815169Y-185393328D02*
X198672311Y-185464757D01*
X199315169Y-186321900D02*
X199172311Y-186393328D01*
X199172311Y-186393328D02*
X198815169Y-186393328D01*
X198815169Y-186393328D02*
X198672311Y-186321900D01*
X198672311Y-186321900D02*
X198600883Y-186179042D01*
X198600883Y-186179042D02*
X198600883Y-186036185D01*
X198600883Y-186036185D02*
X198672311Y-185893328D01*
X198672311Y-185893328D02*
X198815169Y-185821900D01*
X198815169Y-185821900D02*
X199172311Y-185821900D01*
X199172311Y-185821900D02*
X199315169Y-185750471D01*
X200672312Y-186393328D02*
X200672312Y-184893328D01*
X200672312Y-186321900D02*
X200529454Y-186393328D01*
X200529454Y-186393328D02*
X200243740Y-186393328D01*
X200243740Y-186393328D02*
X200100883Y-186321900D01*
X200100883Y-186321900D02*
X200029454Y-186250471D01*
X200029454Y-186250471D02*
X199958026Y-186107614D01*
X199958026Y-186107614D02*
X199958026Y-185679042D01*
X199958026Y-185679042D02*
X200029454Y-185536185D01*
X200029454Y-185536185D02*
X200100883Y-185464757D01*
X200100883Y-185464757D02*
X200243740Y-185393328D01*
X200243740Y-185393328D02*
X200529454Y-185393328D01*
X200529454Y-185393328D02*
X200672312Y-185464757D01*
X201386597Y-186250471D02*
X201458026Y-186321900D01*
X201458026Y-186321900D02*
X201386597Y-186393328D01*
X201386597Y-186393328D02*
X201315169Y-186321900D01*
X201315169Y-186321900D02*
X201386597Y-186250471D01*
X201386597Y-186250471D02*
X201386597Y-186393328D01*
X202100883Y-186393328D02*
X202100883Y-184893328D01*
X202243741Y-185821900D02*
X202672312Y-186393328D01*
X202672312Y-185393328D02*
X202100883Y-185964757D01*
X203315169Y-186393328D02*
X203315169Y-185393328D01*
X203315169Y-184893328D02*
X203243741Y-184964757D01*
X203243741Y-184964757D02*
X203315169Y-185036185D01*
X203315169Y-185036185D02*
X203386598Y-184964757D01*
X203386598Y-184964757D02*
X203315169Y-184893328D01*
X203315169Y-184893328D02*
X203315169Y-185036185D01*
X204672313Y-186321900D02*
X204529455Y-186393328D01*
X204529455Y-186393328D02*
X204243741Y-186393328D01*
X204243741Y-186393328D02*
X204100884Y-186321900D01*
X204100884Y-186321900D02*
X204029455Y-186250471D01*
X204029455Y-186250471D02*
X203958027Y-186107614D01*
X203958027Y-186107614D02*
X203958027Y-185679042D01*
X203958027Y-185679042D02*
X204029455Y-185536185D01*
X204029455Y-185536185D02*
X204100884Y-185464757D01*
X204100884Y-185464757D02*
X204243741Y-185393328D01*
X204243741Y-185393328D02*
X204529455Y-185393328D01*
X204529455Y-185393328D02*
X204672313Y-185464757D01*
X205958027Y-186393328D02*
X205958027Y-185607614D01*
X205958027Y-185607614D02*
X205886598Y-185464757D01*
X205886598Y-185464757D02*
X205743741Y-185393328D01*
X205743741Y-185393328D02*
X205458027Y-185393328D01*
X205458027Y-185393328D02*
X205315169Y-185464757D01*
X205958027Y-186321900D02*
X205815169Y-186393328D01*
X205815169Y-186393328D02*
X205458027Y-186393328D01*
X205458027Y-186393328D02*
X205315169Y-186321900D01*
X205315169Y-186321900D02*
X205243741Y-186179042D01*
X205243741Y-186179042D02*
X205243741Y-186036185D01*
X205243741Y-186036185D02*
X205315169Y-185893328D01*
X205315169Y-185893328D02*
X205458027Y-185821900D01*
X205458027Y-185821900D02*
X205815169Y-185821900D01*
X205815169Y-185821900D02*
X205958027Y-185750471D01*
X207315170Y-186393328D02*
X207315170Y-184893328D01*
X207315170Y-186321900D02*
X207172312Y-186393328D01*
X207172312Y-186393328D02*
X206886598Y-186393328D01*
X206886598Y-186393328D02*
X206743741Y-186321900D01*
X206743741Y-186321900D02*
X206672312Y-186250471D01*
X206672312Y-186250471D02*
X206600884Y-186107614D01*
X206600884Y-186107614D02*
X206600884Y-185679042D01*
X206600884Y-185679042D02*
X206672312Y-185536185D01*
X206672312Y-185536185D02*
X206743741Y-185464757D01*
X206743741Y-185464757D02*
X206886598Y-185393328D01*
X206886598Y-185393328D02*
X207172312Y-185393328D01*
X207172312Y-185393328D02*
X207315170Y-185464757D01*
X207672313Y-186536185D02*
X208815170Y-186536185D01*
X209172312Y-185393328D02*
X209172312Y-186893328D01*
X209172312Y-185464757D02*
X209315170Y-185393328D01*
X209315170Y-185393328D02*
X209600884Y-185393328D01*
X209600884Y-185393328D02*
X209743741Y-185464757D01*
X209743741Y-185464757D02*
X209815170Y-185536185D01*
X209815170Y-185536185D02*
X209886598Y-185679042D01*
X209886598Y-185679042D02*
X209886598Y-186107614D01*
X209886598Y-186107614D02*
X209815170Y-186250471D01*
X209815170Y-186250471D02*
X209743741Y-186321900D01*
X209743741Y-186321900D02*
X209600884Y-186393328D01*
X209600884Y-186393328D02*
X209315170Y-186393328D01*
X209315170Y-186393328D02*
X209172312Y-186321900D01*
X211172313Y-186321900D02*
X211029455Y-186393328D01*
X211029455Y-186393328D02*
X210743741Y-186393328D01*
X210743741Y-186393328D02*
X210600884Y-186321900D01*
X210600884Y-186321900D02*
X210529455Y-186250471D01*
X210529455Y-186250471D02*
X210458027Y-186107614D01*
X210458027Y-186107614D02*
X210458027Y-185679042D01*
X210458027Y-185679042D02*
X210529455Y-185536185D01*
X210529455Y-185536185D02*
X210600884Y-185464757D01*
X210600884Y-185464757D02*
X210743741Y-185393328D01*
X210743741Y-185393328D02*
X211029455Y-185393328D01*
X211029455Y-185393328D02*
X211172313Y-185464757D01*
X211815169Y-186393328D02*
X211815169Y-184893328D01*
X211815169Y-185464757D02*
X211958027Y-185393328D01*
X211958027Y-185393328D02*
X212243741Y-185393328D01*
X212243741Y-185393328D02*
X212386598Y-185464757D01*
X212386598Y-185464757D02*
X212458027Y-185536185D01*
X212458027Y-185536185D02*
X212529455Y-185679042D01*
X212529455Y-185679042D02*
X212529455Y-186107614D01*
X212529455Y-186107614D02*
X212458027Y-186250471D01*
X212458027Y-186250471D02*
X212386598Y-186321900D01*
X212386598Y-186321900D02*
X212243741Y-186393328D01*
X212243741Y-186393328D02*
X211958027Y-186393328D01*
X211958027Y-186393328D02*
X211815169Y-186321900D01*
D10*
D11*
X177002200Y-181507200D02*
X285002200Y-181507200D01*
D10*
D11*
X178386598Y-183621900D02*
X178600884Y-183693328D01*
X178600884Y-183693328D02*
X178958026Y-183693328D01*
X178958026Y-183693328D02*
X179100884Y-183621900D01*
X179100884Y-183621900D02*
X179172312Y-183550471D01*
X179172312Y-183550471D02*
X179243741Y-183407614D01*
X179243741Y-183407614D02*
X179243741Y-183264757D01*
X179243741Y-183264757D02*
X179172312Y-183121900D01*
X179172312Y-183121900D02*
X179100884Y-183050471D01*
X179100884Y-183050471D02*
X178958026Y-182979042D01*
X178958026Y-182979042D02*
X178672312Y-182907614D01*
X178672312Y-182907614D02*
X178529455Y-182836185D01*
X178529455Y-182836185D02*
X178458026Y-182764757D01*
X178458026Y-182764757D02*
X178386598Y-182621900D01*
X178386598Y-182621900D02*
X178386598Y-182479042D01*
X178386598Y-182479042D02*
X178458026Y-182336185D01*
X178458026Y-182336185D02*
X178529455Y-182264757D01*
X178529455Y-182264757D02*
X178672312Y-182193328D01*
X178672312Y-182193328D02*
X179029455Y-182193328D01*
X179029455Y-182193328D02*
X179243741Y-182264757D01*
X179886597Y-183693328D02*
X179886597Y-182193328D01*
X180529455Y-183693328D02*
X180529455Y-182907614D01*
X180529455Y-182907614D02*
X180458026Y-182764757D01*
X180458026Y-182764757D02*
X180315169Y-182693328D01*
X180315169Y-182693328D02*
X180100883Y-182693328D01*
X180100883Y-182693328D02*
X179958026Y-182764757D01*
X179958026Y-182764757D02*
X179886597Y-182836185D01*
X181815169Y-183621900D02*
X181672312Y-183693328D01*
X181672312Y-183693328D02*
X181386598Y-183693328D01*
X181386598Y-183693328D02*
X181243740Y-183621900D01*
X181243740Y-183621900D02*
X181172312Y-183479042D01*
X181172312Y-183479042D02*
X181172312Y-182907614D01*
X181172312Y-182907614D02*
X181243740Y-182764757D01*
X181243740Y-182764757D02*
X181386598Y-182693328D01*
X181386598Y-182693328D02*
X181672312Y-182693328D01*
X181672312Y-182693328D02*
X181815169Y-182764757D01*
X181815169Y-182764757D02*
X181886598Y-182907614D01*
X181886598Y-182907614D02*
X181886598Y-183050471D01*
X181886598Y-183050471D02*
X181172312Y-183193328D01*
X183100883Y-183621900D02*
X182958026Y-183693328D01*
X182958026Y-183693328D02*
X182672312Y-183693328D01*
X182672312Y-183693328D02*
X182529454Y-183621900D01*
X182529454Y-183621900D02*
X182458026Y-183479042D01*
X182458026Y-183479042D02*
X182458026Y-182907614D01*
X182458026Y-182907614D02*
X182529454Y-182764757D01*
X182529454Y-182764757D02*
X182672312Y-182693328D01*
X182672312Y-182693328D02*
X182958026Y-182693328D01*
X182958026Y-182693328D02*
X183100883Y-182764757D01*
X183100883Y-182764757D02*
X183172312Y-182907614D01*
X183172312Y-182907614D02*
X183172312Y-183050471D01*
X183172312Y-183050471D02*
X182458026Y-183193328D01*
X183600883Y-182693328D02*
X184172311Y-182693328D01*
X183815168Y-182193328D02*
X183815168Y-183479042D01*
X183815168Y-183479042D02*
X183886597Y-183621900D01*
X183886597Y-183621900D02*
X184029454Y-183693328D01*
X184029454Y-183693328D02*
X184172311Y-183693328D01*
X184672311Y-183550471D02*
X184743740Y-183621900D01*
X184743740Y-183621900D02*
X184672311Y-183693328D01*
X184672311Y-183693328D02*
X184600883Y-183621900D01*
X184600883Y-183621900D02*
X184672311Y-183550471D01*
X184672311Y-183550471D02*
X184672311Y-183693328D01*
X184672311Y-182764757D02*
X184743740Y-182836185D01*
X184743740Y-182836185D02*
X184672311Y-182907614D01*
X184672311Y-182907614D02*
X184600883Y-182836185D01*
X184600883Y-182836185D02*
X184672311Y-182764757D01*
X184672311Y-182764757D02*
X184672311Y-182907614D01*
D10*
D12*
D10*
D11*
D10*
D11*
D10*
D11*
D10*
D11*
D10*
D11*
X197002200Y-191507200D02*
X197002200Y-194507200D01*
D10*
D11*
X261002200Y-191507200D02*
X261002200Y-198007200D01*
D10*
X155320000Y-55720000D02*
G75*
G03*
X155320000Y-55720000I-8000000J0D01*
G01*
D14*
X141571427Y-112003821D02*
X141642856Y-112075250D01*
X141642856Y-112075250D02*
X141571427Y-112146678D01*
X141571427Y-112146678D02*
X141499999Y-112075250D01*
X141499999Y-112075250D02*
X141571427Y-112003821D01*
X141571427Y-112003821D02*
X141571427Y-112146678D01*
X141571427Y-111575250D02*
X141499999Y-110718107D01*
X141499999Y-110718107D02*
X141571427Y-110646678D01*
X141571427Y-110646678D02*
X141642856Y-110718107D01*
X141642856Y-110718107D02*
X141571427Y-111575250D01*
X141571427Y-111575250D02*
X141571427Y-110646678D01*
X142285713Y-112003821D02*
X142357142Y-112075250D01*
X142357142Y-112075250D02*
X142285713Y-112146678D01*
X142285713Y-112146678D02*
X142214285Y-112075250D01*
X142214285Y-112075250D02*
X142285713Y-112003821D01*
X142285713Y-112003821D02*
X142285713Y-112146678D01*
X142285713Y-111575250D02*
X142214285Y-110718107D01*
X142214285Y-110718107D02*
X142285713Y-110646678D01*
X142285713Y-110646678D02*
X142357142Y-110718107D01*
X142357142Y-110718107D02*
X142285713Y-111575250D01*
X142285713Y-111575250D02*
X142285713Y-110646678D01*
X142999999Y-112146678D02*
X142999999Y-110646678D01*
X142999999Y-110646678D02*
X143357142Y-110646678D01*
X143357142Y-110646678D02*
X143571428Y-110718107D01*
X143571428Y-110718107D02*
X143714285Y-110860964D01*
X143714285Y-110860964D02*
X143785714Y-111003821D01*
X143785714Y-111003821D02*
X143857142Y-111289535D01*
X143857142Y-111289535D02*
X143857142Y-111503821D01*
X143857142Y-111503821D02*
X143785714Y-111789535D01*
X143785714Y-111789535D02*
X143714285Y-111932392D01*
X143714285Y-111932392D02*
X143571428Y-112075250D01*
X143571428Y-112075250D02*
X143357142Y-112146678D01*
X143357142Y-112146678D02*
X142999999Y-112146678D01*
X144428571Y-111718107D02*
X145142857Y-111718107D01*
X144285714Y-112146678D02*
X144785714Y-110646678D01*
X144785714Y-110646678D02*
X145285714Y-112146678D01*
X145785713Y-112146678D02*
X145785713Y-110646678D01*
X145785713Y-110646678D02*
X146642856Y-112146678D01*
X146642856Y-112146678D02*
X146642856Y-110646678D01*
X148142857Y-110718107D02*
X148000000Y-110646678D01*
X148000000Y-110646678D02*
X147785714Y-110646678D01*
X147785714Y-110646678D02*
X147571428Y-110718107D01*
X147571428Y-110718107D02*
X147428571Y-110860964D01*
X147428571Y-110860964D02*
X147357142Y-111003821D01*
X147357142Y-111003821D02*
X147285714Y-111289535D01*
X147285714Y-111289535D02*
X147285714Y-111503821D01*
X147285714Y-111503821D02*
X147357142Y-111789535D01*
X147357142Y-111789535D02*
X147428571Y-111932392D01*
X147428571Y-111932392D02*
X147571428Y-112075250D01*
X147571428Y-112075250D02*
X147785714Y-112146678D01*
X147785714Y-112146678D02*
X147928571Y-112146678D01*
X147928571Y-112146678D02*
X148142857Y-112075250D01*
X148142857Y-112075250D02*
X148214285Y-112003821D01*
X148214285Y-112003821D02*
X148214285Y-111503821D01*
X148214285Y-111503821D02*
X147928571Y-111503821D01*
X148857142Y-111360964D02*
X149357142Y-111360964D01*
X149571428Y-112146678D02*
X148857142Y-112146678D01*
X148857142Y-112146678D02*
X148857142Y-110646678D01*
X148857142Y-110646678D02*
X149571428Y-110646678D01*
X151071428Y-112146678D02*
X150571428Y-111432392D01*
X150214285Y-112146678D02*
X150214285Y-110646678D01*
X150214285Y-110646678D02*
X150785714Y-110646678D01*
X150785714Y-110646678D02*
X150928571Y-110718107D01*
X150928571Y-110718107D02*
X151000000Y-110789535D01*
X151000000Y-110789535D02*
X151071428Y-110932392D01*
X151071428Y-110932392D02*
X151071428Y-111146678D01*
X151071428Y-111146678D02*
X151000000Y-111289535D01*
X151000000Y-111289535D02*
X150928571Y-111360964D01*
X150928571Y-111360964D02*
X150785714Y-111432392D01*
X150785714Y-111432392D02*
X150214285Y-111432392D01*
X151714285Y-112003821D02*
X151785714Y-112075250D01*
X151785714Y-112075250D02*
X151714285Y-112146678D01*
X151714285Y-112146678D02*
X151642857Y-112075250D01*
X151642857Y-112075250D02*
X151714285Y-112003821D01*
X151714285Y-112003821D02*
X151714285Y-112146678D01*
X151714285Y-111575250D02*
X151642857Y-110718107D01*
X151642857Y-110718107D02*
X151714285Y-110646678D01*
X151714285Y-110646678D02*
X151785714Y-110718107D01*
X151785714Y-110718107D02*
X151714285Y-111575250D01*
X151714285Y-111575250D02*
X151714285Y-110646678D01*
X152428571Y-112003821D02*
X152500000Y-112075250D01*
X152500000Y-112075250D02*
X152428571Y-112146678D01*
X152428571Y-112146678D02*
X152357143Y-112075250D01*
X152357143Y-112075250D02*
X152428571Y-112003821D01*
X152428571Y-112003821D02*
X152428571Y-112146678D01*
X152428571Y-111575250D02*
X152357143Y-110718107D01*
X152357143Y-110718107D02*
X152428571Y-110646678D01*
X152428571Y-110646678D02*
X152500000Y-110718107D01*
X152500000Y-110718107D02*
X152428571Y-111575250D01*
X152428571Y-111575250D02*
X152428571Y-110646678D01*
X126749999Y-114490250D02*
X126964285Y-114561678D01*
X126964285Y-114561678D02*
X127321427Y-114561678D01*
X127321427Y-114561678D02*
X127464285Y-114490250D01*
X127464285Y-114490250D02*
X127535713Y-114418821D01*
X127535713Y-114418821D02*
X127607142Y-114275964D01*
X127607142Y-114275964D02*
X127607142Y-114133107D01*
X127607142Y-114133107D02*
X127535713Y-113990250D01*
X127535713Y-113990250D02*
X127464285Y-113918821D01*
X127464285Y-113918821D02*
X127321427Y-113847392D01*
X127321427Y-113847392D02*
X127035713Y-113775964D01*
X127035713Y-113775964D02*
X126892856Y-113704535D01*
X126892856Y-113704535D02*
X126821427Y-113633107D01*
X126821427Y-113633107D02*
X126749999Y-113490250D01*
X126749999Y-113490250D02*
X126749999Y-113347392D01*
X126749999Y-113347392D02*
X126821427Y-113204535D01*
X126821427Y-113204535D02*
X126892856Y-113133107D01*
X126892856Y-113133107D02*
X127035713Y-113061678D01*
X127035713Y-113061678D02*
X127392856Y-113061678D01*
X127392856Y-113061678D02*
X127607142Y-113133107D01*
X128035713Y-113061678D02*
X128892856Y-113061678D01*
X128464284Y-114561678D02*
X128464284Y-113061678D01*
X130249998Y-114561678D02*
X129749998Y-113847392D01*
X129392855Y-114561678D02*
X129392855Y-113061678D01*
X129392855Y-113061678D02*
X129964284Y-113061678D01*
X129964284Y-113061678D02*
X130107141Y-113133107D01*
X130107141Y-113133107D02*
X130178570Y-113204535D01*
X130178570Y-113204535D02*
X130249998Y-113347392D01*
X130249998Y-113347392D02*
X130249998Y-113561678D01*
X130249998Y-113561678D02*
X130178570Y-113704535D01*
X130178570Y-113704535D02*
X130107141Y-113775964D01*
X130107141Y-113775964D02*
X129964284Y-113847392D01*
X129964284Y-113847392D02*
X129392855Y-113847392D01*
X130892855Y-114561678D02*
X130892855Y-113061678D01*
X132464284Y-114418821D02*
X132392856Y-114490250D01*
X132392856Y-114490250D02*
X132178570Y-114561678D01*
X132178570Y-114561678D02*
X132035713Y-114561678D01*
X132035713Y-114561678D02*
X131821427Y-114490250D01*
X131821427Y-114490250D02*
X131678570Y-114347392D01*
X131678570Y-114347392D02*
X131607141Y-114204535D01*
X131607141Y-114204535D02*
X131535713Y-113918821D01*
X131535713Y-113918821D02*
X131535713Y-113704535D01*
X131535713Y-113704535D02*
X131607141Y-113418821D01*
X131607141Y-113418821D02*
X131678570Y-113275964D01*
X131678570Y-113275964D02*
X131821427Y-113133107D01*
X131821427Y-113133107D02*
X132035713Y-113061678D01*
X132035713Y-113061678D02*
X132178570Y-113061678D01*
X132178570Y-113061678D02*
X132392856Y-113133107D01*
X132392856Y-113133107D02*
X132464284Y-113204535D01*
X132892856Y-113061678D02*
X133749999Y-113061678D01*
X133321427Y-114561678D02*
X133321427Y-113061678D01*
X134964284Y-114561678D02*
X134249998Y-114561678D01*
X134249998Y-114561678D02*
X134249998Y-113061678D01*
X135749999Y-113847392D02*
X135749999Y-114561678D01*
X135249999Y-113061678D02*
X135749999Y-113847392D01*
X135749999Y-113847392D02*
X136249999Y-113061678D01*
X138392855Y-113775964D02*
X137892855Y-113775964D01*
X137892855Y-114561678D02*
X137892855Y-113061678D01*
X137892855Y-113061678D02*
X138607141Y-113061678D01*
X139464284Y-113061678D02*
X139749998Y-113061678D01*
X139749998Y-113061678D02*
X139892855Y-113133107D01*
X139892855Y-113133107D02*
X140035712Y-113275964D01*
X140035712Y-113275964D02*
X140107141Y-113561678D01*
X140107141Y-113561678D02*
X140107141Y-114061678D01*
X140107141Y-114061678D02*
X140035712Y-114347392D01*
X140035712Y-114347392D02*
X139892855Y-114490250D01*
X139892855Y-114490250D02*
X139749998Y-114561678D01*
X139749998Y-114561678D02*
X139464284Y-114561678D01*
X139464284Y-114561678D02*
X139321427Y-114490250D01*
X139321427Y-114490250D02*
X139178569Y-114347392D01*
X139178569Y-114347392D02*
X139107141Y-114061678D01*
X139107141Y-114061678D02*
X139107141Y-113561678D01*
X139107141Y-113561678D02*
X139178569Y-113275964D01*
X139178569Y-113275964D02*
X139321427Y-113133107D01*
X139321427Y-113133107D02*
X139464284Y-113061678D01*
X141607141Y-114561678D02*
X141107141Y-113847392D01*
X140749998Y-114561678D02*
X140749998Y-113061678D01*
X140749998Y-113061678D02*
X141321427Y-113061678D01*
X141321427Y-113061678D02*
X141464284Y-113133107D01*
X141464284Y-113133107D02*
X141535713Y-113204535D01*
X141535713Y-113204535D02*
X141607141Y-113347392D01*
X141607141Y-113347392D02*
X141607141Y-113561678D01*
X141607141Y-113561678D02*
X141535713Y-113704535D01*
X141535713Y-113704535D02*
X141464284Y-113775964D01*
X141464284Y-113775964D02*
X141321427Y-113847392D01*
X141321427Y-113847392D02*
X140749998Y-113847392D01*
X144178570Y-113133107D02*
X144035713Y-113061678D01*
X144035713Y-113061678D02*
X143821427Y-113061678D01*
X143821427Y-113061678D02*
X143607141Y-113133107D01*
X143607141Y-113133107D02*
X143464284Y-113275964D01*
X143464284Y-113275964D02*
X143392855Y-113418821D01*
X143392855Y-113418821D02*
X143321427Y-113704535D01*
X143321427Y-113704535D02*
X143321427Y-113918821D01*
X143321427Y-113918821D02*
X143392855Y-114204535D01*
X143392855Y-114204535D02*
X143464284Y-114347392D01*
X143464284Y-114347392D02*
X143607141Y-114490250D01*
X143607141Y-114490250D02*
X143821427Y-114561678D01*
X143821427Y-114561678D02*
X143964284Y-114561678D01*
X143964284Y-114561678D02*
X144178570Y-114490250D01*
X144178570Y-114490250D02*
X144249998Y-114418821D01*
X144249998Y-114418821D02*
X144249998Y-113918821D01*
X144249998Y-113918821D02*
X143964284Y-113918821D01*
X145178570Y-113061678D02*
X145464284Y-113061678D01*
X145464284Y-113061678D02*
X145607141Y-113133107D01*
X145607141Y-113133107D02*
X145749998Y-113275964D01*
X145749998Y-113275964D02*
X145821427Y-113561678D01*
X145821427Y-113561678D02*
X145821427Y-114061678D01*
X145821427Y-114061678D02*
X145749998Y-114347392D01*
X145749998Y-114347392D02*
X145607141Y-114490250D01*
X145607141Y-114490250D02*
X145464284Y-114561678D01*
X145464284Y-114561678D02*
X145178570Y-114561678D01*
X145178570Y-114561678D02*
X145035713Y-114490250D01*
X145035713Y-114490250D02*
X144892855Y-114347392D01*
X144892855Y-114347392D02*
X144821427Y-114061678D01*
X144821427Y-114061678D02*
X144821427Y-113561678D01*
X144821427Y-113561678D02*
X144892855Y-113275964D01*
X144892855Y-113275964D02*
X145035713Y-113133107D01*
X145035713Y-113133107D02*
X145178570Y-113061678D01*
X146749999Y-113061678D02*
X147035713Y-113061678D01*
X147035713Y-113061678D02*
X147178570Y-113133107D01*
X147178570Y-113133107D02*
X147321427Y-113275964D01*
X147321427Y-113275964D02*
X147392856Y-113561678D01*
X147392856Y-113561678D02*
X147392856Y-114061678D01*
X147392856Y-114061678D02*
X147321427Y-114347392D01*
X147321427Y-114347392D02*
X147178570Y-114490250D01*
X147178570Y-114490250D02*
X147035713Y-114561678D01*
X147035713Y-114561678D02*
X146749999Y-114561678D01*
X146749999Y-114561678D02*
X146607142Y-114490250D01*
X146607142Y-114490250D02*
X146464284Y-114347392D01*
X146464284Y-114347392D02*
X146392856Y-114061678D01*
X146392856Y-114061678D02*
X146392856Y-113561678D01*
X146392856Y-113561678D02*
X146464284Y-113275964D01*
X146464284Y-113275964D02*
X146607142Y-113133107D01*
X146607142Y-113133107D02*
X146749999Y-113061678D01*
X148035713Y-114561678D02*
X148035713Y-113061678D01*
X148035713Y-113061678D02*
X148392856Y-113061678D01*
X148392856Y-113061678D02*
X148607142Y-113133107D01*
X148607142Y-113133107D02*
X148749999Y-113275964D01*
X148749999Y-113275964D02*
X148821428Y-113418821D01*
X148821428Y-113418821D02*
X148892856Y-113704535D01*
X148892856Y-113704535D02*
X148892856Y-113918821D01*
X148892856Y-113918821D02*
X148821428Y-114204535D01*
X148821428Y-114204535D02*
X148749999Y-114347392D01*
X148749999Y-114347392D02*
X148607142Y-114490250D01*
X148607142Y-114490250D02*
X148392856Y-114561678D01*
X148392856Y-114561678D02*
X148035713Y-114561678D01*
X150464285Y-113061678D02*
X151321428Y-113061678D01*
X150892856Y-114561678D02*
X150892856Y-113061678D01*
X151821427Y-114561678D02*
X151821427Y-113061678D01*
X152535713Y-114561678D02*
X152535713Y-113061678D01*
X152535713Y-113061678D02*
X153035713Y-114133107D01*
X153035713Y-114133107D02*
X153535713Y-113061678D01*
X153535713Y-113061678D02*
X153535713Y-114561678D01*
X154249999Y-113775964D02*
X154749999Y-113775964D01*
X154964285Y-114561678D02*
X154249999Y-114561678D01*
X154249999Y-114561678D02*
X154249999Y-113061678D01*
X154249999Y-113061678D02*
X154964285Y-113061678D01*
X156749999Y-113061678D02*
X156749999Y-114275964D01*
X156749999Y-114275964D02*
X156821428Y-114418821D01*
X156821428Y-114418821D02*
X156892857Y-114490250D01*
X156892857Y-114490250D02*
X157035714Y-114561678D01*
X157035714Y-114561678D02*
X157321428Y-114561678D01*
X157321428Y-114561678D02*
X157464285Y-114490250D01*
X157464285Y-114490250D02*
X157535714Y-114418821D01*
X157535714Y-114418821D02*
X157607142Y-114275964D01*
X157607142Y-114275964D02*
X157607142Y-113061678D01*
X158250000Y-114490250D02*
X158464286Y-114561678D01*
X158464286Y-114561678D02*
X158821428Y-114561678D01*
X158821428Y-114561678D02*
X158964286Y-114490250D01*
X158964286Y-114490250D02*
X159035714Y-114418821D01*
X159035714Y-114418821D02*
X159107143Y-114275964D01*
X159107143Y-114275964D02*
X159107143Y-114133107D01*
X159107143Y-114133107D02*
X159035714Y-113990250D01*
X159035714Y-113990250D02*
X158964286Y-113918821D01*
X158964286Y-113918821D02*
X158821428Y-113847392D01*
X158821428Y-113847392D02*
X158535714Y-113775964D01*
X158535714Y-113775964D02*
X158392857Y-113704535D01*
X158392857Y-113704535D02*
X158321428Y-113633107D01*
X158321428Y-113633107D02*
X158250000Y-113490250D01*
X158250000Y-113490250D02*
X158250000Y-113347392D01*
X158250000Y-113347392D02*
X158321428Y-113204535D01*
X158321428Y-113204535D02*
X158392857Y-113133107D01*
X158392857Y-113133107D02*
X158535714Y-113061678D01*
X158535714Y-113061678D02*
X158892857Y-113061678D01*
X158892857Y-113061678D02*
X159107143Y-113133107D01*
X159749999Y-113775964D02*
X160249999Y-113775964D01*
X160464285Y-114561678D02*
X159749999Y-114561678D01*
X159749999Y-114561678D02*
X159749999Y-113061678D01*
X159749999Y-113061678D02*
X160464285Y-113061678D01*
X162535714Y-113061678D02*
X162821428Y-113061678D01*
X162821428Y-113061678D02*
X162964285Y-113133107D01*
X162964285Y-113133107D02*
X163107142Y-113275964D01*
X163107142Y-113275964D02*
X163178571Y-113561678D01*
X163178571Y-113561678D02*
X163178571Y-114061678D01*
X163178571Y-114061678D02*
X163107142Y-114347392D01*
X163107142Y-114347392D02*
X162964285Y-114490250D01*
X162964285Y-114490250D02*
X162821428Y-114561678D01*
X162821428Y-114561678D02*
X162535714Y-114561678D01*
X162535714Y-114561678D02*
X162392857Y-114490250D01*
X162392857Y-114490250D02*
X162249999Y-114347392D01*
X162249999Y-114347392D02*
X162178571Y-114061678D01*
X162178571Y-114061678D02*
X162178571Y-113561678D01*
X162178571Y-113561678D02*
X162249999Y-113275964D01*
X162249999Y-113275964D02*
X162392857Y-113133107D01*
X162392857Y-113133107D02*
X162535714Y-113061678D01*
X163821428Y-114561678D02*
X163821428Y-113061678D01*
X163821428Y-113061678D02*
X164678571Y-114561678D01*
X164678571Y-114561678D02*
X164678571Y-113061678D01*
X166107143Y-114561678D02*
X165392857Y-114561678D01*
X165392857Y-114561678D02*
X165392857Y-113061678D01*
X166892858Y-113847392D02*
X166892858Y-114561678D01*
X166392858Y-113061678D02*
X166892858Y-113847392D01*
X166892858Y-113847392D02*
X167392858Y-113061678D01*
X131535713Y-119391678D02*
X131535713Y-117891678D01*
X131535713Y-117891678D02*
X131892856Y-117891678D01*
X131892856Y-117891678D02*
X132107142Y-117963107D01*
X132107142Y-117963107D02*
X132249999Y-118105964D01*
X132249999Y-118105964D02*
X132321428Y-118248821D01*
X132321428Y-118248821D02*
X132392856Y-118534535D01*
X132392856Y-118534535D02*
X132392856Y-118748821D01*
X132392856Y-118748821D02*
X132321428Y-119034535D01*
X132321428Y-119034535D02*
X132249999Y-119177392D01*
X132249999Y-119177392D02*
X132107142Y-119320250D01*
X132107142Y-119320250D02*
X131892856Y-119391678D01*
X131892856Y-119391678D02*
X131535713Y-119391678D01*
X133607142Y-119320250D02*
X133464285Y-119391678D01*
X133464285Y-119391678D02*
X133178571Y-119391678D01*
X133178571Y-119391678D02*
X133035713Y-119320250D01*
X133035713Y-119320250D02*
X132964285Y-119177392D01*
X132964285Y-119177392D02*
X132964285Y-118605964D01*
X132964285Y-118605964D02*
X133035713Y-118463107D01*
X133035713Y-118463107D02*
X133178571Y-118391678D01*
X133178571Y-118391678D02*
X133464285Y-118391678D01*
X133464285Y-118391678D02*
X133607142Y-118463107D01*
X133607142Y-118463107D02*
X133678571Y-118605964D01*
X133678571Y-118605964D02*
X133678571Y-118748821D01*
X133678571Y-118748821D02*
X132964285Y-118891678D01*
X134249999Y-119320250D02*
X134392856Y-119391678D01*
X134392856Y-119391678D02*
X134678570Y-119391678D01*
X134678570Y-119391678D02*
X134821427Y-119320250D01*
X134821427Y-119320250D02*
X134892856Y-119177392D01*
X134892856Y-119177392D02*
X134892856Y-119105964D01*
X134892856Y-119105964D02*
X134821427Y-118963107D01*
X134821427Y-118963107D02*
X134678570Y-118891678D01*
X134678570Y-118891678D02*
X134464285Y-118891678D01*
X134464285Y-118891678D02*
X134321427Y-118820250D01*
X134321427Y-118820250D02*
X134249999Y-118677392D01*
X134249999Y-118677392D02*
X134249999Y-118605964D01*
X134249999Y-118605964D02*
X134321427Y-118463107D01*
X134321427Y-118463107D02*
X134464285Y-118391678D01*
X134464285Y-118391678D02*
X134678570Y-118391678D01*
X134678570Y-118391678D02*
X134821427Y-118463107D01*
X135535713Y-119391678D02*
X135535713Y-118391678D01*
X135535713Y-117891678D02*
X135464285Y-117963107D01*
X135464285Y-117963107D02*
X135535713Y-118034535D01*
X135535713Y-118034535D02*
X135607142Y-117963107D01*
X135607142Y-117963107D02*
X135535713Y-117891678D01*
X135535713Y-117891678D02*
X135535713Y-118034535D01*
X136892857Y-118391678D02*
X136892857Y-119605964D01*
X136892857Y-119605964D02*
X136821428Y-119748821D01*
X136821428Y-119748821D02*
X136749999Y-119820250D01*
X136749999Y-119820250D02*
X136607142Y-119891678D01*
X136607142Y-119891678D02*
X136392857Y-119891678D01*
X136392857Y-119891678D02*
X136249999Y-119820250D01*
X136892857Y-119320250D02*
X136749999Y-119391678D01*
X136749999Y-119391678D02*
X136464285Y-119391678D01*
X136464285Y-119391678D02*
X136321428Y-119320250D01*
X136321428Y-119320250D02*
X136249999Y-119248821D01*
X136249999Y-119248821D02*
X136178571Y-119105964D01*
X136178571Y-119105964D02*
X136178571Y-118677392D01*
X136178571Y-118677392D02*
X136249999Y-118534535D01*
X136249999Y-118534535D02*
X136321428Y-118463107D01*
X136321428Y-118463107D02*
X136464285Y-118391678D01*
X136464285Y-118391678D02*
X136749999Y-118391678D01*
X136749999Y-118391678D02*
X136892857Y-118463107D01*
X137607142Y-118391678D02*
X137607142Y-119391678D01*
X137607142Y-118534535D02*
X137678571Y-118463107D01*
X137678571Y-118463107D02*
X137821428Y-118391678D01*
X137821428Y-118391678D02*
X138035714Y-118391678D01*
X138035714Y-118391678D02*
X138178571Y-118463107D01*
X138178571Y-118463107D02*
X138250000Y-118605964D01*
X138250000Y-118605964D02*
X138250000Y-119391678D01*
X139535714Y-119320250D02*
X139392857Y-119391678D01*
X139392857Y-119391678D02*
X139107143Y-119391678D01*
X139107143Y-119391678D02*
X138964285Y-119320250D01*
X138964285Y-119320250D02*
X138892857Y-119177392D01*
X138892857Y-119177392D02*
X138892857Y-118605964D01*
X138892857Y-118605964D02*
X138964285Y-118463107D01*
X138964285Y-118463107D02*
X139107143Y-118391678D01*
X139107143Y-118391678D02*
X139392857Y-118391678D01*
X139392857Y-118391678D02*
X139535714Y-118463107D01*
X139535714Y-118463107D02*
X139607143Y-118605964D01*
X139607143Y-118605964D02*
X139607143Y-118748821D01*
X139607143Y-118748821D02*
X138892857Y-118891678D01*
X140892857Y-119391678D02*
X140892857Y-117891678D01*
X140892857Y-119320250D02*
X140749999Y-119391678D01*
X140749999Y-119391678D02*
X140464285Y-119391678D01*
X140464285Y-119391678D02*
X140321428Y-119320250D01*
X140321428Y-119320250D02*
X140249999Y-119248821D01*
X140249999Y-119248821D02*
X140178571Y-119105964D01*
X140178571Y-119105964D02*
X140178571Y-118677392D01*
X140178571Y-118677392D02*
X140249999Y-118534535D01*
X140249999Y-118534535D02*
X140321428Y-118463107D01*
X140321428Y-118463107D02*
X140464285Y-118391678D01*
X140464285Y-118391678D02*
X140749999Y-118391678D01*
X140749999Y-118391678D02*
X140892857Y-118463107D01*
X142749999Y-119391678D02*
X142749999Y-117891678D01*
X142749999Y-118463107D02*
X142892857Y-118391678D01*
X142892857Y-118391678D02*
X143178571Y-118391678D01*
X143178571Y-118391678D02*
X143321428Y-118463107D01*
X143321428Y-118463107D02*
X143392857Y-118534535D01*
X143392857Y-118534535D02*
X143464285Y-118677392D01*
X143464285Y-118677392D02*
X143464285Y-119105964D01*
X143464285Y-119105964D02*
X143392857Y-119248821D01*
X143392857Y-119248821D02*
X143321428Y-119320250D01*
X143321428Y-119320250D02*
X143178571Y-119391678D01*
X143178571Y-119391678D02*
X142892857Y-119391678D01*
X142892857Y-119391678D02*
X142749999Y-119320250D01*
X143964285Y-118391678D02*
X144321428Y-119391678D01*
X144678571Y-118391678D02*
X144321428Y-119391678D01*
X144321428Y-119391678D02*
X144178571Y-119748821D01*
X144178571Y-119748821D02*
X144107142Y-119820250D01*
X144107142Y-119820250D02*
X143964285Y-119891678D01*
X147321428Y-118677392D02*
X147249999Y-118605964D01*
X147249999Y-118605964D02*
X147107142Y-118534535D01*
X147107142Y-118534535D02*
X146964285Y-118534535D01*
X146964285Y-118534535D02*
X146821428Y-118605964D01*
X146821428Y-118605964D02*
X146749999Y-118677392D01*
X146749999Y-118677392D02*
X146678571Y-118820250D01*
X146678571Y-118820250D02*
X146678571Y-118963107D01*
X146678571Y-118963107D02*
X146749999Y-119105964D01*
X146749999Y-119105964D02*
X146821428Y-119177392D01*
X146821428Y-119177392D02*
X146964285Y-119248821D01*
X146964285Y-119248821D02*
X147107142Y-119248821D01*
X147107142Y-119248821D02*
X147249999Y-119177392D01*
X147249999Y-119177392D02*
X147321428Y-119105964D01*
X147321428Y-118534535D02*
X147321428Y-119105964D01*
X147321428Y-119105964D02*
X147392856Y-119177392D01*
X147392856Y-119177392D02*
X147464285Y-119177392D01*
X147464285Y-119177392D02*
X147607142Y-119105964D01*
X147607142Y-119105964D02*
X147678571Y-118963107D01*
X147678571Y-118963107D02*
X147678571Y-118605964D01*
X147678571Y-118605964D02*
X147535714Y-118391678D01*
X147535714Y-118391678D02*
X147321428Y-118248821D01*
X147321428Y-118248821D02*
X147035714Y-118177392D01*
X147035714Y-118177392D02*
X146749999Y-118248821D01*
X146749999Y-118248821D02*
X146535714Y-118391678D01*
X146535714Y-118391678D02*
X146392856Y-118605964D01*
X146392856Y-118605964D02*
X146321428Y-118891678D01*
X146321428Y-118891678D02*
X146392856Y-119177392D01*
X146392856Y-119177392D02*
X146535714Y-119391678D01*
X146535714Y-119391678D02*
X146749999Y-119534535D01*
X146749999Y-119534535D02*
X147035714Y-119605964D01*
X147035714Y-119605964D02*
X147321428Y-119534535D01*
X147321428Y-119534535D02*
X147535714Y-119391678D01*
X148321427Y-118391678D02*
X148321427Y-119677392D01*
X148321427Y-119677392D02*
X148249999Y-119820250D01*
X148249999Y-119820250D02*
X148107142Y-119891678D01*
X148107142Y-119891678D02*
X148035713Y-119891678D01*
X148321427Y-117891678D02*
X148249999Y-117963107D01*
X148249999Y-117963107D02*
X148321427Y-118034535D01*
X148321427Y-118034535D02*
X148392856Y-117963107D01*
X148392856Y-117963107D02*
X148321427Y-117891678D01*
X148321427Y-117891678D02*
X148321427Y-118034535D01*
X149249999Y-119391678D02*
X149107142Y-119320250D01*
X149107142Y-119320250D02*
X149035713Y-119248821D01*
X149035713Y-119248821D02*
X148964285Y-119105964D01*
X148964285Y-119105964D02*
X148964285Y-118677392D01*
X148964285Y-118677392D02*
X149035713Y-118534535D01*
X149035713Y-118534535D02*
X149107142Y-118463107D01*
X149107142Y-118463107D02*
X149249999Y-118391678D01*
X149249999Y-118391678D02*
X149464285Y-118391678D01*
X149464285Y-118391678D02*
X149607142Y-118463107D01*
X149607142Y-118463107D02*
X149678571Y-118534535D01*
X149678571Y-118534535D02*
X149749999Y-118677392D01*
X149749999Y-118677392D02*
X149749999Y-119105964D01*
X149749999Y-119105964D02*
X149678571Y-119248821D01*
X149678571Y-119248821D02*
X149607142Y-119320250D01*
X149607142Y-119320250D02*
X149464285Y-119391678D01*
X149464285Y-119391678D02*
X149249999Y-119391678D01*
X150321428Y-119320250D02*
X150464285Y-119391678D01*
X150464285Y-119391678D02*
X150749999Y-119391678D01*
X150749999Y-119391678D02*
X150892856Y-119320250D01*
X150892856Y-119320250D02*
X150964285Y-119177392D01*
X150964285Y-119177392D02*
X150964285Y-119105964D01*
X150964285Y-119105964D02*
X150892856Y-118963107D01*
X150892856Y-118963107D02*
X150749999Y-118891678D01*
X150749999Y-118891678D02*
X150535714Y-118891678D01*
X150535714Y-118891678D02*
X150392856Y-118820250D01*
X150392856Y-118820250D02*
X150321428Y-118677392D01*
X150321428Y-118677392D02*
X150321428Y-118605964D01*
X150321428Y-118605964D02*
X150392856Y-118463107D01*
X150392856Y-118463107D02*
X150535714Y-118391678D01*
X150535714Y-118391678D02*
X150749999Y-118391678D01*
X150749999Y-118391678D02*
X150892856Y-118463107D01*
X151607142Y-119391678D02*
X151607142Y-117891678D01*
X152250000Y-119391678D02*
X152250000Y-118605964D01*
X152250000Y-118605964D02*
X152178571Y-118463107D01*
X152178571Y-118463107D02*
X152035714Y-118391678D01*
X152035714Y-118391678D02*
X151821428Y-118391678D01*
X151821428Y-118391678D02*
X151678571Y-118463107D01*
X151678571Y-118463107D02*
X151607142Y-118534535D01*
X152964285Y-119248821D02*
X153035714Y-119320250D01*
X153035714Y-119320250D02*
X152964285Y-119391678D01*
X152964285Y-119391678D02*
X152892857Y-119320250D01*
X152892857Y-119320250D02*
X152964285Y-119248821D01*
X152964285Y-119248821D02*
X152964285Y-119391678D01*
X153464286Y-118391678D02*
X154035714Y-118391678D01*
X153678571Y-117891678D02*
X153678571Y-119177392D01*
X153678571Y-119177392D02*
X153750000Y-119320250D01*
X153750000Y-119320250D02*
X153892857Y-119391678D01*
X153892857Y-119391678D02*
X154035714Y-119391678D01*
X154535714Y-119391678D02*
X154535714Y-117891678D01*
X155178572Y-119391678D02*
X155178572Y-118605964D01*
X155178572Y-118605964D02*
X155107143Y-118463107D01*
X155107143Y-118463107D02*
X154964286Y-118391678D01*
X154964286Y-118391678D02*
X154750000Y-118391678D01*
X154750000Y-118391678D02*
X154607143Y-118463107D01*
X154607143Y-118463107D02*
X154535714Y-118534535D01*
X156464286Y-119320250D02*
X156321429Y-119391678D01*
X156321429Y-119391678D02*
X156035715Y-119391678D01*
X156035715Y-119391678D02*
X155892857Y-119320250D01*
X155892857Y-119320250D02*
X155821429Y-119177392D01*
X155821429Y-119177392D02*
X155821429Y-118605964D01*
X155821429Y-118605964D02*
X155892857Y-118463107D01*
X155892857Y-118463107D02*
X156035715Y-118391678D01*
X156035715Y-118391678D02*
X156321429Y-118391678D01*
X156321429Y-118391678D02*
X156464286Y-118463107D01*
X156464286Y-118463107D02*
X156535715Y-118605964D01*
X156535715Y-118605964D02*
X156535715Y-118748821D01*
X156535715Y-118748821D02*
X155821429Y-118891678D01*
X157178571Y-119248821D02*
X157250000Y-119320250D01*
X157250000Y-119320250D02*
X157178571Y-119391678D01*
X157178571Y-119391678D02*
X157107143Y-119320250D01*
X157107143Y-119320250D02*
X157178571Y-119248821D01*
X157178571Y-119248821D02*
X157178571Y-119391678D01*
X157892857Y-119391678D02*
X157892857Y-117891678D01*
X157892857Y-118463107D02*
X158035715Y-118391678D01*
X158035715Y-118391678D02*
X158321429Y-118391678D01*
X158321429Y-118391678D02*
X158464286Y-118463107D01*
X158464286Y-118463107D02*
X158535715Y-118534535D01*
X158535715Y-118534535D02*
X158607143Y-118677392D01*
X158607143Y-118677392D02*
X158607143Y-119105964D01*
X158607143Y-119105964D02*
X158535715Y-119248821D01*
X158535715Y-119248821D02*
X158464286Y-119320250D01*
X158464286Y-119320250D02*
X158321429Y-119391678D01*
X158321429Y-119391678D02*
X158035715Y-119391678D01*
X158035715Y-119391678D02*
X157892857Y-119320250D01*
X159464286Y-119391678D02*
X159321429Y-119320250D01*
X159321429Y-119320250D02*
X159250000Y-119248821D01*
X159250000Y-119248821D02*
X159178572Y-119105964D01*
X159178572Y-119105964D02*
X159178572Y-118677392D01*
X159178572Y-118677392D02*
X159250000Y-118534535D01*
X159250000Y-118534535D02*
X159321429Y-118463107D01*
X159321429Y-118463107D02*
X159464286Y-118391678D01*
X159464286Y-118391678D02*
X159678572Y-118391678D01*
X159678572Y-118391678D02*
X159821429Y-118463107D01*
X159821429Y-118463107D02*
X159892858Y-118534535D01*
X159892858Y-118534535D02*
X159964286Y-118677392D01*
X159964286Y-118677392D02*
X159964286Y-119105964D01*
X159964286Y-119105964D02*
X159892858Y-119248821D01*
X159892858Y-119248821D02*
X159821429Y-119320250D01*
X159821429Y-119320250D02*
X159678572Y-119391678D01*
X159678572Y-119391678D02*
X159464286Y-119391678D01*
X160535715Y-119320250D02*
X160678572Y-119391678D01*
X160678572Y-119391678D02*
X160964286Y-119391678D01*
X160964286Y-119391678D02*
X161107143Y-119320250D01*
X161107143Y-119320250D02*
X161178572Y-119177392D01*
X161178572Y-119177392D02*
X161178572Y-119105964D01*
X161178572Y-119105964D02*
X161107143Y-118963107D01*
X161107143Y-118963107D02*
X160964286Y-118891678D01*
X160964286Y-118891678D02*
X160750001Y-118891678D01*
X160750001Y-118891678D02*
X160607143Y-118820250D01*
X160607143Y-118820250D02*
X160535715Y-118677392D01*
X160535715Y-118677392D02*
X160535715Y-118605964D01*
X160535715Y-118605964D02*
X160607143Y-118463107D01*
X160607143Y-118463107D02*
X160750001Y-118391678D01*
X160750001Y-118391678D02*
X160964286Y-118391678D01*
X160964286Y-118391678D02*
X161107143Y-118463107D01*
X161821429Y-119391678D02*
X161821429Y-117891678D01*
X162464287Y-119391678D02*
X162464287Y-118605964D01*
X162464287Y-118605964D02*
X162392858Y-118463107D01*
X162392858Y-118463107D02*
X162250001Y-118391678D01*
X162250001Y-118391678D02*
X162035715Y-118391678D01*
X162035715Y-118391678D02*
X161892858Y-118463107D01*
X161892858Y-118463107D02*
X161821429Y-118534535D01*
X138464286Y-120806678D02*
X139035714Y-120806678D01*
X138678571Y-121806678D02*
X138678571Y-120520964D01*
X138678571Y-120520964D02*
X138750000Y-120378107D01*
X138750000Y-120378107D02*
X138892857Y-120306678D01*
X138892857Y-120306678D02*
X139035714Y-120306678D01*
X139750000Y-121806678D02*
X139607143Y-121735250D01*
X139607143Y-121735250D02*
X139535714Y-121663821D01*
X139535714Y-121663821D02*
X139464286Y-121520964D01*
X139464286Y-121520964D02*
X139464286Y-121092392D01*
X139464286Y-121092392D02*
X139535714Y-120949535D01*
X139535714Y-120949535D02*
X139607143Y-120878107D01*
X139607143Y-120878107D02*
X139750000Y-120806678D01*
X139750000Y-120806678D02*
X139964286Y-120806678D01*
X139964286Y-120806678D02*
X140107143Y-120878107D01*
X140107143Y-120878107D02*
X140178572Y-120949535D01*
X140178572Y-120949535D02*
X140250000Y-121092392D01*
X140250000Y-121092392D02*
X140250000Y-121520964D01*
X140250000Y-121520964D02*
X140178572Y-121663821D01*
X140178572Y-121663821D02*
X140107143Y-121735250D01*
X140107143Y-121735250D02*
X139964286Y-121806678D01*
X139964286Y-121806678D02*
X139750000Y-121806678D01*
X140892857Y-121806678D02*
X140892857Y-120806678D01*
X140892857Y-121092392D02*
X140964286Y-120949535D01*
X140964286Y-120949535D02*
X141035715Y-120878107D01*
X141035715Y-120878107D02*
X141178572Y-120806678D01*
X141178572Y-120806678D02*
X141321429Y-120806678D01*
X143892857Y-121092392D02*
X143821428Y-121020964D01*
X143821428Y-121020964D02*
X143678571Y-120949535D01*
X143678571Y-120949535D02*
X143535714Y-120949535D01*
X143535714Y-120949535D02*
X143392857Y-121020964D01*
X143392857Y-121020964D02*
X143321428Y-121092392D01*
X143321428Y-121092392D02*
X143250000Y-121235250D01*
X143250000Y-121235250D02*
X143250000Y-121378107D01*
X143250000Y-121378107D02*
X143321428Y-121520964D01*
X143321428Y-121520964D02*
X143392857Y-121592392D01*
X143392857Y-121592392D02*
X143535714Y-121663821D01*
X143535714Y-121663821D02*
X143678571Y-121663821D01*
X143678571Y-121663821D02*
X143821428Y-121592392D01*
X143821428Y-121592392D02*
X143892857Y-121520964D01*
X143892857Y-120949535D02*
X143892857Y-121520964D01*
X143892857Y-121520964D02*
X143964285Y-121592392D01*
X143964285Y-121592392D02*
X144035714Y-121592392D01*
X144035714Y-121592392D02*
X144178571Y-121520964D01*
X144178571Y-121520964D02*
X144250000Y-121378107D01*
X144250000Y-121378107D02*
X144250000Y-121020964D01*
X144250000Y-121020964D02*
X144107143Y-120806678D01*
X144107143Y-120806678D02*
X143892857Y-120663821D01*
X143892857Y-120663821D02*
X143607143Y-120592392D01*
X143607143Y-120592392D02*
X143321428Y-120663821D01*
X143321428Y-120663821D02*
X143107143Y-120806678D01*
X143107143Y-120806678D02*
X142964285Y-121020964D01*
X142964285Y-121020964D02*
X142892857Y-121306678D01*
X142892857Y-121306678D02*
X142964285Y-121592392D01*
X142964285Y-121592392D02*
X143107143Y-121806678D01*
X143107143Y-121806678D02*
X143321428Y-121949535D01*
X143321428Y-121949535D02*
X143607143Y-122020964D01*
X143607143Y-122020964D02*
X143892857Y-121949535D01*
X143892857Y-121949535D02*
X144107143Y-121806678D01*
X144892856Y-121806678D02*
X144892856Y-120806678D01*
X144892856Y-121092392D02*
X144964285Y-120949535D01*
X144964285Y-120949535D02*
X145035714Y-120878107D01*
X145035714Y-120878107D02*
X145178571Y-120806678D01*
X145178571Y-120806678D02*
X145321428Y-120806678D01*
X146035713Y-121806678D02*
X145892856Y-121735250D01*
X145892856Y-121735250D02*
X145821427Y-121663821D01*
X145821427Y-121663821D02*
X145749999Y-121520964D01*
X145749999Y-121520964D02*
X145749999Y-121092392D01*
X145749999Y-121092392D02*
X145821427Y-120949535D01*
X145821427Y-120949535D02*
X145892856Y-120878107D01*
X145892856Y-120878107D02*
X146035713Y-120806678D01*
X146035713Y-120806678D02*
X146249999Y-120806678D01*
X146249999Y-120806678D02*
X146392856Y-120878107D01*
X146392856Y-120878107D02*
X146464285Y-120949535D01*
X146464285Y-120949535D02*
X146535713Y-121092392D01*
X146535713Y-121092392D02*
X146535713Y-121520964D01*
X146535713Y-121520964D02*
X146464285Y-121663821D01*
X146464285Y-121663821D02*
X146392856Y-121735250D01*
X146392856Y-121735250D02*
X146249999Y-121806678D01*
X146249999Y-121806678D02*
X146035713Y-121806678D01*
X147178570Y-121806678D02*
X147178570Y-120306678D01*
X147178570Y-120878107D02*
X147321428Y-120806678D01*
X147321428Y-120806678D02*
X147607142Y-120806678D01*
X147607142Y-120806678D02*
X147749999Y-120878107D01*
X147749999Y-120878107D02*
X147821428Y-120949535D01*
X147821428Y-120949535D02*
X147892856Y-121092392D01*
X147892856Y-121092392D02*
X147892856Y-121520964D01*
X147892856Y-121520964D02*
X147821428Y-121663821D01*
X147821428Y-121663821D02*
X147749999Y-121735250D01*
X147749999Y-121735250D02*
X147607142Y-121806678D01*
X147607142Y-121806678D02*
X147321428Y-121806678D01*
X147321428Y-121806678D02*
X147178570Y-121735250D01*
X148749999Y-121806678D02*
X148607142Y-121735250D01*
X148607142Y-121735250D02*
X148535713Y-121663821D01*
X148535713Y-121663821D02*
X148464285Y-121520964D01*
X148464285Y-121520964D02*
X148464285Y-121092392D01*
X148464285Y-121092392D02*
X148535713Y-120949535D01*
X148535713Y-120949535D02*
X148607142Y-120878107D01*
X148607142Y-120878107D02*
X148749999Y-120806678D01*
X148749999Y-120806678D02*
X148964285Y-120806678D01*
X148964285Y-120806678D02*
X149107142Y-120878107D01*
X149107142Y-120878107D02*
X149178571Y-120949535D01*
X149178571Y-120949535D02*
X149249999Y-121092392D01*
X149249999Y-121092392D02*
X149249999Y-121520964D01*
X149249999Y-121520964D02*
X149178571Y-121663821D01*
X149178571Y-121663821D02*
X149107142Y-121735250D01*
X149107142Y-121735250D02*
X148964285Y-121806678D01*
X148964285Y-121806678D02*
X148749999Y-121806678D01*
X149678571Y-120806678D02*
X150249999Y-120806678D01*
X149892856Y-120306678D02*
X149892856Y-121592392D01*
X149892856Y-121592392D02*
X149964285Y-121735250D01*
X149964285Y-121735250D02*
X150107142Y-121806678D01*
X150107142Y-121806678D02*
X150249999Y-121806678D01*
X150964285Y-121806678D02*
X150821428Y-121735250D01*
X150821428Y-121735250D02*
X150749999Y-121663821D01*
X150749999Y-121663821D02*
X150678571Y-121520964D01*
X150678571Y-121520964D02*
X150678571Y-121092392D01*
X150678571Y-121092392D02*
X150749999Y-120949535D01*
X150749999Y-120949535D02*
X150821428Y-120878107D01*
X150821428Y-120878107D02*
X150964285Y-120806678D01*
X150964285Y-120806678D02*
X151178571Y-120806678D01*
X151178571Y-120806678D02*
X151321428Y-120878107D01*
X151321428Y-120878107D02*
X151392857Y-120949535D01*
X151392857Y-120949535D02*
X151464285Y-121092392D01*
X151464285Y-121092392D02*
X151464285Y-121520964D01*
X151464285Y-121520964D02*
X151392857Y-121663821D01*
X151392857Y-121663821D02*
X151321428Y-121735250D01*
X151321428Y-121735250D02*
X151178571Y-121806678D01*
X151178571Y-121806678D02*
X150964285Y-121806678D01*
X152107142Y-120806678D02*
X152107142Y-122306678D01*
X152107142Y-120878107D02*
X152250000Y-120806678D01*
X152250000Y-120806678D02*
X152535714Y-120806678D01*
X152535714Y-120806678D02*
X152678571Y-120878107D01*
X152678571Y-120878107D02*
X152750000Y-120949535D01*
X152750000Y-120949535D02*
X152821428Y-121092392D01*
X152821428Y-121092392D02*
X152821428Y-121520964D01*
X152821428Y-121520964D02*
X152750000Y-121663821D01*
X152750000Y-121663821D02*
X152678571Y-121735250D01*
X152678571Y-121735250D02*
X152535714Y-121806678D01*
X152535714Y-121806678D02*
X152250000Y-121806678D01*
X152250000Y-121806678D02*
X152107142Y-121735250D01*
X154107143Y-121806678D02*
X154107143Y-120306678D01*
X154107143Y-121735250D02*
X153964285Y-121806678D01*
X153964285Y-121806678D02*
X153678571Y-121806678D01*
X153678571Y-121806678D02*
X153535714Y-121735250D01*
X153535714Y-121735250D02*
X153464285Y-121663821D01*
X153464285Y-121663821D02*
X153392857Y-121520964D01*
X153392857Y-121520964D02*
X153392857Y-121092392D01*
X153392857Y-121092392D02*
X153464285Y-120949535D01*
X153464285Y-120949535D02*
X153535714Y-120878107D01*
X153535714Y-120878107D02*
X153678571Y-120806678D01*
X153678571Y-120806678D02*
X153964285Y-120806678D01*
X153964285Y-120806678D02*
X154107143Y-120878107D01*
X154678571Y-121806678D02*
X155464286Y-120806678D01*
X154678571Y-120806678D02*
X155464286Y-121806678D01*
D11*
X136661905Y-82769104D02*
X137138095Y-82769104D01*
X136566667Y-83054819D02*
X136900000Y-82054819D01*
X136900000Y-82054819D02*
X137233333Y-83054819D01*
X137328572Y-83150057D02*
X138090476Y-83150057D01*
X138900000Y-83054819D02*
X138566667Y-82578628D01*
X138328572Y-83054819D02*
X138328572Y-82054819D01*
X138328572Y-82054819D02*
X138709524Y-82054819D01*
X138709524Y-82054819D02*
X138804762Y-82102438D01*
X138804762Y-82102438D02*
X138852381Y-82150057D01*
X138852381Y-82150057D02*
X138900000Y-82245295D01*
X138900000Y-82245295D02*
X138900000Y-82388152D01*
X138900000Y-82388152D02*
X138852381Y-82483390D01*
X138852381Y-82483390D02*
X138804762Y-82531009D01*
X138804762Y-82531009D02*
X138709524Y-82578628D01*
X138709524Y-82578628D02*
X138328572Y-82578628D01*
X139328572Y-82673866D02*
X140090477Y-82673866D01*
X138885714Y-72319259D02*
X139219047Y-72795450D01*
X139457142Y-72319259D02*
X139457142Y-73319259D01*
X139457142Y-73319259D02*
X139076190Y-73319259D01*
X139076190Y-73319259D02*
X138980952Y-73271640D01*
X138980952Y-73271640D02*
X138933333Y-73224021D01*
X138933333Y-73224021D02*
X138885714Y-73128783D01*
X138885714Y-73128783D02*
X138885714Y-72985926D01*
X138885714Y-72985926D02*
X138933333Y-72890688D01*
X138933333Y-72890688D02*
X138980952Y-72843069D01*
X138980952Y-72843069D02*
X139076190Y-72795450D01*
X139076190Y-72795450D02*
X139457142Y-72795450D01*
X137933333Y-72319259D02*
X138504761Y-72319259D01*
X138219047Y-72319259D02*
X138219047Y-73319259D01*
X138219047Y-73319259D02*
X138314285Y-73176402D01*
X138314285Y-73176402D02*
X138409523Y-73081164D01*
X138409523Y-73081164D02*
X138504761Y-73033545D01*
X137504761Y-72700212D02*
X136742857Y-72700212D01*
X137123809Y-72319259D02*
X137123809Y-73081164D01*
X135802438Y-89595457D02*
X135754819Y-89690695D01*
X135754819Y-89690695D02*
X135754819Y-89833552D01*
X135754819Y-89833552D02*
X135802438Y-89976409D01*
X135802438Y-89976409D02*
X135897676Y-90071647D01*
X135897676Y-90071647D02*
X135992914Y-90119266D01*
X135992914Y-90119266D02*
X136183390Y-90166885D01*
X136183390Y-90166885D02*
X136326247Y-90166885D01*
X136326247Y-90166885D02*
X136516723Y-90119266D01*
X136516723Y-90119266D02*
X136611961Y-90071647D01*
X136611961Y-90071647D02*
X136707200Y-89976409D01*
X136707200Y-89976409D02*
X136754819Y-89833552D01*
X136754819Y-89833552D02*
X136754819Y-89738314D01*
X136754819Y-89738314D02*
X136707200Y-89595457D01*
X136707200Y-89595457D02*
X136659580Y-89547838D01*
X136659580Y-89547838D02*
X136326247Y-89547838D01*
X136326247Y-89547838D02*
X136326247Y-89738314D01*
X135754819Y-89214504D02*
X135754819Y-88595457D01*
X135754819Y-88595457D02*
X136135771Y-88928790D01*
X136135771Y-88928790D02*
X136135771Y-88785933D01*
X136135771Y-88785933D02*
X136183390Y-88690695D01*
X136183390Y-88690695D02*
X136231009Y-88643076D01*
X136231009Y-88643076D02*
X136326247Y-88595457D01*
X136326247Y-88595457D02*
X136564342Y-88595457D01*
X136564342Y-88595457D02*
X136659580Y-88643076D01*
X136659580Y-88643076D02*
X136707200Y-88690695D01*
X136707200Y-88690695D02*
X136754819Y-88785933D01*
X136754819Y-88785933D02*
X136754819Y-89071647D01*
X136754819Y-89071647D02*
X136707200Y-89166885D01*
X136707200Y-89166885D02*
X136659580Y-89214504D01*
X136373866Y-88166885D02*
X136373866Y-87404981D01*
X136754819Y-87785933D02*
X135992914Y-87785933D01*
D10*
X176290479Y-106958267D02*
X176290479Y-105958267D01*
X176290479Y-105958267D02*
X176528574Y-105958267D01*
X176528574Y-105958267D02*
X176671431Y-106005886D01*
X176671431Y-106005886D02*
X176766669Y-106101124D01*
X176766669Y-106101124D02*
X176814288Y-106196362D01*
X176814288Y-106196362D02*
X176861907Y-106386838D01*
X176861907Y-106386838D02*
X176861907Y-106529695D01*
X176861907Y-106529695D02*
X176814288Y-106720171D01*
X176814288Y-106720171D02*
X176766669Y-106815409D01*
X176766669Y-106815409D02*
X176671431Y-106910648D01*
X176671431Y-106910648D02*
X176528574Y-106958267D01*
X176528574Y-106958267D02*
X176290479Y-106958267D01*
X177719050Y-106291600D02*
X177719050Y-106958267D01*
X177480955Y-105910648D02*
X177242860Y-106624933D01*
X177242860Y-106624933D02*
X177861907Y-106624933D01*
X172252458Y-107913267D02*
X172252458Y-108722790D01*
X172252458Y-108722790D02*
X172300077Y-108818028D01*
X172300077Y-108818028D02*
X172347696Y-108865648D01*
X172347696Y-108865648D02*
X172442934Y-108913267D01*
X172442934Y-108913267D02*
X172633410Y-108913267D01*
X172633410Y-108913267D02*
X172728648Y-108865648D01*
X172728648Y-108865648D02*
X172776267Y-108818028D01*
X172776267Y-108818028D02*
X172823886Y-108722790D01*
X172823886Y-108722790D02*
X172823886Y-107913267D01*
X173157220Y-107913267D02*
X173490553Y-108913267D01*
X173490553Y-108913267D02*
X173823886Y-107913267D01*
X173919125Y-109008505D02*
X174681029Y-109008505D01*
X175395315Y-108913267D02*
X174919125Y-108913267D01*
X174919125Y-108913267D02*
X174919125Y-107913267D01*
X175728649Y-108389457D02*
X176061982Y-108389457D01*
X176204839Y-108913267D02*
X175728649Y-108913267D01*
X175728649Y-108913267D02*
X175728649Y-107913267D01*
X175728649Y-107913267D02*
X176204839Y-107913267D01*
X176633411Y-108913267D02*
X176633411Y-107913267D01*
X176633411Y-107913267D02*
X176871506Y-107913267D01*
X176871506Y-107913267D02*
X177014363Y-107960886D01*
X177014363Y-107960886D02*
X177109601Y-108056124D01*
X177109601Y-108056124D02*
X177157220Y-108151362D01*
X177157220Y-108151362D02*
X177204839Y-108341838D01*
X177204839Y-108341838D02*
X177204839Y-108484695D01*
X177204839Y-108484695D02*
X177157220Y-108675171D01*
X177157220Y-108675171D02*
X177109601Y-108770409D01*
X177109601Y-108770409D02*
X177014363Y-108865648D01*
X177014363Y-108865648D02*
X176871506Y-108913267D01*
X176871506Y-108913267D02*
X176633411Y-108913267D01*
X177395316Y-109008505D02*
X178157220Y-109008505D01*
X178871506Y-107913267D02*
X178395316Y-107913267D01*
X178395316Y-107913267D02*
X178347697Y-108389457D01*
X178347697Y-108389457D02*
X178395316Y-108341838D01*
X178395316Y-108341838D02*
X178490554Y-108294219D01*
X178490554Y-108294219D02*
X178728649Y-108294219D01*
X178728649Y-108294219D02*
X178823887Y-108341838D01*
X178823887Y-108341838D02*
X178871506Y-108389457D01*
X178871506Y-108389457D02*
X178919125Y-108484695D01*
X178919125Y-108484695D02*
X178919125Y-108722790D01*
X178919125Y-108722790D02*
X178871506Y-108818028D01*
X178871506Y-108818028D02*
X178823887Y-108865648D01*
X178823887Y-108865648D02*
X178728649Y-108913267D01*
X178728649Y-108913267D02*
X178490554Y-108913267D01*
X178490554Y-108913267D02*
X178395316Y-108865648D01*
X178395316Y-108865648D02*
X178347697Y-108818028D01*
X179252459Y-107913267D02*
X179490554Y-108913267D01*
X179490554Y-108913267D02*
X179681030Y-108198981D01*
X179681030Y-108198981D02*
X179871506Y-108913267D01*
X179871506Y-108913267D02*
X180109602Y-107913267D01*
D11*
X130484666Y-51280438D02*
X130389428Y-51232819D01*
X130389428Y-51232819D02*
X130246571Y-51232819D01*
X130246571Y-51232819D02*
X130103714Y-51280438D01*
X130103714Y-51280438D02*
X130008476Y-51375676D01*
X130008476Y-51375676D02*
X129960857Y-51470914D01*
X129960857Y-51470914D02*
X129913238Y-51661390D01*
X129913238Y-51661390D02*
X129913238Y-51804247D01*
X129913238Y-51804247D02*
X129960857Y-51994723D01*
X129960857Y-51994723D02*
X130008476Y-52089961D01*
X130008476Y-52089961D02*
X130103714Y-52185200D01*
X130103714Y-52185200D02*
X130246571Y-52232819D01*
X130246571Y-52232819D02*
X130341809Y-52232819D01*
X130341809Y-52232819D02*
X130484666Y-52185200D01*
X130484666Y-52185200D02*
X130532285Y-52137580D01*
X130532285Y-52137580D02*
X130532285Y-51804247D01*
X130532285Y-51804247D02*
X130341809Y-51804247D01*
X131484666Y-52232819D02*
X130913238Y-52232819D01*
X131198952Y-52232819D02*
X131198952Y-51232819D01*
X131198952Y-51232819D02*
X131103714Y-51375676D01*
X131103714Y-51375676D02*
X131008476Y-51470914D01*
X131008476Y-51470914D02*
X130913238Y-51518533D01*
X131913238Y-51851866D02*
X132675143Y-51851866D01*
X158197561Y-88666666D02*
X158245180Y-88571428D01*
X158245180Y-88571428D02*
X158245180Y-88428571D01*
X158245180Y-88428571D02*
X158197561Y-88285714D01*
X158197561Y-88285714D02*
X158102323Y-88190476D01*
X158102323Y-88190476D02*
X158007085Y-88142857D01*
X158007085Y-88142857D02*
X157816609Y-88095238D01*
X157816609Y-88095238D02*
X157673752Y-88095238D01*
X157673752Y-88095238D02*
X157483276Y-88142857D01*
X157483276Y-88142857D02*
X157388038Y-88190476D01*
X157388038Y-88190476D02*
X157292800Y-88285714D01*
X157292800Y-88285714D02*
X157245180Y-88428571D01*
X157245180Y-88428571D02*
X157245180Y-88523809D01*
X157245180Y-88523809D02*
X157292800Y-88666666D01*
X157292800Y-88666666D02*
X157340419Y-88714285D01*
X157340419Y-88714285D02*
X157673752Y-88714285D01*
X157673752Y-88714285D02*
X157673752Y-88523809D01*
X158245180Y-89047619D02*
X158245180Y-89666666D01*
X158245180Y-89666666D02*
X157864228Y-89333333D01*
X157864228Y-89333333D02*
X157864228Y-89476190D01*
X157864228Y-89476190D02*
X157816609Y-89571428D01*
X157816609Y-89571428D02*
X157768990Y-89619047D01*
X157768990Y-89619047D02*
X157673752Y-89666666D01*
X157673752Y-89666666D02*
X157435657Y-89666666D01*
X157435657Y-89666666D02*
X157340419Y-89619047D01*
X157340419Y-89619047D02*
X157292800Y-89571428D01*
X157292800Y-89571428D02*
X157245180Y-89476190D01*
X157245180Y-89476190D02*
X157245180Y-89190476D01*
X157245180Y-89190476D02*
X157292800Y-89095238D01*
X157292800Y-89095238D02*
X157340419Y-89047619D01*
X157626133Y-90095238D02*
X157626133Y-90857143D01*
X135754819Y-93693298D02*
X136754819Y-93455203D01*
X136754819Y-93455203D02*
X136040533Y-93264727D01*
X136040533Y-93264727D02*
X136754819Y-93074251D01*
X136754819Y-93074251D02*
X135754819Y-92836156D01*
X135754819Y-92550441D02*
X135754819Y-91931394D01*
X135754819Y-91931394D02*
X136135771Y-92264727D01*
X136135771Y-92264727D02*
X136135771Y-92121870D01*
X136135771Y-92121870D02*
X136183390Y-92026632D01*
X136183390Y-92026632D02*
X136231009Y-91979013D01*
X136231009Y-91979013D02*
X136326247Y-91931394D01*
X136326247Y-91931394D02*
X136564342Y-91931394D01*
X136564342Y-91931394D02*
X136659580Y-91979013D01*
X136659580Y-91979013D02*
X136707200Y-92026632D01*
X136707200Y-92026632D02*
X136754819Y-92121870D01*
X136754819Y-92121870D02*
X136754819Y-92407584D01*
X136754819Y-92407584D02*
X136707200Y-92502822D01*
X136707200Y-92502822D02*
X136659580Y-92550441D01*
X136373866Y-91502822D02*
X136373866Y-90740918D01*
X136754819Y-91121870D02*
X135992914Y-91121870D01*
X129794191Y-53772819D02*
X130032286Y-54772819D01*
X130032286Y-54772819D02*
X130222762Y-54058533D01*
X130222762Y-54058533D02*
X130413238Y-54772819D01*
X130413238Y-54772819D02*
X130651334Y-53772819D01*
X131556095Y-54772819D02*
X130984667Y-54772819D01*
X131270381Y-54772819D02*
X131270381Y-53772819D01*
X131270381Y-53772819D02*
X131175143Y-53915676D01*
X131175143Y-53915676D02*
X131079905Y-54010914D01*
X131079905Y-54010914D02*
X130984667Y-54058533D01*
X131984667Y-54391866D02*
X132746572Y-54391866D01*
X136754819Y-96506038D02*
X136278628Y-96839371D01*
X136754819Y-97077466D02*
X135754819Y-97077466D01*
X135754819Y-97077466D02*
X135754819Y-96696514D01*
X135754819Y-96696514D02*
X135802438Y-96601276D01*
X135802438Y-96601276D02*
X135850057Y-96553657D01*
X135850057Y-96553657D02*
X135945295Y-96506038D01*
X135945295Y-96506038D02*
X136088152Y-96506038D01*
X136088152Y-96506038D02*
X136183390Y-96553657D01*
X136183390Y-96553657D02*
X136231009Y-96601276D01*
X136231009Y-96601276D02*
X136278628Y-96696514D01*
X136278628Y-96696514D02*
X136278628Y-97077466D01*
X135754819Y-96172704D02*
X135754819Y-95553657D01*
X135754819Y-95553657D02*
X136135771Y-95886990D01*
X136135771Y-95886990D02*
X136135771Y-95744133D01*
X136135771Y-95744133D02*
X136183390Y-95648895D01*
X136183390Y-95648895D02*
X136231009Y-95601276D01*
X136231009Y-95601276D02*
X136326247Y-95553657D01*
X136326247Y-95553657D02*
X136564342Y-95553657D01*
X136564342Y-95553657D02*
X136659580Y-95601276D01*
X136659580Y-95601276D02*
X136707200Y-95648895D01*
X136707200Y-95648895D02*
X136754819Y-95744133D01*
X136754819Y-95744133D02*
X136754819Y-96029847D01*
X136754819Y-96029847D02*
X136707200Y-96125085D01*
X136707200Y-96125085D02*
X136659580Y-96172704D01*
X136373866Y-95125085D02*
X136373866Y-94363181D01*
X136754819Y-94744133D02*
X135992914Y-94744133D01*
D10*
X147018189Y-136626668D02*
X147018189Y-135626668D01*
X147018189Y-135626668D02*
X147256284Y-135626668D01*
X147256284Y-135626668D02*
X147399141Y-135674287D01*
X147399141Y-135674287D02*
X147494379Y-135769525D01*
X147494379Y-135769525D02*
X147541998Y-135864763D01*
X147541998Y-135864763D02*
X147589617Y-136055239D01*
X147589617Y-136055239D02*
X147589617Y-136198096D01*
X147589617Y-136198096D02*
X147541998Y-136388572D01*
X147541998Y-136388572D02*
X147494379Y-136483810D01*
X147494379Y-136483810D02*
X147399141Y-136579049D01*
X147399141Y-136579049D02*
X147256284Y-136626668D01*
X147256284Y-136626668D02*
X147018189Y-136626668D01*
X147922951Y-135626668D02*
X148541998Y-135626668D01*
X148541998Y-135626668D02*
X148208665Y-136007620D01*
X148208665Y-136007620D02*
X148351522Y-136007620D01*
X148351522Y-136007620D02*
X148446760Y-136055239D01*
X148446760Y-136055239D02*
X148494379Y-136102858D01*
X148494379Y-136102858D02*
X148541998Y-136198096D01*
X148541998Y-136198096D02*
X148541998Y-136436191D01*
X148541998Y-136436191D02*
X148494379Y-136531429D01*
X148494379Y-136531429D02*
X148446760Y-136579049D01*
X148446760Y-136579049D02*
X148351522Y-136626668D01*
X148351522Y-136626668D02*
X148065808Y-136626668D01*
X148065808Y-136626668D02*
X147970570Y-136579049D01*
X147970570Y-136579049D02*
X147922951Y-136531429D01*
X141225805Y-135183469D02*
X141321043Y-135231088D01*
X141321043Y-135231088D02*
X141463900Y-135231088D01*
X141463900Y-135231088D02*
X141606757Y-135183469D01*
X141606757Y-135183469D02*
X141701995Y-135088231D01*
X141701995Y-135088231D02*
X141749614Y-134992993D01*
X141749614Y-134992993D02*
X141797233Y-134802517D01*
X141797233Y-134802517D02*
X141797233Y-134659660D01*
X141797233Y-134659660D02*
X141749614Y-134469184D01*
X141749614Y-134469184D02*
X141701995Y-134373946D01*
X141701995Y-134373946D02*
X141606757Y-134278708D01*
X141606757Y-134278708D02*
X141463900Y-134231088D01*
X141463900Y-134231088D02*
X141368662Y-134231088D01*
X141368662Y-134231088D02*
X141225805Y-134278708D01*
X141225805Y-134278708D02*
X141178186Y-134326327D01*
X141178186Y-134326327D02*
X141178186Y-134659660D01*
X141178186Y-134659660D02*
X141368662Y-134659660D01*
X140749614Y-134612041D02*
X139987710Y-134612041D01*
X140368662Y-134231088D02*
X140368662Y-134992993D01*
D11*
X136231009Y-100402568D02*
X136278628Y-100259711D01*
X136278628Y-100259711D02*
X136326247Y-100212092D01*
X136326247Y-100212092D02*
X136421485Y-100164473D01*
X136421485Y-100164473D02*
X136564342Y-100164473D01*
X136564342Y-100164473D02*
X136659580Y-100212092D01*
X136659580Y-100212092D02*
X136707200Y-100259711D01*
X136707200Y-100259711D02*
X136754819Y-100354949D01*
X136754819Y-100354949D02*
X136754819Y-100735901D01*
X136754819Y-100735901D02*
X135754819Y-100735901D01*
X135754819Y-100735901D02*
X135754819Y-100402568D01*
X135754819Y-100402568D02*
X135802438Y-100307330D01*
X135802438Y-100307330D02*
X135850057Y-100259711D01*
X135850057Y-100259711D02*
X135945295Y-100212092D01*
X135945295Y-100212092D02*
X136040533Y-100212092D01*
X136040533Y-100212092D02*
X136135771Y-100259711D01*
X136135771Y-100259711D02*
X136183390Y-100307330D01*
X136183390Y-100307330D02*
X136231009Y-100402568D01*
X136231009Y-100402568D02*
X136231009Y-100735901D01*
X135754819Y-99831139D02*
X135754819Y-99212092D01*
X135754819Y-99212092D02*
X136135771Y-99545425D01*
X136135771Y-99545425D02*
X136135771Y-99402568D01*
X136135771Y-99402568D02*
X136183390Y-99307330D01*
X136183390Y-99307330D02*
X136231009Y-99259711D01*
X136231009Y-99259711D02*
X136326247Y-99212092D01*
X136326247Y-99212092D02*
X136564342Y-99212092D01*
X136564342Y-99212092D02*
X136659580Y-99259711D01*
X136659580Y-99259711D02*
X136707200Y-99307330D01*
X136707200Y-99307330D02*
X136754819Y-99402568D01*
X136754819Y-99402568D02*
X136754819Y-99688282D01*
X136754819Y-99688282D02*
X136707200Y-99783520D01*
X136707200Y-99783520D02*
X136659580Y-99831139D01*
X136373866Y-98783520D02*
X136373866Y-98021616D01*
X136754819Y-98402568D02*
X135992914Y-98402568D01*
X157768990Y-98661828D02*
X157721371Y-98804685D01*
X157721371Y-98804685D02*
X157673752Y-98852304D01*
X157673752Y-98852304D02*
X157578514Y-98899923D01*
X157578514Y-98899923D02*
X157435657Y-98899923D01*
X157435657Y-98899923D02*
X157340419Y-98852304D01*
X157340419Y-98852304D02*
X157292800Y-98804685D01*
X157292800Y-98804685D02*
X157245180Y-98709447D01*
X157245180Y-98709447D02*
X157245180Y-98328495D01*
X157245180Y-98328495D02*
X158245180Y-98328495D01*
X158245180Y-98328495D02*
X158245180Y-98661828D01*
X158245180Y-98661828D02*
X158197561Y-98757066D01*
X158197561Y-98757066D02*
X158149942Y-98804685D01*
X158149942Y-98804685D02*
X158054704Y-98852304D01*
X158054704Y-98852304D02*
X157959466Y-98852304D01*
X157959466Y-98852304D02*
X157864228Y-98804685D01*
X157864228Y-98804685D02*
X157816609Y-98757066D01*
X157816609Y-98757066D02*
X157768990Y-98661828D01*
X157768990Y-98661828D02*
X157768990Y-98328495D01*
X158245180Y-99233257D02*
X158245180Y-99852304D01*
X158245180Y-99852304D02*
X157864228Y-99518971D01*
X157864228Y-99518971D02*
X157864228Y-99661828D01*
X157864228Y-99661828D02*
X157816609Y-99757066D01*
X157816609Y-99757066D02*
X157768990Y-99804685D01*
X157768990Y-99804685D02*
X157673752Y-99852304D01*
X157673752Y-99852304D02*
X157435657Y-99852304D01*
X157435657Y-99852304D02*
X157340419Y-99804685D01*
X157340419Y-99804685D02*
X157292800Y-99757066D01*
X157292800Y-99757066D02*
X157245180Y-99661828D01*
X157245180Y-99661828D02*
X157245180Y-99376114D01*
X157245180Y-99376114D02*
X157292800Y-99280876D01*
X157292800Y-99280876D02*
X157340419Y-99233257D01*
X157626133Y-100280876D02*
X157626133Y-101042781D01*
D10*
X125041309Y-73361152D02*
X125041309Y-74361152D01*
X125041309Y-74361152D02*
X124803214Y-74361152D01*
X124803214Y-74361152D02*
X124660357Y-74313533D01*
X124660357Y-74313533D02*
X124565119Y-74218295D01*
X124565119Y-74218295D02*
X124517500Y-74123057D01*
X124517500Y-74123057D02*
X124469881Y-73932581D01*
X124469881Y-73932581D02*
X124469881Y-73789724D01*
X124469881Y-73789724D02*
X124517500Y-73599248D01*
X124517500Y-73599248D02*
X124565119Y-73504010D01*
X124565119Y-73504010D02*
X124660357Y-73408772D01*
X124660357Y-73408772D02*
X124803214Y-73361152D01*
X124803214Y-73361152D02*
X125041309Y-73361152D01*
X123517500Y-73361152D02*
X124088928Y-73361152D01*
X123803214Y-73361152D02*
X123803214Y-74361152D01*
X123803214Y-74361152D02*
X123898452Y-74218295D01*
X123898452Y-74218295D02*
X123993690Y-74123057D01*
X123993690Y-74123057D02*
X124088928Y-74075438D01*
X125130908Y-75309567D02*
X125035670Y-75261948D01*
X125035670Y-75261948D02*
X124892813Y-75261948D01*
X124892813Y-75261948D02*
X124749956Y-75309567D01*
X124749956Y-75309567D02*
X124654718Y-75404805D01*
X124654718Y-75404805D02*
X124607099Y-75500043D01*
X124607099Y-75500043D02*
X124559480Y-75690519D01*
X124559480Y-75690519D02*
X124559480Y-75833376D01*
X124559480Y-75833376D02*
X124607099Y-76023852D01*
X124607099Y-76023852D02*
X124654718Y-76119090D01*
X124654718Y-76119090D02*
X124749956Y-76214329D01*
X124749956Y-76214329D02*
X124892813Y-76261948D01*
X124892813Y-76261948D02*
X124988051Y-76261948D01*
X124988051Y-76261948D02*
X125130908Y-76214329D01*
X125130908Y-76214329D02*
X125178527Y-76166709D01*
X125178527Y-76166709D02*
X125178527Y-75833376D01*
X125178527Y-75833376D02*
X124988051Y-75833376D01*
X125607099Y-75880995D02*
X126369004Y-75880995D01*
X125988051Y-76261948D02*
X125988051Y-75500043D01*
D11*
X130294190Y-59329009D02*
X130437047Y-59376628D01*
X130437047Y-59376628D02*
X130484666Y-59424247D01*
X130484666Y-59424247D02*
X130532285Y-59519485D01*
X130532285Y-59519485D02*
X130532285Y-59662342D01*
X130532285Y-59662342D02*
X130484666Y-59757580D01*
X130484666Y-59757580D02*
X130437047Y-59805200D01*
X130437047Y-59805200D02*
X130341809Y-59852819D01*
X130341809Y-59852819D02*
X129960857Y-59852819D01*
X129960857Y-59852819D02*
X129960857Y-58852819D01*
X129960857Y-58852819D02*
X130294190Y-58852819D01*
X130294190Y-58852819D02*
X130389428Y-58900438D01*
X130389428Y-58900438D02*
X130437047Y-58948057D01*
X130437047Y-58948057D02*
X130484666Y-59043295D01*
X130484666Y-59043295D02*
X130484666Y-59138533D01*
X130484666Y-59138533D02*
X130437047Y-59233771D01*
X130437047Y-59233771D02*
X130389428Y-59281390D01*
X130389428Y-59281390D02*
X130294190Y-59329009D01*
X130294190Y-59329009D02*
X129960857Y-59329009D01*
X131484666Y-59852819D02*
X130913238Y-59852819D01*
X131198952Y-59852819D02*
X131198952Y-58852819D01*
X131198952Y-58852819D02*
X131103714Y-58995676D01*
X131103714Y-58995676D02*
X131008476Y-59090914D01*
X131008476Y-59090914D02*
X130913238Y-59138533D01*
X131913238Y-59471866D02*
X132675143Y-59471866D01*
X158245180Y-91418831D02*
X157245180Y-91656926D01*
X157245180Y-91656926D02*
X157959466Y-91847402D01*
X157959466Y-91847402D02*
X157245180Y-92037878D01*
X157245180Y-92037878D02*
X158245180Y-92275974D01*
X158245180Y-92561688D02*
X158245180Y-93180735D01*
X158245180Y-93180735D02*
X157864228Y-92847402D01*
X157864228Y-92847402D02*
X157864228Y-92990259D01*
X157864228Y-92990259D02*
X157816609Y-93085497D01*
X157816609Y-93085497D02*
X157768990Y-93133116D01*
X157768990Y-93133116D02*
X157673752Y-93180735D01*
X157673752Y-93180735D02*
X157435657Y-93180735D01*
X157435657Y-93180735D02*
X157340419Y-93133116D01*
X157340419Y-93133116D02*
X157292800Y-93085497D01*
X157292800Y-93085497D02*
X157245180Y-92990259D01*
X157245180Y-92990259D02*
X157245180Y-92704545D01*
X157245180Y-92704545D02*
X157292800Y-92609307D01*
X157292800Y-92609307D02*
X157340419Y-92561688D01*
X157626133Y-93609307D02*
X157626133Y-94371212D01*
X158312894Y-73274133D02*
X158074799Y-72274133D01*
X158074799Y-72274133D02*
X157884323Y-72988419D01*
X157884323Y-72988419D02*
X157693847Y-72274133D01*
X157693847Y-72274133D02*
X157455752Y-73274133D01*
X157122418Y-73178895D02*
X157074799Y-73226514D01*
X157074799Y-73226514D02*
X156979561Y-73274133D01*
X156979561Y-73274133D02*
X156741466Y-73274133D01*
X156741466Y-73274133D02*
X156646228Y-73226514D01*
X156646228Y-73226514D02*
X156598609Y-73178895D01*
X156598609Y-73178895D02*
X156550990Y-73083657D01*
X156550990Y-73083657D02*
X156550990Y-72988419D01*
X156550990Y-72988419D02*
X156598609Y-72845562D01*
X156598609Y-72845562D02*
X157170037Y-72274133D01*
X157170037Y-72274133D02*
X156550990Y-72274133D01*
X156122418Y-72655086D02*
X155360514Y-72655086D01*
X155741466Y-72274133D02*
X155741466Y-73036038D01*
X162276190Y-51531009D02*
X162419047Y-51578628D01*
X162419047Y-51578628D02*
X162466666Y-51626247D01*
X162466666Y-51626247D02*
X162514285Y-51721485D01*
X162514285Y-51721485D02*
X162514285Y-51864342D01*
X162514285Y-51864342D02*
X162466666Y-51959580D01*
X162466666Y-51959580D02*
X162419047Y-52007200D01*
X162419047Y-52007200D02*
X162323809Y-52054819D01*
X162323809Y-52054819D02*
X161942857Y-52054819D01*
X161942857Y-52054819D02*
X161942857Y-51054819D01*
X161942857Y-51054819D02*
X162276190Y-51054819D01*
X162276190Y-51054819D02*
X162371428Y-51102438D01*
X162371428Y-51102438D02*
X162419047Y-51150057D01*
X162419047Y-51150057D02*
X162466666Y-51245295D01*
X162466666Y-51245295D02*
X162466666Y-51340533D01*
X162466666Y-51340533D02*
X162419047Y-51435771D01*
X162419047Y-51435771D02*
X162371428Y-51483390D01*
X162371428Y-51483390D02*
X162276190Y-51531009D01*
X162276190Y-51531009D02*
X161942857Y-51531009D01*
X162895238Y-51150057D02*
X162942857Y-51102438D01*
X162942857Y-51102438D02*
X163038095Y-51054819D01*
X163038095Y-51054819D02*
X163276190Y-51054819D01*
X163276190Y-51054819D02*
X163371428Y-51102438D01*
X163371428Y-51102438D02*
X163419047Y-51150057D01*
X163419047Y-51150057D02*
X163466666Y-51245295D01*
X163466666Y-51245295D02*
X163466666Y-51340533D01*
X163466666Y-51340533D02*
X163419047Y-51483390D01*
X163419047Y-51483390D02*
X162847619Y-52054819D01*
X162847619Y-52054819D02*
X163466666Y-52054819D01*
X163895238Y-51673866D02*
X164657143Y-51673866D01*
X162466666Y-58902438D02*
X162371428Y-58854819D01*
X162371428Y-58854819D02*
X162228571Y-58854819D01*
X162228571Y-58854819D02*
X162085714Y-58902438D01*
X162085714Y-58902438D02*
X161990476Y-58997676D01*
X161990476Y-58997676D02*
X161942857Y-59092914D01*
X161942857Y-59092914D02*
X161895238Y-59283390D01*
X161895238Y-59283390D02*
X161895238Y-59426247D01*
X161895238Y-59426247D02*
X161942857Y-59616723D01*
X161942857Y-59616723D02*
X161990476Y-59711961D01*
X161990476Y-59711961D02*
X162085714Y-59807200D01*
X162085714Y-59807200D02*
X162228571Y-59854819D01*
X162228571Y-59854819D02*
X162323809Y-59854819D01*
X162323809Y-59854819D02*
X162466666Y-59807200D01*
X162466666Y-59807200D02*
X162514285Y-59759580D01*
X162514285Y-59759580D02*
X162514285Y-59426247D01*
X162514285Y-59426247D02*
X162323809Y-59426247D01*
X162895238Y-58950057D02*
X162942857Y-58902438D01*
X162942857Y-58902438D02*
X163038095Y-58854819D01*
X163038095Y-58854819D02*
X163276190Y-58854819D01*
X163276190Y-58854819D02*
X163371428Y-58902438D01*
X163371428Y-58902438D02*
X163419047Y-58950057D01*
X163419047Y-58950057D02*
X163466666Y-59045295D01*
X163466666Y-59045295D02*
X163466666Y-59140533D01*
X163466666Y-59140533D02*
X163419047Y-59283390D01*
X163419047Y-59283390D02*
X162847619Y-59854819D01*
X162847619Y-59854819D02*
X163466666Y-59854819D01*
X163895238Y-59473866D02*
X164657143Y-59473866D01*
X139123809Y-75425494D02*
X138980952Y-75377875D01*
X138980952Y-75377875D02*
X138933333Y-75330256D01*
X138933333Y-75330256D02*
X138885714Y-75235018D01*
X138885714Y-75235018D02*
X138885714Y-75092161D01*
X138885714Y-75092161D02*
X138933333Y-74996923D01*
X138933333Y-74996923D02*
X138980952Y-74949304D01*
X138980952Y-74949304D02*
X139076190Y-74901684D01*
X139076190Y-74901684D02*
X139457142Y-74901684D01*
X139457142Y-74901684D02*
X139457142Y-75901684D01*
X139457142Y-75901684D02*
X139123809Y-75901684D01*
X139123809Y-75901684D02*
X139028571Y-75854065D01*
X139028571Y-75854065D02*
X138980952Y-75806446D01*
X138980952Y-75806446D02*
X138933333Y-75711208D01*
X138933333Y-75711208D02*
X138933333Y-75615970D01*
X138933333Y-75615970D02*
X138980952Y-75520732D01*
X138980952Y-75520732D02*
X139028571Y-75473113D01*
X139028571Y-75473113D02*
X139123809Y-75425494D01*
X139123809Y-75425494D02*
X139457142Y-75425494D01*
X137933333Y-74901684D02*
X138504761Y-74901684D01*
X138219047Y-74901684D02*
X138219047Y-75901684D01*
X138219047Y-75901684D02*
X138314285Y-75758827D01*
X138314285Y-75758827D02*
X138409523Y-75663589D01*
X138409523Y-75663589D02*
X138504761Y-75615970D01*
X137504761Y-75282637D02*
X136742857Y-75282637D01*
X137123809Y-74901684D02*
X137123809Y-75663589D01*
X157574799Y-69811265D02*
X157908132Y-70287456D01*
X158146227Y-69811265D02*
X158146227Y-70811265D01*
X158146227Y-70811265D02*
X157765275Y-70811265D01*
X157765275Y-70811265D02*
X157670037Y-70763646D01*
X157670037Y-70763646D02*
X157622418Y-70716027D01*
X157622418Y-70716027D02*
X157574799Y-70620789D01*
X157574799Y-70620789D02*
X157574799Y-70477932D01*
X157574799Y-70477932D02*
X157622418Y-70382694D01*
X157622418Y-70382694D02*
X157670037Y-70335075D01*
X157670037Y-70335075D02*
X157765275Y-70287456D01*
X157765275Y-70287456D02*
X158146227Y-70287456D01*
X157193846Y-70716027D02*
X157146227Y-70763646D01*
X157146227Y-70763646D02*
X157050989Y-70811265D01*
X157050989Y-70811265D02*
X156812894Y-70811265D01*
X156812894Y-70811265D02*
X156717656Y-70763646D01*
X156717656Y-70763646D02*
X156670037Y-70716027D01*
X156670037Y-70716027D02*
X156622418Y-70620789D01*
X156622418Y-70620789D02*
X156622418Y-70525551D01*
X156622418Y-70525551D02*
X156670037Y-70382694D01*
X156670037Y-70382694D02*
X157241465Y-69811265D01*
X157241465Y-69811265D02*
X156622418Y-69811265D01*
X156193846Y-70192218D02*
X155431942Y-70192218D01*
X155812894Y-69811265D02*
X155812894Y-70573170D01*
X155110271Y-81961780D02*
X155110271Y-82771303D01*
X155110271Y-82771303D02*
X155157890Y-82866541D01*
X155157890Y-82866541D02*
X155205509Y-82914161D01*
X155205509Y-82914161D02*
X155300747Y-82961780D01*
X155300747Y-82961780D02*
X155491223Y-82961780D01*
X155491223Y-82961780D02*
X155586461Y-82914161D01*
X155586461Y-82914161D02*
X155634080Y-82866541D01*
X155634080Y-82866541D02*
X155681699Y-82771303D01*
X155681699Y-82771303D02*
X155681699Y-81961780D01*
X156015033Y-81961780D02*
X156348366Y-82961780D01*
X156348366Y-82961780D02*
X156681699Y-81961780D01*
X157015033Y-82580827D02*
X157776938Y-82580827D01*
X157395985Y-82961780D02*
X157395985Y-82199875D01*
X136661905Y-85526878D02*
X137138095Y-85526878D01*
X136566667Y-85812593D02*
X136900000Y-84812593D01*
X136900000Y-84812593D02*
X137233333Y-85812593D01*
X137328572Y-85907831D02*
X138090476Y-85907831D01*
X138900000Y-85812593D02*
X138566667Y-85336402D01*
X138328572Y-85812593D02*
X138328572Y-84812593D01*
X138328572Y-84812593D02*
X138709524Y-84812593D01*
X138709524Y-84812593D02*
X138804762Y-84860212D01*
X138804762Y-84860212D02*
X138852381Y-84907831D01*
X138852381Y-84907831D02*
X138900000Y-85003069D01*
X138900000Y-85003069D02*
X138900000Y-85145926D01*
X138900000Y-85145926D02*
X138852381Y-85241164D01*
X138852381Y-85241164D02*
X138804762Y-85288783D01*
X138804762Y-85288783D02*
X138709524Y-85336402D01*
X138709524Y-85336402D02*
X138328572Y-85336402D01*
X139328572Y-85431640D02*
X140090477Y-85431640D01*
X139709524Y-85812593D02*
X139709524Y-85050688D01*
D10*
X175344161Y-86329909D02*
X175344161Y-85329909D01*
X175344161Y-85329909D02*
X175582256Y-85329909D01*
X175582256Y-85329909D02*
X175725113Y-85377528D01*
X175725113Y-85377528D02*
X175820351Y-85472766D01*
X175820351Y-85472766D02*
X175867970Y-85568004D01*
X175867970Y-85568004D02*
X175915589Y-85758480D01*
X175915589Y-85758480D02*
X175915589Y-85901337D01*
X175915589Y-85901337D02*
X175867970Y-86091813D01*
X175867970Y-86091813D02*
X175820351Y-86187051D01*
X175820351Y-86187051D02*
X175725113Y-86282290D01*
X175725113Y-86282290D02*
X175582256Y-86329909D01*
X175582256Y-86329909D02*
X175344161Y-86329909D01*
X176296542Y-85425147D02*
X176344161Y-85377528D01*
X176344161Y-85377528D02*
X176439399Y-85329909D01*
X176439399Y-85329909D02*
X176677494Y-85329909D01*
X176677494Y-85329909D02*
X176772732Y-85377528D01*
X176772732Y-85377528D02*
X176820351Y-85425147D01*
X176820351Y-85425147D02*
X176867970Y-85520385D01*
X176867970Y-85520385D02*
X176867970Y-85615623D01*
X176867970Y-85615623D02*
X176820351Y-85758480D01*
X176820351Y-85758480D02*
X176248923Y-86329909D01*
X176248923Y-86329909D02*
X176867970Y-86329909D01*
X169551777Y-84886710D02*
X169647015Y-84934329D01*
X169647015Y-84934329D02*
X169789872Y-84934329D01*
X169789872Y-84934329D02*
X169932729Y-84886710D01*
X169932729Y-84886710D02*
X170027967Y-84791472D01*
X170027967Y-84791472D02*
X170075586Y-84696234D01*
X170075586Y-84696234D02*
X170123205Y-84505758D01*
X170123205Y-84505758D02*
X170123205Y-84362901D01*
X170123205Y-84362901D02*
X170075586Y-84172425D01*
X170075586Y-84172425D02*
X170027967Y-84077187D01*
X170027967Y-84077187D02*
X169932729Y-83981949D01*
X169932729Y-83981949D02*
X169789872Y-83934329D01*
X169789872Y-83934329D02*
X169694634Y-83934329D01*
X169694634Y-83934329D02*
X169551777Y-83981949D01*
X169551777Y-83981949D02*
X169504158Y-84029568D01*
X169504158Y-84029568D02*
X169504158Y-84362901D01*
X169504158Y-84362901D02*
X169694634Y-84362901D01*
X169075586Y-84315282D02*
X168313682Y-84315282D01*
X168694634Y-83934329D02*
X168694634Y-84696234D01*
D11*
X157812894Y-67698850D02*
X157670037Y-67651231D01*
X157670037Y-67651231D02*
X157622418Y-67603612D01*
X157622418Y-67603612D02*
X157574799Y-67508374D01*
X157574799Y-67508374D02*
X157574799Y-67365517D01*
X157574799Y-67365517D02*
X157622418Y-67270279D01*
X157622418Y-67270279D02*
X157670037Y-67222660D01*
X157670037Y-67222660D02*
X157765275Y-67175040D01*
X157765275Y-67175040D02*
X158146227Y-67175040D01*
X158146227Y-67175040D02*
X158146227Y-68175040D01*
X158146227Y-68175040D02*
X157812894Y-68175040D01*
X157812894Y-68175040D02*
X157717656Y-68127421D01*
X157717656Y-68127421D02*
X157670037Y-68079802D01*
X157670037Y-68079802D02*
X157622418Y-67984564D01*
X157622418Y-67984564D02*
X157622418Y-67889326D01*
X157622418Y-67889326D02*
X157670037Y-67794088D01*
X157670037Y-67794088D02*
X157717656Y-67746469D01*
X157717656Y-67746469D02*
X157812894Y-67698850D01*
X157812894Y-67698850D02*
X158146227Y-67698850D01*
X157193846Y-68079802D02*
X157146227Y-68127421D01*
X157146227Y-68127421D02*
X157050989Y-68175040D01*
X157050989Y-68175040D02*
X156812894Y-68175040D01*
X156812894Y-68175040D02*
X156717656Y-68127421D01*
X156717656Y-68127421D02*
X156670037Y-68079802D01*
X156670037Y-68079802D02*
X156622418Y-67984564D01*
X156622418Y-67984564D02*
X156622418Y-67889326D01*
X156622418Y-67889326D02*
X156670037Y-67746469D01*
X156670037Y-67746469D02*
X157241465Y-67175040D01*
X157241465Y-67175040D02*
X156622418Y-67175040D01*
X156193846Y-67555993D02*
X155431942Y-67555993D01*
X155812894Y-67175040D02*
X155812894Y-67936945D01*
X157622418Y-75936466D02*
X157717656Y-75984085D01*
X157717656Y-75984085D02*
X157860513Y-75984085D01*
X157860513Y-75984085D02*
X158003370Y-75936466D01*
X158003370Y-75936466D02*
X158098608Y-75841228D01*
X158098608Y-75841228D02*
X158146227Y-75745990D01*
X158146227Y-75745990D02*
X158193846Y-75555514D01*
X158193846Y-75555514D02*
X158193846Y-75412657D01*
X158193846Y-75412657D02*
X158146227Y-75222181D01*
X158146227Y-75222181D02*
X158098608Y-75126943D01*
X158098608Y-75126943D02*
X158003370Y-75031705D01*
X158003370Y-75031705D02*
X157860513Y-74984085D01*
X157860513Y-74984085D02*
X157765275Y-74984085D01*
X157765275Y-74984085D02*
X157622418Y-75031705D01*
X157622418Y-75031705D02*
X157574799Y-75079324D01*
X157574799Y-75079324D02*
X157574799Y-75412657D01*
X157574799Y-75412657D02*
X157765275Y-75412657D01*
X157193846Y-75888847D02*
X157146227Y-75936466D01*
X157146227Y-75936466D02*
X157050989Y-75984085D01*
X157050989Y-75984085D02*
X156812894Y-75984085D01*
X156812894Y-75984085D02*
X156717656Y-75936466D01*
X156717656Y-75936466D02*
X156670037Y-75888847D01*
X156670037Y-75888847D02*
X156622418Y-75793609D01*
X156622418Y-75793609D02*
X156622418Y-75698371D01*
X156622418Y-75698371D02*
X156670037Y-75555514D01*
X156670037Y-75555514D02*
X157241465Y-74984085D01*
X157241465Y-74984085D02*
X156622418Y-74984085D01*
X156193846Y-75365038D02*
X155431942Y-75365038D01*
X155812894Y-74984085D02*
X155812894Y-75745990D01*
X155110271Y-84651806D02*
X155110271Y-85461329D01*
X155110271Y-85461329D02*
X155157890Y-85556567D01*
X155157890Y-85556567D02*
X155205509Y-85604187D01*
X155205509Y-85604187D02*
X155300747Y-85651806D01*
X155300747Y-85651806D02*
X155491223Y-85651806D01*
X155491223Y-85651806D02*
X155586461Y-85604187D01*
X155586461Y-85604187D02*
X155634080Y-85556567D01*
X155634080Y-85556567D02*
X155681699Y-85461329D01*
X155681699Y-85461329D02*
X155681699Y-84651806D01*
X156015033Y-84651806D02*
X156348366Y-85651806D01*
X156348366Y-85651806D02*
X156681699Y-84651806D01*
X157015033Y-85270853D02*
X157776938Y-85270853D01*
X161776191Y-56254819D02*
X162014286Y-57254819D01*
X162014286Y-57254819D02*
X162204762Y-56540533D01*
X162204762Y-56540533D02*
X162395238Y-57254819D01*
X162395238Y-57254819D02*
X162633334Y-56254819D01*
X162966667Y-56350057D02*
X163014286Y-56302438D01*
X163014286Y-56302438D02*
X163109524Y-56254819D01*
X163109524Y-56254819D02*
X163347619Y-56254819D01*
X163347619Y-56254819D02*
X163442857Y-56302438D01*
X163442857Y-56302438D02*
X163490476Y-56350057D01*
X163490476Y-56350057D02*
X163538095Y-56445295D01*
X163538095Y-56445295D02*
X163538095Y-56540533D01*
X163538095Y-56540533D02*
X163490476Y-56683390D01*
X163490476Y-56683390D02*
X162919048Y-57254819D01*
X162919048Y-57254819D02*
X163538095Y-57254819D01*
X163966667Y-56873866D02*
X164728572Y-56873866D01*
X157245180Y-95600158D02*
X157721371Y-95266825D01*
X157245180Y-95028730D02*
X158245180Y-95028730D01*
X158245180Y-95028730D02*
X158245180Y-95409682D01*
X158245180Y-95409682D02*
X158197561Y-95504920D01*
X158197561Y-95504920D02*
X158149942Y-95552539D01*
X158149942Y-95552539D02*
X158054704Y-95600158D01*
X158054704Y-95600158D02*
X157911847Y-95600158D01*
X157911847Y-95600158D02*
X157816609Y-95552539D01*
X157816609Y-95552539D02*
X157768990Y-95504920D01*
X157768990Y-95504920D02*
X157721371Y-95409682D01*
X157721371Y-95409682D02*
X157721371Y-95028730D01*
X158245180Y-95933492D02*
X158245180Y-96552539D01*
X158245180Y-96552539D02*
X157864228Y-96219206D01*
X157864228Y-96219206D02*
X157864228Y-96362063D01*
X157864228Y-96362063D02*
X157816609Y-96457301D01*
X157816609Y-96457301D02*
X157768990Y-96504920D01*
X157768990Y-96504920D02*
X157673752Y-96552539D01*
X157673752Y-96552539D02*
X157435657Y-96552539D01*
X157435657Y-96552539D02*
X157340419Y-96504920D01*
X157340419Y-96504920D02*
X157292800Y-96457301D01*
X157292800Y-96457301D02*
X157245180Y-96362063D01*
X157245180Y-96362063D02*
X157245180Y-96076349D01*
X157245180Y-96076349D02*
X157292800Y-95981111D01*
X157292800Y-95981111D02*
X157340419Y-95933492D01*
X157626133Y-96981111D02*
X157626133Y-97743016D01*
D10*
X116434861Y-106275686D02*
X116434861Y-105275686D01*
X116434861Y-105275686D02*
X116672956Y-105275686D01*
X116672956Y-105275686D02*
X116815813Y-105323305D01*
X116815813Y-105323305D02*
X116911051Y-105418543D01*
X116911051Y-105418543D02*
X116958670Y-105513781D01*
X116958670Y-105513781D02*
X117006289Y-105704257D01*
X117006289Y-105704257D02*
X117006289Y-105847114D01*
X117006289Y-105847114D02*
X116958670Y-106037590D01*
X116958670Y-106037590D02*
X116911051Y-106132828D01*
X116911051Y-106132828D02*
X116815813Y-106228067D01*
X116815813Y-106228067D02*
X116672956Y-106275686D01*
X116672956Y-106275686D02*
X116434861Y-106275686D01*
X117911051Y-105275686D02*
X117434861Y-105275686D01*
X117434861Y-105275686D02*
X117387242Y-105751876D01*
X117387242Y-105751876D02*
X117434861Y-105704257D01*
X117434861Y-105704257D02*
X117530099Y-105656638D01*
X117530099Y-105656638D02*
X117768194Y-105656638D01*
X117768194Y-105656638D02*
X117863432Y-105704257D01*
X117863432Y-105704257D02*
X117911051Y-105751876D01*
X117911051Y-105751876D02*
X117958670Y-105847114D01*
X117958670Y-105847114D02*
X117958670Y-106085209D01*
X117958670Y-106085209D02*
X117911051Y-106180447D01*
X117911051Y-106180447D02*
X117863432Y-106228067D01*
X117863432Y-106228067D02*
X117768194Y-106275686D01*
X117768194Y-106275686D02*
X117530099Y-106275686D01*
X117530099Y-106275686D02*
X117434861Y-106228067D01*
X117434861Y-106228067D02*
X117387242Y-106180447D01*
X112968268Y-108230686D02*
X112634935Y-107754495D01*
X112396840Y-108230686D02*
X112396840Y-107230686D01*
X112396840Y-107230686D02*
X112777792Y-107230686D01*
X112777792Y-107230686D02*
X112873030Y-107278305D01*
X112873030Y-107278305D02*
X112920649Y-107325924D01*
X112920649Y-107325924D02*
X112968268Y-107421162D01*
X112968268Y-107421162D02*
X112968268Y-107564019D01*
X112968268Y-107564019D02*
X112920649Y-107659257D01*
X112920649Y-107659257D02*
X112873030Y-107706876D01*
X112873030Y-107706876D02*
X112777792Y-107754495D01*
X112777792Y-107754495D02*
X112396840Y-107754495D01*
X113396840Y-107706876D02*
X113730173Y-107706876D01*
X113873030Y-108230686D02*
X113396840Y-108230686D01*
X113396840Y-108230686D02*
X113396840Y-107230686D01*
X113396840Y-107230686D02*
X113873030Y-107230686D01*
X114301602Y-108230686D02*
X114301602Y-107230686D01*
X114301602Y-107230686D02*
X114539697Y-107230686D01*
X114539697Y-107230686D02*
X114682554Y-107278305D01*
X114682554Y-107278305D02*
X114777792Y-107373543D01*
X114777792Y-107373543D02*
X114825411Y-107468781D01*
X114825411Y-107468781D02*
X114873030Y-107659257D01*
X114873030Y-107659257D02*
X114873030Y-107802114D01*
X114873030Y-107802114D02*
X114825411Y-107992590D01*
X114825411Y-107992590D02*
X114777792Y-108087828D01*
X114777792Y-108087828D02*
X114682554Y-108183067D01*
X114682554Y-108183067D02*
X114539697Y-108230686D01*
X114539697Y-108230686D02*
X114301602Y-108230686D01*
X115063507Y-108325924D02*
X115825411Y-108325924D01*
X116539697Y-108230686D02*
X116063507Y-108230686D01*
X116063507Y-108230686D02*
X116063507Y-107230686D01*
X116873031Y-107706876D02*
X117206364Y-107706876D01*
X117349221Y-108230686D02*
X116873031Y-108230686D01*
X116873031Y-108230686D02*
X116873031Y-107230686D01*
X116873031Y-107230686D02*
X117349221Y-107230686D01*
X117777793Y-108230686D02*
X117777793Y-107230686D01*
X117777793Y-107230686D02*
X118015888Y-107230686D01*
X118015888Y-107230686D02*
X118158745Y-107278305D01*
X118158745Y-107278305D02*
X118253983Y-107373543D01*
X118253983Y-107373543D02*
X118301602Y-107468781D01*
X118301602Y-107468781D02*
X118349221Y-107659257D01*
X118349221Y-107659257D02*
X118349221Y-107802114D01*
X118349221Y-107802114D02*
X118301602Y-107992590D01*
X118301602Y-107992590D02*
X118253983Y-108087828D01*
X118253983Y-108087828D02*
X118158745Y-108183067D01*
X118158745Y-108183067D02*
X118015888Y-108230686D01*
X118015888Y-108230686D02*
X117777793Y-108230686D01*
X118539698Y-108325924D02*
X119301602Y-108325924D01*
X120015888Y-107230686D02*
X119539698Y-107230686D01*
X119539698Y-107230686D02*
X119492079Y-107706876D01*
X119492079Y-107706876D02*
X119539698Y-107659257D01*
X119539698Y-107659257D02*
X119634936Y-107611638D01*
X119634936Y-107611638D02*
X119873031Y-107611638D01*
X119873031Y-107611638D02*
X119968269Y-107659257D01*
X119968269Y-107659257D02*
X120015888Y-107706876D01*
X120015888Y-107706876D02*
X120063507Y-107802114D01*
X120063507Y-107802114D02*
X120063507Y-108040209D01*
X120063507Y-108040209D02*
X120015888Y-108135447D01*
X120015888Y-108135447D02*
X119968269Y-108183067D01*
X119968269Y-108183067D02*
X119873031Y-108230686D01*
X119873031Y-108230686D02*
X119634936Y-108230686D01*
X119634936Y-108230686D02*
X119539698Y-108183067D01*
X119539698Y-108183067D02*
X119492079Y-108135447D01*
X120396841Y-107230686D02*
X120634936Y-108230686D01*
X120634936Y-108230686D02*
X120825412Y-107516400D01*
X120825412Y-107516400D02*
X121015888Y-108230686D01*
X121015888Y-108230686D02*
X121253984Y-107230686D01*
D11*
X138933333Y-68382269D02*
X139028571Y-68429888D01*
X139028571Y-68429888D02*
X139171428Y-68429888D01*
X139171428Y-68429888D02*
X139314285Y-68382269D01*
X139314285Y-68382269D02*
X139409523Y-68287031D01*
X139409523Y-68287031D02*
X139457142Y-68191793D01*
X139457142Y-68191793D02*
X139504761Y-68001317D01*
X139504761Y-68001317D02*
X139504761Y-67858460D01*
X139504761Y-67858460D02*
X139457142Y-67667984D01*
X139457142Y-67667984D02*
X139409523Y-67572746D01*
X139409523Y-67572746D02*
X139314285Y-67477508D01*
X139314285Y-67477508D02*
X139171428Y-67429888D01*
X139171428Y-67429888D02*
X139076190Y-67429888D01*
X139076190Y-67429888D02*
X138933333Y-67477508D01*
X138933333Y-67477508D02*
X138885714Y-67525127D01*
X138885714Y-67525127D02*
X138885714Y-67858460D01*
X138885714Y-67858460D02*
X139076190Y-67858460D01*
X137933333Y-67429888D02*
X138504761Y-67429888D01*
X138219047Y-67429888D02*
X138219047Y-68429888D01*
X138219047Y-68429888D02*
X138314285Y-68287031D01*
X138314285Y-68287031D02*
X138409523Y-68191793D01*
X138409523Y-68191793D02*
X138504761Y-68144174D01*
X137504761Y-67810841D02*
X136742857Y-67810841D01*
X137123809Y-67429888D02*
X137123809Y-68191793D01*
X130532285Y-57312819D02*
X130198952Y-56836628D01*
X129960857Y-57312819D02*
X129960857Y-56312819D01*
X129960857Y-56312819D02*
X130341809Y-56312819D01*
X130341809Y-56312819D02*
X130437047Y-56360438D01*
X130437047Y-56360438D02*
X130484666Y-56408057D01*
X130484666Y-56408057D02*
X130532285Y-56503295D01*
X130532285Y-56503295D02*
X130532285Y-56646152D01*
X130532285Y-56646152D02*
X130484666Y-56741390D01*
X130484666Y-56741390D02*
X130437047Y-56789009D01*
X130437047Y-56789009D02*
X130341809Y-56836628D01*
X130341809Y-56836628D02*
X129960857Y-56836628D01*
X131484666Y-57312819D02*
X130913238Y-57312819D01*
X131198952Y-57312819D02*
X131198952Y-56312819D01*
X131198952Y-56312819D02*
X131103714Y-56455676D01*
X131103714Y-56455676D02*
X131008476Y-56550914D01*
X131008476Y-56550914D02*
X130913238Y-56598533D01*
X131913238Y-56931866D02*
X132675143Y-56931866D01*
X162514285Y-54654819D02*
X162180952Y-54178628D01*
X161942857Y-54654819D02*
X161942857Y-53654819D01*
X161942857Y-53654819D02*
X162323809Y-53654819D01*
X162323809Y-53654819D02*
X162419047Y-53702438D01*
X162419047Y-53702438D02*
X162466666Y-53750057D01*
X162466666Y-53750057D02*
X162514285Y-53845295D01*
X162514285Y-53845295D02*
X162514285Y-53988152D01*
X162514285Y-53988152D02*
X162466666Y-54083390D01*
X162466666Y-54083390D02*
X162419047Y-54131009D01*
X162419047Y-54131009D02*
X162323809Y-54178628D01*
X162323809Y-54178628D02*
X161942857Y-54178628D01*
X162895238Y-53750057D02*
X162942857Y-53702438D01*
X162942857Y-53702438D02*
X163038095Y-53654819D01*
X163038095Y-53654819D02*
X163276190Y-53654819D01*
X163276190Y-53654819D02*
X163371428Y-53702438D01*
X163371428Y-53702438D02*
X163419047Y-53750057D01*
X163419047Y-53750057D02*
X163466666Y-53845295D01*
X163466666Y-53845295D02*
X163466666Y-53940533D01*
X163466666Y-53940533D02*
X163419047Y-54083390D01*
X163419047Y-54083390D02*
X162847619Y-54654819D01*
X162847619Y-54654819D02*
X163466666Y-54654819D01*
X163895238Y-54273866D02*
X164657143Y-54273866D01*
X139623809Y-70945180D02*
X139385714Y-69945180D01*
X139385714Y-69945180D02*
X139195238Y-70659466D01*
X139195238Y-70659466D02*
X139004762Y-69945180D01*
X139004762Y-69945180D02*
X138766667Y-70945180D01*
X137861905Y-69945180D02*
X138433333Y-69945180D01*
X138147619Y-69945180D02*
X138147619Y-70945180D01*
X138147619Y-70945180D02*
X138242857Y-70802323D01*
X138242857Y-70802323D02*
X138338095Y-70707085D01*
X138338095Y-70707085D02*
X138433333Y-70659466D01*
X137433333Y-70326133D02*
X136671429Y-70326133D01*
X137052381Y-69945180D02*
X137052381Y-70707085D01*
M02*
